<?xml version="1.0" standalone="no"?>
<!DOCTYPE svg PUBLIC "-//W3C//DTD SVG 1.1//EN" "http://www.w3.org/Graphics/SVG/1.1/DTD/svg11.dtd" >
<svg>
<metadata>
Created by FontForge 20090622 at Mon Jun 22 17:50:58 2015
 By deploy user
2013 Iconian Fonts- www.iconian.com
</metadata>
<defs>
<font id="Dekaranger3DItalic" horiz-adv-x="906" >
  <font-face 
    font-family="Dekaranger 3D Italic"
    font-weight="400"
    font-style="italic"
    font-stretch="normal"
    units-per-em="1000"
    panose-1="0 0 0 0 0 0 0 0 0 0"
    ascent="800"
    descent="-200"
    x-height="568"
    cap-height="568"
    bbox="-103 -208 1491.06 764"
    underline-thickness="50"
    underline-position="-75"
    unicode-range="U+0020-U+2122"
  />
<missing-glyph horiz-adv-x="500" 
 />
    <glyph glyph-name=".notdef" horiz-adv-x="500" 
 />
    <glyph glyph-name=".null" horiz-adv-x="0" 
 />
    <glyph glyph-name="nonmarkingreturn" horiz-adv-x="500" 
 />
    <glyph glyph-name="space" unicode=" " horiz-adv-x="452" 
 />
    <glyph glyph-name="space" unicode="&#xa0;" horiz-adv-x="452" 
 />
    <glyph glyph-name="FL0021h" unicode="!" horiz-adv-x="412" 
d="M127 161l-34 -161h225l34 161h-225zM482 554h-316l-53 -248l27 -87h225l64 87zM155 568h344l-2 -6l20 -25l-56 -262l-70 -95h-239l-19 25h-5l-30 97zM76 -14l40 189h253l-1 -6l20 -25l-39 -183h-247l-20 25h-6z" />
    <glyph glyph-name="FL0022h" unicode="&#x22;" horiz-adv-x="518" 
d="M166 554l-49 -231h117l94 70l34 161h-196zM392 554l-49 -231h117l94 70l34 161h-196zM326 309l6 31l-75 -56h-132l-19 25h-6l55 259h224l-2 -6l2 -2l2 8h224l-2 -6l20 -25l-37 -176l-103 -77h-132l-19 25h-6z" />
    <glyph glyph-name="FL0023h" unicode="#" horiz-adv-x="890" 
d="M197 450h-53l-28 -131h425l-17 -81h-425l-28 -131h53l-23 -107h316l23 107h56l-23 -107h316l23 107h53l28 131h-53l17 81h53l28 131h-53l22 104h-316l-22 -104h-56l22 104h-316zM133 464h53l22 104h344l-2 -6l20 -25l-15 -73h3l22 104h344l-2 -6l20 -25l-15 -73h28l-2 -6
l20 -25l-32 -153h-53l-6 -28h28l-2 -6l20 -25l-33 -153h-53l-22 -107h-338l-20 25h-6l17 82h-3l-22 -107h-338l-20 25h-6l17 82h-22l-19 25h-6l34 159h425l6 28h-394l-20 25h-6z" />
    <glyph glyph-name="FL0025h" unicode="$" horiz-adv-x="874" 
d="M313 14l-12 -58h226l12 58h164q11 0 25 6t24 11q48 23 73.5 59t34.5 81q13 57 -4 100t-66 66q-4 2 -9.5 3.5t-7.5 1.5h-313q-6 0 -9 4.5t-4.5 11t-1.5 12.5q0 7 1 11q1 5 2 4.5t5 4.5q4 6 10 11t9 5h440l28 131h-290l13 61h-226l-13 -61h-140q-8 0 -21 -3t-22 -8
q-51 -24 -76 -59.5t-36 -83.5q-5 -23 -5 -48q0 -24 6 -47t19 -41t36 -27q8 -2 20.5 -6l12.5 -4h310q7 0 10.5 -4.5t4.5 -11t0.5 -13t-1.5 -10.5q-2 -8 -10.5 -17.5t-17.5 -9.5h-435l-28 -130h262zM284 -58l7 33h-231l-20 25h-6l34 158h449q3 0 6.5 4t4.5 9h-294
q-8 3 -11.5 4.5t-6 2t-4.5 1l-6 1.5q-13 5 -23.5 12.5t-18.5 18.5l-7 8q-18 13 -28 32.5t-14.5 42t-4 46t4.5 43.5q11 51 38.5 89.5t81.5 64.5v1q11 6 26.5 9.5t25.5 3.5h126l13 61h254l-1 -6l19 -25l-6 -30h265l-1 -6l20 -25l-33 -153h-451l-20 25l19 -25q-2 -2 -3.5 -4
t-3.5 -5h-1q-1 -1 -1 -2h294q2 0 9 -2t12 -4q51 -24 70 -67l4 -5q40 -51 22 -135q-10 -48 -37.5 -86.5t-78.5 -63.5q-11 -6 -26.5 -12t-27.5 -6h-153l-13 -58h-248l-19 25h-6z" />
    <glyph glyph-name="FL002Ah" unicode="%" horiz-adv-x="1044" 
d="M810 53h-13q-8 0 -14 8t-4 16l10 45q2 7 10 15t16 8h18q6 0 13 -6t5 -13l-11 -52q-2 -8 -12 -14t-18 -7zM643 -38q2 -1 4.5 -1.5l2.5 -0.5h266q12 0 26 6.5t26.5 16t21.5 22t12 24.5l30 140q2 10 -2 21.5t-11.5 22t-17 17.5t-19.5 7h-278q-11 0 -23.5 -7t-24 -17
t-20 -21.5t-10.5 -20.5l-31 -147q-2 -11 1.5 -21t11 -18.5t17 -14.5t18.5 -8zM344 409h-13q-8 0 -14 8t-4 16l10 45q2 7 9.5 15t15.5 8h18q6 0 13 -6t5 -13l-11 -52q-2 -8 -11.5 -14t-17.5 -7zM177 318q2 -1 4.5 -1.5l2.5 -0.5h266q12 0 26 6.5t26.5 16t21.5 22t12 24.5
l30 140q2 10 -2 21.5t-11.5 22t-17 17.5t-19.5 7h-278q-11 0 -23.5 -7t-24 -17t-20 -21.5t-10.5 -20.5l-31 -147q-2 -11 1.5 -21t11 -18.5t17 -14.5t18.5 -8zM1095 554h-274l-753 -554h276zM819 568h316l-7 -5l20 -26l-388 -286h225q16 0 32 -15.5t24 -34.5l1 -1l4 -5
q11 -13 16 -27.5t3 -26.5l-30 -140q-3 -14 -13.5 -28t-25 -25.5t-30.5 -19t-30 -7.5h-268l-8 3l1 -1q-25 4 -43 27l-15 19q-11 11 -18 25.5t-4 29.5l24 111l-237 -174h-309l-20 25h-11l395 291h-221l-8 3v-1q-24 4 -42 27l-15 18q-12 11 -19 25.5t-3 30.5l31 147
q2 11 12.5 25t24.5 26t29.5 20.5t28.5 8.5h278q16 0 32 -15t24 -34l5 -7q11 -13 16 -27.5t3 -26.5l-23 -108zM822 94l-6 -27q8 2 10 7l6 31q-3 -1 -6 -4.5t-4 -6.5zM356 450l-6 -27q9 2 9 7l7 31q-3 -1 -6 -4.5t-4 -6.5z" />
    <glyph glyph-name="FL0026h" unicode="&#x26;" horiz-adv-x="940" 
d="M435 210h85q2 -2 4.5 -7t3.5 -10q5 -5 5 -8t-1 -8l-2 -6q-1 -5 -4 -12t-7.5 -13.5t-11 -11t-13.5 -4.5h-68q-8 0 -12 4.5t-6 11t-2.5 13.5t0.5 12l2 6q1 9 10 16q4 5 9.5 11t7.5 6zM177 0h510q32 0 59.5 17.5t49.5 43t36.5 55.5t19.5 55l4 18l3 12v10h78l28 131h-497
q-7 1 -10.5 6t-5.5 11.5t-2 12.5q0 7 1 11q2 7 10.5 22.5t16.5 17.5h287l28 131h-485q-34 0 -64 -16t-53.5 -40.5t-39.5 -55t-22 -59.5q-4 -20 -6 -37.5t3 -35.5l1 -5t2.5 -10.5t2.5 -10.5t2 -6v-2q0 -1 -4 -6.5l-9 -12.5t-9.5 -14t-5.5 -10q-9 -14 -12 -22.5t-6 -21.5
l-4 -18q-5 -25 -3 -55t12.5 -55.5t31 -43t52.5 -17.5zM499 384q-5 -2 -9 -12.5t-5 -15.5h497l-2 -6l20 -25l-32 -153h-76l-7 -29q-6 -27 -21.5 -58.5t-38.5 -59t-53.5 -46t-64.5 -18.5h-510q-25 0 -43 9.5t-31 25.5l-7 9q-17 13 -28 33t-16.5 43t-5.5 46q0 24 4 44l4 18
q3 15 6.5 24t13.5 25l-1 -1l6 9q8 11 9 14q4 6 5.5 8.5t5.5 7.5q-2 6 -3.5 14t-3.5 13h-1q-5 20 -3 38.5t7 41.5q7 31 24.5 64t43 60t58 44t70.5 17h499l-2 -6l20 -25l-32 -153h-297zM441 149l-1 -5h57q8 0 12.5 10t6.5 17h-62l-2 -4.5t-6 -9.5q-5 -5 -5 -8z" />
    <glyph glyph-name="FL0027h" unicode="'" horiz-adv-x="322" 
d="M166 554l-49 -231h147l94 70l34 161h-226zM100 309l55 259h254l-2 -6l20 -25l-37 -176l-103 -77h-162l-19 25h-6z" />
    <glyph glyph-name="FL0028h" unicode="(" horiz-adv-x="529" 
d="M580 467l28 131h-305q-21 0 -46.5 -14t-48.5 -34.5t-40.5 -44.5t-21.5 -43l-80 -378q-5 -21 4.5 -43.5t26.5 -41.5t39 -31t42 -12h294l27 130h-48l-10.5 6.5t-17.5 8.5q-14 11 -21 29.5t-3 36.5l48 223q2 10 9.5 23t18.5 25t24 20.5t27 8.5h54zM625 612l-1 -6l19 -25
l-32 -153h-65q-11 0 -22 -7t-20 -17.5t-15.5 -22t-8.5 -19.5l-47 -223q-3 -15 -2 -24q1 -1 2 -1t2 -1l-1 -1q8 -3 11.5 -5t13.5 -7h57l-1 -6l20 -25l-33 -152h-305q-24 0 -49.5 15.5t-44.5 39.5l-3 4q-25 22 -39.5 51t-8.5 57l80 378q4 21 23.5 47.5t45 49t54 38t51.5 15.5
h319z" />
    <glyph glyph-name="FL0029h" unicode=")" horiz-adv-x="529" 
d="M163 612l-34 -159h6l20 -25h65q7 0 9 -1q7 -19 4 -37l-48 -223q-3 -14 -15 -29t-29 -25v-1q-10 -3 -14 -5t-17 -7h-56l-33 -158h6l19 -25h305q22 0 51 13t56 33.5t47.5 45t25.5 47.5l80 378q5 23 -4.5 51t-27.5 51l-3 3q-16 29 -41.5 51t-52.5 22h-319zM146 467l28 131
h305q21 0 40.5 -14t34 -34.5t21.5 -44.5t3 -43l-80 -378q-5 -21 -23.5 -43.5t-43.5 -41.5t-52 -31t-47 -12h-294l27 130h48q1 0 7 3l14.5 7t12.5 5q20 11 34 29.5t18 36.5l48 223q2 10 0 23t-8 25t-16 20.5t-23 8.5h-54z" />
    <glyph glyph-name="FL0F98h" unicode="*" horiz-adv-x="342" 
d="M260 443l21 -46l101 66l-22 40l59 14l-21 98l-51 -24l11 52h-112l-7 -52l-41 24l-55 -97l50 -13l-51 -44l77 -64zM274 377l-5 9l-28 -32l-94 78l-15 18l-11 10l27 23l-17 23l-8 2l71 127l34 -19l6 41h141l-2 -6l19 -25l17 8l1 -11l18 -21l26 -121l-55 -13l21 -35
l-122 -80l-20 26z" />
    <glyph glyph-name="FL002Bh" unicode="+" horiz-adv-x="459" 
d="M368 342l24 115h-131l-24 -115h-116l-28 -131h116l-25 -117h131l25 117h116l28 131h-116zM409 471l-1 -6l20 -25l-18 -84h91l-2 -6l20 -25l-32 -153h-116l-25 -117h-153l-20 25h-6l20 92h-85l-20 25h-6l34 159h116l24 115h159z" />
    <glyph glyph-name="FL002Ch" unicode="," horiz-adv-x="322" 
d="M82 161l-49 -231h147l94 70l34 161h-226zM16 -84l55 259h254l-1 -6l20 -25l-38 -176l-102 -77h-162l-20 25h-6z" />
    <glyph glyph-name="minus" unicode="-" horiz-adv-x="399" 
d="M424 342h-303l-28 -131h303zM110 356h331l-2 -6l20 -25l-32 -153h-325l-20 25h-6z" />
    <glyph glyph-name="FL002Eh" unicode="." horiz-adv-x="322" 
d="M82 161l-34 -161h226l34 161h-226zM31 -14l40 189h254l-1 -6l20 -25l-39 -183h-248l-20 25h-6z" />
    <glyph glyph-name="FL002Fh" unicode="/" horiz-adv-x="975" 
d="M1060 554h-316l-711 -554h316zM741 568h357l-6 -5l20 -26l-738 -576h-349l-20 25h-10z" />
    <glyph glyph-name="FL0030h" unicode="0" horiz-adv-x="908" 
d="M499 130h-41q-11 0 -21.5 7t-17.5 18.5t-10.5 25t-0.5 26.5l30 141q2 10 10 23.5t19.5 24.5t24.5 19t25 8h51q9 0 19 -6t17.5 -15t12 -19.5t2.5 -20.5l-35 -164q-3 -12 -12.5 -23.5t-22 -21t-26.5 -16t-24 -7.5zM171 4q3 -1 9 -2.5t7 -1.5h531q25 0 53 12.5t52.5 33
t43 45t23.5 48.5l59 279q4 19 -3.5 43t-22 44.5t-34 34.5t-39.5 14h-556q-20 0 -45.5 -13.5t-48.5 -34t-40.5 -43.5t-21.5 -41l-63 -294q-5 -21 3 -41t22.5 -37t33.5 -29t37 -17zM110 18l-3 2q-25 20 -39 48.5t-7 59.5l63 294q4 20 23.5 45.5t45 48t54 37.5t50.5 15h556
q27 0 52 -22.5t42 -51.5l2 -3q19 -23 28.5 -50.5t4.5 -50.5l-59 -279q-6 -26 -25.5 -52.5t-46 -48.5t-56.5 -35.5t-57 -13.5h-531q-3 0 -10 1.5t-9 2.5q-20 5 -41 19t-37 34zM441 179q-3 -14 2 -29q7 -6 18 -6h40q9 1 20 6t21.5 12.5t18 17t9.5 18.5l35 164q1 4 0 8t-2 9
l-8.5 3.5t-6.5 1.5h-51q-10 0 -20.5 -6.5t-20 -16.5t-16.5 -21t-9 -20z" />
    <glyph glyph-name="FL0031h" unicode="1" horiz-adv-x="559" 
d="M629 554h-463l-28 -132h146l-90 -422h317zM155 568h491l-2 -6l20 -25l-122 -576h-339l-20 25h-6l84 397h-115l-19 25h-6z" />
    <glyph glyph-name="FL0032h" unicode="2" horiz-adv-x="874" 
d="M127 409l20 -25h430l-1 -3q-2 -5 -5.5 -15t-7.5 -10h-313q-3 0 -11 -2t-14 -4q-65 -25 -102 -71.5t-51 -107.5l-39 -185h6l20 -25h798l32 152l-20 25l2 6h-433q1 6 5 16.5t12 10.5h313q10 3 14.5 4.5t6.5 2l4 1t7 1.5q30 10 54 30t41.5 44t28.5 50.5t16 50.5q9 40 5 78.5
t-27 66.5l-7 9q-13 26 -41 45l1 1q-8 6 -22 9.5t-24 3.5h-670l-34 -159h6zM396 130h458l-28 -130h-776l36 171q13 57 47.5 100t94.5 66q4 2 10.5 3.5t8.5 1.5h313q6 0 11 4.5t9 11t6.5 13t3.5 10.5q1 5 1.5 13t-0.5 13q-2 6 -6 11t-7 5h-440l28 131h656q8 0 19.5 -3t18.5 -8
q20 -12 31.5 -29.5t17 -38.5t4.5 -44.5t-6 -47.5q-5 -23 -15 -47.5t-25.5 -47.5t-36.5 -41t-47 -27q-10 -2 -23.5 -6l-13.5 -4h-310q-7 0 -12.5 -4.5t-9.5 -11t-6.5 -13t-3.5 -10.5z" />
    <glyph glyph-name="FL0042h" unicode="3" horiz-adv-x="872" 
d="M93 210h434q2 0 5 -6t4 -11q5 -5 5 -8t-1 -8l-2 -6q-1 -5 -4 -12t-7.5 -13.5t-11 -11t-13.5 -4.5h-426l-28 -130h647q32 0 59.5 17.5t49.5 43t36.5 55.5t19.5 55l4 18q3 13 3.5 21.5t-1.5 22.5l-3.5 10t-5.5 14t-5 12.5t-2 6.5v2l6 6t9.5 10.5l8.5 10.5l4 5
q12 18 17.5 35.5t9.5 37.5q6 29 3.5 59.5t-15.5 55t-36 40.5t-57 16h-634l-28 -131h434q4 0 6.5 -5t4 -12t1.5 -14q0 -6 -1 -9q-1 -4 -4 -11t-7.5 -13.5t-11 -11.5t-13.5 -5h-426zM57 -39l-20 25h-6l34 158h440q8 0 12.5 10t6.5 17h-423l-19 25h-6l34 160h440q8 0 13 11
t6 16l1 1h-423l-20 25h-6l34 159h648q42 0 67.5 -20t39.5 -50l1 -2h-1q1 1 0 1l1 -1q23 -28 29 -66t-2 -75q-5 -22 -10 -40t-19 -38l-1 1l-11.5 -15t-13.5 -16q1 -2 2 -3.5t2 -3.5q4 -8 7 -17t4 -14q3 -16 2.5 -25t-3.5 -23l-4 -18q-6 -27 -21.5 -58.5t-38.5 -59t-53.5 -46
t-64.5 -18.5h-658z" />
    <glyph glyph-name="FL0034h" unicode="4" 
d="M481 554h-315l-74 -347h494l-44 -207h316l118 554h-316l-44 -207h-179zM155 568h343l-2 -6l20 -25l-37 -176h126l44 207h344l-2 -6l20 -25l-122 -576h-338l-20 25h-6l39 182h-463l-20 25h-6z" />
    <glyph glyph-name="FL0035h" unicode="5" horiz-adv-x="874" 
d="M511 130h-435l-28 -130h652q11 0 25 6t24 11q47 23 74.5 66t36.5 88q13 57 -4 100t-66 66q-4 2 -9.5 3.5t-7.5 1.5h-313q-6 0 -9 4.5t-4.5 11t-1.5 12.5q0 7 1 11l9 42h461l28 131h-778l-37 -171q-5 -23 -5 -48q0 -24 6 -47t19 -41t36 -27q8 -2 20.5 -6l12.5 -4h310
q7 0 10.5 -4.5t4.5 -11t0.5 -13t-1.5 -10.5t-4 -11t-7.5 -13.5t-10 -11.5t-9.5 -5zM65 144h449q3 0 8 11t6 16h-294q-8 3 -11.5 4.5t-6 2t-4.5 1l-6 1.5q-13 5 -23.5 12.5t-18.5 18.5l-7 8q-18 13 -28 32.5t-14.5 42t-4 46t4.5 43.5l40 185h806l-2 -6l20 -25l-32 -153h-461
l-6 -28h296q2 0 9 -2t12 -4q51 -24 70 -67l4 -5q40 -51 22 -135q-10 -48 -39 -93.5t-80 -70.5q-11 -6 -26.5 -12t-27.5 -6h-663l-20 25h-6z" />
    <glyph glyph-name="FL0036h" unicode="6" horiz-adv-x="894" 
d="M492 144h-28q-10 0 -23 8q-2 4 -2 9v10h96q-11 -12 -21.5 -19.5t-21.5 -7.5zM981 568h-683q-21 0 -49.5 -15t-54.5 -37.5t-46 -48t-24 -45.5l-63 -294q-6 -28 8 -58t40 -52l3 -4q18 -23 43.5 -38t51.5 -15h520q26 0 55.5 14.5t56 36.5t46 48.5t24.5 50.5l15 71
q5 22 -2 45t-24 43l-4 4q-15 32 -45 54.5t-68 22.5h-290q11 13 23.5 22.5t21.5 9.5h430l33 154l-20 25zM572 210h-163l-2 -6q-2 -11 1.5 -24t11 -24t18.5 -18.5t23 -7.5h28q14 0 27.5 8t25 20t19.5 26t11 26zM295 554h669l-28 -132h-419q-9 0 -22 -8.5t-25 -20t-21 -24.5
t-11 -22l-2 -10h342q26 0 48.5 -12t38.5 -30.5t23 -41t3 -43.5l-15 -71q-5 -22 -23 -46.5t-42.5 -45t-52 -34t-51.5 -13.5h-520q-22 0 -44 12t-38.5 31t-25.5 41.5t-4 43.5l63 294q4 18 21.5 41t41 43.5t49 34t45.5 13.5z" />
    <glyph glyph-name="FL0037h" unicode="7" horiz-adv-x="784" 
d="M854 554h-688l-28 -132h371l-320 -422h317l320 422zM155 568h716l-2 -6l20 -25l-31 -146l-325 -430h-343l-20 25h-8l300 397h-316l-19 25h-6z" />
    <glyph glyph-name="FL0038h" unicode="8" horiz-adv-x="872" 
d="M440 144l1 5q0 3 5 8q4 5 6 9.5l2 4.5h70q-2 -7 -6.5 -17t-12.5 -10h-65zM570 384l-1 -1q-1 -5 -6.5 -15t-12.5 -12h-65q1 5 5 15.5t9 12.5h71zM116 5l7 -9q13 -16 31 -25.5t43 -9.5h518q34 0 64.5 18.5t53.5 46t38.5 59t21.5 58.5l4 18q3 14 3.5 24.5t-2.5 27.5
q-3 7 -10 25l-1 1q-2 2 -2 3q0 2 -1 4q3 2 7 8t15 18q16 23 21.5 42t10.5 41q8 37 2 75t-29 66l-3 3q-14 30 -39.5 49.5t-65.5 19.5h-492q-38 0 -70.5 -17t-58 -44t-43 -60t-24.5 -64q-5 -23 -6.5 -43t4.5 -46l3 9q2 -6 2.5 -13.5t2.5 -13.5q-3 -2 -4 -3.5t-4 -6.5
q-5 -6 -9.5 -13l-9.5 -15q-10 -16 -13.5 -25t-6.5 -24l-4 -18q-4 -20 -4 -44q0 -23 5.5 -46t16.5 -43t28 -33zM528 210h-93q-2 0 -7.5 -6t-9.5 -11q-9 -7 -10 -16l-2 -6q-1 -5 -0.5 -12t2.5 -13.5t6 -11t12 -4.5h76q7 0 13.5 4.5t11 11t7.5 13.5t4 12l2 6q1 5 1 8t-5 8
q-1 5 -3.5 10t-4.5 7zM583 383q1 3 1 9t-1.5 12.5t-3.5 12t-6 6.5h-95q-8 -2 -16.5 -17.5t-10.5 -22.5q-1 -4 -1 -11q0 -6 2 -12.5t5.5 -11.5t10.5 -6h82q13 2 22 17.5t11 23.5zM695 0h-518q-32 0 -52.5 17.5t-31 43t-12.5 55.5t3 55l4 18q3 13 6 21.5t12 22.5q1 3 6 10
l10 14t9.5 12.5t4.5 6.5v2q-1 1 -2.5 6t-3.5 10.5t-3 10.5l-1 5q-5 18 -3 35.5t6 37.5q6 29 22 59.5t39.5 55t53.5 40.5t64 16h492q34 0 57 -16t36 -40.5t15.5 -55t-3.5 -59.5q-4 -20 -9.5 -37.5t-17.5 -35.5q-1 -1 -7 -8l-13 -15.5t-8 -9.5l-1 -2q0 -1 2.5 -6.5l5.5 -12.5
t5.5 -13.5t3.5 -9.5q2 -14 1.5 -22.5t-3.5 -21.5l-4 -18q-5 -25 -19.5 -55t-36.5 -55.5t-49.5 -43t-59.5 -17.5z" />
    <glyph glyph-name="FL0039h" unicode="9" horiz-adv-x="894" 
d="M543 385h28q9 0 14 -4q5 -11 6 -23h-95q11 11 22.5 19t24.5 8zM153 234l4 -6q17 -22 42.5 -36t54.5 -14h289q-11 -13 -23.5 -22.5t-21.5 -9.5h-373l-34 -160h6l20 -25h620q21 0 48.5 15t53 36.5t45 46.5t23.5 45l63 294q5 21 -2.5 43.5t-23.5 42.5l-4 5q-17 32 -48 55.5
t-64 23.5h-520q-26 0 -56.5 -15t-57.5 -37.5t-47 -49.5t-25 -51l-15 -71q-6 -29 7 -59t39 -51zM440 344h163l1 6q3 11 -0.5 24t-11 24t-18.5 18.5t-23 7.5h-28q-14 0 -27.5 -8t-25 -20t-19.5 -26t-11 -26zM717 0h-609l28 132h359q9 0 22 8.5t25 20t21 24.5t11 22l2 10h-342
q-26 0 -48.5 12t-38.5 30.5t-23.5 41t-2.5 43.5l15 71q5 22 23 46.5t42.5 45t52 34t51.5 13.5h520q22 0 44 -12t38.5 -31t25 -41.5t4.5 -43.5l-63 -294q-4 -18 -21.5 -41t-41 -43.5t-49.5 -34t-45 -13.5z" />
    <glyph glyph-name="FL003Ah" unicode=":" horiz-adv-x="322" 
d="M138 423l-34 -161h226l34 161h-226zM82 161l-34 -161h226l34 161h-226zM31 -14l40 189h254l-1 -6l20 -25l-39 -183h-248l-20 25h-6zM87 248l40 189h254l-1 -6l19 -25l-39 -183h-248l-19 25h-6z" />
    <glyph glyph-name="FL003Bh" unicode=";" horiz-adv-x="322" 
d="M82 161l-49 -231h147l94 70l34 161h-226zM138 423l-34 -161h226l34 161h-226zM16 -84l55 259h254l-1 -6l20 -25l-38 -176l-102 -77h-162l-20 25h-6zM87 248l40 189h254l-1 -6l19 -25l-39 -183h-248l-19 25h-6z" />
    <glyph glyph-name="FL003Ch" unicode="&#x3c;" horiz-adv-x="686" 
d="M322 0h330l-230 276l349 278h-330l-349 -278zM684 -14h-4l20 -25h-363l-21 25h-3l-241 290l366 292h371l-6 -5l20 -26l-360 -287z" />
    <glyph glyph-name="FL003Dh" unicode="=" horiz-adv-x="459" 
d="M465 252h-363l-28 -131h363zM503 433h-363l-28 -131h363zM129 447h391l-1 -6l19 -25l-32 -153h-25l-1 -3l20 -25l-33 -153h-385l-19 25h-6l34 159h28l-18 22h-6z" />
    <glyph glyph-name="FL003Eh" unicode="&#x3e;" horiz-adv-x="686" 
d="M364 0l348 276l-231 278h-330l231 -278l-348 -276h330zM732 276l-3 -2l21 -26l-361 -287h-363l-20 25h-10l365 290l-242 292h371z" />
    <glyph glyph-name="FL003Fh" unicode="?" horiz-adv-x="874" 
d="M180 161l-34 -161h226l34 161h-226zM191 210h555l13.5 4t23.5 6q26 9 47 27t36.5 41t25.5 47.5t15 47.5q5 24 6 47.5t-4.5 44.5t-17 38.5t-31.5 29.5q-7 5 -18.5 8t-19.5 3h-656l-28 -131h440q3 0 7 -5t6 -11q1 -5 0.5 -13t-1.5 -13q-1 -4 -3.5 -10.5t-6.5 -13t-9 -11
t-11 -4.5h-219q-60 0 -98 -32.5t-50 -89.5zM129 -14l40 189h27l-16 21h-6l5 24q14 64 56 100t109 36h219q4 0 7.5 10t5.5 15l1 3h-430l-20 25h-6l34 159h670q10 0 24 -3.5t22 -9.5l-1 -1q28 -19 41 -45l7 -9q23 -28 27 -66.5t-5 -78.5q-5 -24 -16 -50.5t-28.5 -50.5
t-41.5 -44t-54 -30q-5 -1 -7 -1.5l-4 -1t-6.5 -2t-14.5 -4.5h-346v-2l20 -25l-39 -183h-248l-20 25h-6z" />
    <glyph glyph-name="FL0040h" unicode="@" horiz-adv-x="1200" 
d="M516 100l-1 1l3 -1h-2zM672 244l6 27q0 3 3.5 6.5t6.5 4.5l-7 -31q0 -5 -9 -7zM546 428h14q-18 -2 -38 -16t-35 -31q10 17 26 32t33 15zM433 139l7 33q5 -15 19 -27l15 -18q8 -11 19 -18t22 -9h-56q-10 5 -13.5 7t-11.5 5l1 1q-1 1 -2 1t-2 1q-1 9 2 24zM902 372l-5 5
q-8 19 -22.5 34t-31.5 17h72q7 0 9 -1q7 -19 4 -37l-9 -42l-1 -5q-5 15 -16 29zM1177 612h-871q-23 0 -51.5 -15.5t-54 -38t-45 -49t-23.5 -47.5l-80 -378q-6 -28 8.5 -57t39.5 -51l3 -4q19 -24 44.5 -39.5t49.5 -15.5h638l33 152l-20 25l1 4h236q22 0 47.5 13t48 33.5
t39 45t21.5 47.5l42 197q6 26 -2 59t-26 57l-5 5q-12 24 -30 40.5t-43 16.5zM653 230h13q8 1 17.5 7t11.5 14l11 52q2 7 -5 13t-13 6h-18q-8 0 -16 -8t-9 -15l-10 -45q-2 -8 4 -16t14 -8zM303 598h871q21 0 37 -14t26 -34.5t13.5 -44.5t-0.5 -43l-42 -197q-5 -21 -20 -43.5
t-35.5 -41.5t-44 -31t-43.5 -12h-559l-2.5 0.5t-4.5 1.5q-9 2 -18.5 8t-17 14.5t-11 18.5t-1.5 21l31 147q2 9 10.5 20.5t20 21.5t24 17t23.5 7h278q10 0 19.5 -7t17 -17.5t11.5 -22t2 -21.5l-15 -67l4 2q3 0 4 1q20 11 34 29.5t18 36.5l9 42q2 10 0 23t-8 25t-16 20.5
t-23 8.5h-369q-14 0 -27 -8.5t-24 -20.5t-18.5 -25t-9.5 -23l-48 -223q-4 -18 3 -36.5t21 -29.5q7 -2 17.5 -8.5l10.5 -6.5h381l-27 -130h-627q-20 0 -42 12t-39 31t-26.5 41.5t-4.5 43.5l80 378q4 19 21.5 43t40.5 44.5t48.5 34.5t46.5 14z" />
    <glyph glyph-name="FL0043h" unicode="A" horiz-adv-x="1006" 
d="M714 343h-277q2 10 10 24t19 26.5t24.5 21t26.5 8.5h153q12 0 21.5 -8.5t15 -20.5t7.5 -26t0 -25zM642 0h316l89 421q4 19 -3.5 42t-22 43.5t-34 34t-39.5 13.5h-654q-21 0 -46 -13.5t-48.5 -33.5t-41 -43.5t-21.5 -42.5l-89 -421h315l44 207h279zM57 -39l-20 25h-6
l92 435q5 21 24 47t45 48t54 37t51 15h654q27 0 53 -22.5t43 -52.5l1 -2q19 -23 28.5 -49.5t4.5 -48.5l-92 -432h-338l-20 25h-6l39 182h-226l-44 -207h-337zM537 384q-11 0 -23.5 -8t-21.5 -19h207q-1 6 -2 13t-4 13q0 1 -3 1h-153z" />
    <glyph glyph-name="FL0045h" unicode="B" horiz-adv-x="908" 
d="M409 210h154q2 0 5 -6t4 -11q5 -5 5 -8t-1 -8l-2 -6q-1 -5 -4 -12t-7.5 -13.5t-11 -11t-13.5 -4.5h-146zM583 342h-462l-73 -342h683q32 0 59.5 17.5t49.5 43t36.5 55.5t19.5 55l4 18q1 6 3 16.5t1.5 22.5t-5 24.5t-14.5 22.5q1 1 6 6.5l10 11.5t9 11.5l4 5.5
q12 18 17.5 35.5t9.5 37.5q6 29 3.5 59.5t-15.5 55t-36 40.5t-57 16h-670l-28 -131h470q4 0 6.5 -5t4 -12t1.5 -14q0 -6 -1 -9q-1 -4 -4 -11t-7.5 -13.5t-11 -11.5t-13.5 -5zM110 356h476q8 0 13 11t6 16l1 1h-459l-20 25h-6l34 159h684q40 0 65.5 -19.5t39.5 -49.5l2 -2
q0 1 -1 1l2 -2q23 -28 29 -66t-2 -75q-5 -22 -10 -40t-19 -38l-1 1q-3 -5 -9 -13t-13 -16q9 -11 12.5 -24t3.5 -25t-2 -22.5t-3 -16.5l-4 -18q-6 -27 -21.5 -58.5t-38.5 -59t-53.5 -46t-64.5 -18.5h-694l-20 25h-6zM439 171l-5 -27h107q8 0 12.5 10t6.5 17h-121z" />
    <glyph glyph-name="FL0044h" unicode="C" horiz-adv-x="871" 
d="M913 423l28 131h-647q-21 0 -46.5 -14t-48.5 -34.5t-40.5 -44.5t-21.5 -43l-62 -290q-5 -21 4.5 -43.5t26.5 -41.5t39 -31t42 -12h636l28 130h-390l-11 6.5t-17 8.5q-15 11 -21.5 29.5t-2.5 36.5l29 135q2 10 9.5 23t18.5 25t24 20.5t27 8.5h396zM958 568l-2 -6l20 -25
l-32 -153h-407q-11 0 -22 -7t-20.5 -17.5t-16 -22t-7.5 -19.5l-29 -135q-3 -15 -1 -24q1 -1 2 -1t1 -1l-1 -1q8 -3 11.5 -5t14.5 -7h399l-2 -6l20 -25l-32 -152h-647q-24 0 -49.5 15.5t-45.5 39.5l-3 4q-25 22 -39.5 51t-8.5 57l62 290q4 21 23.5 47.5t45 49t54 38
t51.5 15.5h661z" />
    <glyph glyph-name="FL0046h" unicode="D" 
d="M438 343h-317l-73 -343h669q23 0 50.5 13.5t53 33.5t44 44.5t23.5 47.5l59 279q4 19 -4 42.5t-23 44.5t-35 35t-41 14h-678l-28 -132h429q10 -2 19.5 -8.5t17 -15.5t11.5 -20t2 -21l-34 -159q-2 -10 -11 -21.5t-21 -21.5t-25 -16.5t-23 -6.5h-110zM110 357h345l-1 -6
l19 -25l-38 -180h71q8 0 18 5t19.5 12.5t16.5 17t9 17.5l34 159q2 8 -3 19q-5 2 -8 3.5l-7 3.5h-439l-19 25h-6l34 160h692q29 0 55.5 -23.5t43.5 -54.5l1 -1q18 -23 28 -50t5 -49l-59 -279q-5 -24 -25.5 -50.5t-47.5 -48.5t-56.5 -36.5t-54.5 -14.5h-680l-20 25h-6z" />
    <glyph glyph-name="FL0048h" unicode="E" horiz-adv-x="871" 
d="M913 423l28 131h-632q-23 0 -50.5 -12.5t-53 -31.5t-44.5 -42.5t-23 -45.5l-63 -294q-5 -21 4.5 -43.5t27 -41.5t40 -31t44.5 -12h632l28 130h-386q-12 0 -23.5 7.5t-19.5 19t-12.5 25t-1.5 25.5q1 6 2 6h458l28 129h-457q5 23 16 39t35 33q12 9 21 9h402zM958 568l-2 -6
l20 -25l-32 -153h-413q-5 0 -14 -6t-14.5 -11.5l-10.5 -10.5h421l-2 -6l20 -25l-32 -151h-459q-1 -10 3 -20q11 -10 25 -10h400l-2 -6l20 -25l-32 -152h-643q-26 0 -52.5 15.5t-46.5 39.5l-3 3q-25 22 -39.5 51.5t-8.5 57.5l63 294q5 24 25.5 50t48.5 47.5t58.5 35
t55.5 13.5h646z" />
    <glyph glyph-name="FL004Ah" unicode="F" horiz-adv-x="872" 
d="M914 422l28 133h-648q-20 0 -45.5 -13.5t-48.5 -33.5t-40.5 -43.5t-21.5 -42.5l-90 -422h315l45 210h461l28 132h-458l1 4q5 27 27.5 46t49.5 30h397zM959 569l-1 -6l19 -25l-33 -155h-405q-12 -6 -23 -12.5t-21 -14.5h419l-2 -6l20 -25l-33 -154h-461l-44 -210h-337
l-20 25h-6l93 436q4 21 23.5 47t45.5 48t54 37t50 15h662z" />
    <glyph glyph-name="FL0047h" unicode="G" horiz-adv-x="1007" 
d="M1048 422l29 132h-782q-20 0 -45.5 -13.5t-49 -34t-41 -43.5t-21.5 -41l-63 -294q-5 -21 4 -43.5t25.5 -41.5t38.5 -31t44 -12h632q24 0 51.5 13.5t52 33.5t42.5 44.5t23 47.5l42 198h-510l-27 -127h191q-3 -12 -11 -26t-19.5 -26t-25 -20t-27.5 -8h-140q-12 0 -23 7.5
t-18.5 18.5t-11 24t-1.5 24l31 143q2 9 11 22t21 24.5t25 20t22 8.5h531zM1094 568l-2 -6l20 -25l-34 -154h-542q-8 0 -18.5 -7t-20 -17.5t-17.5 -21.5t-9 -18l-31 -143q-3 -13 2 -24q10 -8 22 -8h140q11 0 21.5 7.5t21.5 19.5h-146l-19 25h-6l33 155h538l-2 -6l20 -25
l-44 -209q-5 -24 -24.5 -50.5t-46 -48.5t-56 -36.5t-55.5 -14.5h-632q-26 0 -51.5 15t-43.5 38l-3 4q-26 22 -40 52t-8 58l63 294q4 20 24 45.5t46 48t54.5 37.5t49.5 15h796z" />
    <glyph glyph-name="FL0049h" unicode="H" horiz-adv-x="1006" 
d="M481 554h-315l-118 -554h315l44 207h279l-44 -207h316l118 554h-316l-44 -207h-279zM155 568h343l-2 -6l20 -25l-37 -176h226l44 207h344l-2 -6l20 -25l-122 -576h-338l-20 25h-6l39 182h-226l-44 -207h-337l-20 25h-6z" />
    <glyph glyph-name="FL004Dh" unicode="I" horiz-adv-x="805" 
d="M875 554h-708l-28 -132h708zM48 0h708l28 132h-195l45 210h-317l-45 -210h-196zM669 325l-38 -179h170l-1 -6l19 -25l-32 -154h-730l-20 25h-6l34 160h196l45 210h345l-2 -6zM156 568h736l-2 -6l20 -25l-33 -154h-730l-19 25h-6z" />
    <glyph glyph-name="j" unicode="J" horiz-adv-x="908" 
d="M406 211h-313l-18 -83q-4 -21 5.5 -43.5t27 -41t40 -31t43.5 -12.5h527q22 0 49.5 12.5t53 31.5t44 42.5t23.5 45.5l90 422h-315l-73 -343q-2 -10 -10.5 -24t-20 -26.5t-24 -21.5t-22.5 -9h-62q-5 0 -10 4.5t-9.5 10.5l-9 12t-7.5 9v1q-1 2 -2.5 9l-3 14.5t-2.5 14z
M82 225h336v-4q0 -1 2 -6l17 -21q1 -2 1 -4t3 -13q1 -5 1.5 -14t2.5 -15q4 -4 9 -4h62q8 0 18 7.5t18.5 18t15 22t8.5 19.5l76 357h343l-2 -6l20 -25l-92 -433q-5 -24 -25 -49.5t-47 -46t-57 -34t-54 -13.5h-527q-26 0 -52.5 16.5t-45.5 40.5l-3 3q-24 22 -39 51t-10 56z
" />
    <glyph glyph-name="FL004Bh" unicode="K" horiz-adv-x="990" 
d="M482 554h-316l-118 -554h316l36 170l242 -170h314l1 4l-371 273l489 277h-318l-313 -176zM155 568h344l-2 -6l20 -25l-25 -117l263 148h371l-11 -6l21 -25l-496 -281l333 -244l-2 -5l20 -25l-4 -21h-328l-230 161l-34 -161h-338l-20 25h-6z" />
    <glyph glyph-name="FL004Ch" unicode="L" horiz-adv-x="867" 
d="M482 554h-316l-91 -426q-5 -22 5 -44.5t27.5 -41t40 -30.5t43.5 -12h628l28 130h-386q-8 0 -18.5 7t-19.5 16.5t-14.5 20.5t-3.5 19zM155 568h344l-2 -6l20 -25l-79 -372q-2 -5 0 -7q7 -6 14 -10t12 -4h400l-2 -6l20 -25l-32 -152h-639q-26 0 -52.5 16t-46.5 41l-2 2
q-25 21 -40 50t-9 58z" />
    <glyph glyph-name="FL0056h" unicode="M" horiz-adv-x="1235" 
d="M594 554h-428l-118 -554h316l55 260l106 -260h185l214 251l-53 -251h316l118 554h-427l-195 -277zM155 568h451l2 -11l17 -20l71 -219l176 250h450l-2 -6l20 -25l-122 -576h-338l-20 25h-6l32 151l-150 -176h-197l-20 25h-5l-75 183l-44 -208h-338l-20 25h-6z" />
    <glyph glyph-name="FL004Eh" unicode="N" horiz-adv-x="894" 
d="M834 554h-668l-118 -554h316l90 423h103q9 0 18.5 -6t16.5 -15t11 -19t3 -17l-78 -366h318l89 418q4 19 -4 43t-23 44.5t-35 34.5t-39 14zM155 568h682q26 0 53 -23.5t43 -54.5l2 -1q18 -23 28 -50t5 -49l-91 -429h-340l-20 25h-6l81 380q1 6 -2 14q-9 4 -13 4h-92
l-90 -423h-338l-20 25h-6z" />
    <glyph glyph-name="FL004Fh" unicode="O" horiz-adv-x="1006" 
d="M597 130h-139q-11 0 -21.5 7t-17.5 18.5t-10.5 25t-0.5 26.5l30 141q2 10 10 23.5t19.5 24.5t24.5 19t25 8h149q9 0 19 -6t17.5 -15t12 -19.5t2.5 -20.5l-35 -164q-3 -12 -12.5 -23.5t-22 -21t-26.5 -16t-24 -7.5zM171 4q3 -1 9 -2.5t7 -1.5h629q25 0 53 12.5t52.5 33
t43 45t23.5 48.5l59 279q4 19 -3.5 43t-22 44.5t-34 34.5t-39.5 14h-654q-20 0 -45.5 -13.5t-48.5 -34t-40.5 -43.5t-21.5 -41l-63 -294q-5 -21 3 -41t22.5 -37t33.5 -29t37 -17zM110 18l-3 2q-25 20 -39 48.5t-7 59.5l63 294q4 20 23.5 45.5t45 48t54 37.5t50.5 15h654
q27 0 52 -22.5t42 -51.5l2 -3q19 -23 28.5 -50.5t4.5 -50.5l-59 -279q-6 -26 -25.5 -52.5t-46 -48.5t-56.5 -35.5t-57 -13.5h-629q-3 0 -10 1.5t-9 2.5q-20 5 -41 19t-37 34zM441 179q-3 -14 2 -29q7 -6 18 -6h138q9 1 20 6t21.5 12.5t18 17t9.5 18.5l35 164q1 4 0 8t-2 9
l-8.5 3.5t-6.5 1.5h-149q-10 0 -20.5 -6.5t-20 -16.5t-16.5 -21t-9 -20z" />
    <glyph glyph-name="FL0050h" unicode="P" horiz-adv-x="905" 
d="M580 342h-459l-73 -342h316l45 211h351q35 0 65 16.5t53 41.5t39 55.5t22 59.5q4 22 3 51.5t-10.5 56t-28 44.5t-48.5 18h-689l-28 -131h452q16 0 22.5 -14t3.5 -26q-1 -4 -4 -11t-7.5 -13.5t-11 -11.5t-13.5 -5zM110 356h473q8 0 13 11t6 16l1 1h-456l-20 25h-6l34 159
h703q30 0 49.5 -16t31.5 -41l5 -6q12 -15 19 -34t10 -39t2.5 -40t-3.5 -36q-6 -30 -23 -62.5t-42 -59.5t-57.5 -44.5t-69.5 -17.5h-340l-45 -211h-338l-20 25h-6z" />
    <glyph glyph-name="FL0051h" unicode="Q" horiz-adv-x="1006" 
d="M717 362l-33 -155h-191l46 -74l-7 -2h-56q-14 0 -27.5 6t-23.5 16.5t-15 24t-2 28.5l31 145q2 10 10 23t18.5 23.5t23.5 18t25 7.5h150q9 0 19 -6.5t17.5 -15.5t12 -19.5t2.5 -19.5zM187 0h473l58 -70h190l-57 76l1 2q21 7 43 20.5t41.5 31.5t33 39t18.5 43l58 274
q4 21 -2.5 45t-21 44.5t-34.5 34.5t-41 14h-653q-18 0 -43.5 -13t-49 -32t-41 -41t-21.5 -41l-64 -300q-4 -20 6 -42.5t27.5 -41t39 -31t39.5 -12.5zM709 -84l-37 45h-465q-22 0 -48 16.5t-46 41.5l-2 1q-25 22 -40 51.5t-10 55.5l64 300q4 21 24 45.5t46 45.5t54 35.5
t48 14.5h653q28 0 53 -20.5t41 -49.5l5 -6q18 -23 26.5 -51.5t3.5 -52.5l-58 -274q-5 -21 -17.5 -41.5t-30.5 -38.5t-39 -32.5t-42 -23.5l46 -62h-3l19 -25h-221l-21 25h-3zM441 178q-3 -9 -1 -19q17 -14 39 -14h36l-48 76h206l30 141q2 6 -3 17q-12 5 -14 5h-150
q-11 0 -21.5 -6t-19.5 -15.5t-15 -20t-8 -19.5z" />
    <glyph glyph-name="FL0052h" unicode="R" horiz-adv-x="920" 
d="M594 342h-473l-73 -342h316l45 211q7 -2 10.5 -5t8.5 -6l171 -200h316l-169 211h28q35 0 65 16.5t53 41.5t39 55.5t22 59.5q4 22 3 51.5t-10.5 56t-28 44.5t-48.5 18h-703l-28 -131h466q16 0 22.5 -14t3.5 -26q-1 -4 -4 -11t-7.5 -13.5t-11 -11.5t-13.5 -5zM110 356h487
q8 0 13 11t6 16l1 1h-470l-20 25h-6l34 159h717q30 0 49.5 -16t31.5 -41l5 -6q12 -15 19 -34t10 -39t2.5 -40t-3.5 -36q-6 -30 -22.5 -62t-41 -59t-56.5 -44.5t-69 -18.5l149 -186h-4l20 -25h-348l-22 25h-2l-152 178l-43 -203h-338l-20 25h-6z" />
    <glyph glyph-name="FL0053h" unicode="S" 
d="M543 130h-467l-28 -130h684q11 0 25 6t24 11q47 23 74.5 66t36.5 88q13 57 -4 100t-66 66q-4 2 -9.5 3.5t-7.5 1.5h-345q-6 0 -9 4.5t-4.5 11t-1.5 12.5q0 7 1 11q1 5 4 13t7 13q3 6 9.5 11t9.5 5h472l28 131h-688q-8 0 -21 -3t-23 -8q-49 -24 -76.5 -68t-38.5 -92
q-5 -23 -5 -48q0 -24 6 -47t19 -41t36 -27q8 -2 20.5 -6l12.5 -4h342q7 0 10.5 -4.5t4.5 -11t0.5 -13t-1.5 -10.5t-4 -11t-7.5 -13.5t-10 -11.5t-9.5 -5zM65 144h481q3 0 8 11t6 16h-326q-8 3 -11.5 4.5t-6 2t-4.5 1l-6 1.5q-13 5 -23.5 12.5t-18.5 18.5l-7 8
q-18 13 -28 32.5t-14.5 42t-4 46t4.5 43.5q11 50 41 97.5t83 73.5v1q11 6 26.5 9.5t25.5 3.5h702l-2 -6l20 -25l-32 -153h-483l-20 25l19 -25q-4 -3 -7 -9q-6 -9 -8 -19h328q2 0 9 -2t12 -4q51 -24 70 -67l4 -5q40 -51 22 -135q-10 -48 -39 -93.5t-80 -70.5
q-11 -6 -26.5 -12t-27.5 -6h-695l-20 25h-6z" />
    <glyph glyph-name="FL0054h" unicode="T" horiz-adv-x="871" 
d="M941 554h-775l-28 -132h775zM666 342h-317l-73 -342h317zM155 568h803l-2 -6l20 -25l-33 -154h-797l-19 25h-6zM338 356h345l-2 -6l20 -25l-77 -364h-339l-20 25h-6z" />
    <glyph glyph-name="FL0055h" unicode="U" horiz-adv-x="1009" 
d="M482 554h-316l-91 -426q-4 -21 4.5 -43.5t24.5 -41t37 -31t42 -12.5h640q21 0 47.5 12.5t51.5 32t43.5 43t23.5 44.5l90 422h-319l-77 -361q-2 -8 -11 -19t-21.5 -20.5t-26 -16.5t-23.5 -7h-140q-14 0 -24.5 8t-17.5 20.5t-10 26.5t0 26zM155 568h344l-2 -6l20 -25
l-75 -354q-2 -7 -1.5 -15t2.5 -17q8 -7 21 -7h140q8 0 18.5 5.5t20.5 13t17.5 16t8.5 14.5l80 375h347l-2 -6l20 -25l-92 -433q-5 -23 -25 -48.5t-47 -46.5t-56 -34.5t-51 -13.5h-640q-24 0 -47.5 14.5t-41.5 36.5l-5 4q-24 22 -39 52.5t-9 59.5z" />
    <glyph glyph-name="FL0057h" unicode="V" horiz-adv-x="976" 
d="M447 554h-296l193 -554h288l429 554h-295l-216 -296zM130 568h329l3 -12l16 -19l83 -241l199 272h328l-4 -5l20 -26l-445 -576h-302l-20 25h-5z" />
    <glyph glyph-name="FL0077h" unicode="W" horiz-adv-x="1198" 
d="M178 0h972l118 554h-316l-90 -423h-44q-9 0 -15 6t-9 15t-3.5 18.5t1.5 17.5l78 366h-305l-90 -423h-43q-9 0 -15 6t-9 15t-3.5 18.5t1.5 17.5l78 366h-318l-89 -418q-4 -20 4 -43.5t23 -44t34.5 -34.5t39.5 -14zM825 160l-1 -7q-1 -4 0 -8h27l90 423h344l-2 -6l20 -25
l-122 -576h-983q-20 0 -40.5 13.5t-36.5 34.5l-2 2q-14 12 -26 27.5t-19.5 32t-10.5 33.5t0 32l92 432h346l-2 -6l20 -25l-80 -377l-1 -7q-1 -4 0 -8h26l90 423h333l-2 -6l20 -25z" />
    <glyph glyph-name="FL0058h" unicode="X" horiz-adv-x="975" 
d="M152 554l231 -277l-350 -277h316l166 125l110 -125h316l1 4l-234 272l352 278h-316l-167 -136l-108 136h-317zM25 -39l-20 25h-10l367 291l-242 291h358l103 -130l160 130h357l-6 -5l20 -26l-363 -287l208 -241l-1 -4l20 -25l-4 -19h-331l-23 25h-1l-85 95l-159 -120
h-348z" />
    <glyph glyph-name="FL00BAh" unicode="Y" horiz-adv-x="976" 
d="M151 554l238 -278l-59 -276h317l59 276l355 278h-318l-163 -120l-112 120h-317zM339 -39l-20 25h-6l60 283l-254 299h357l108 -116l157 116h358l-6 -5l20 -26l-375 -294l-60 -282h-339z" />
    <glyph glyph-name="z" unicode="Z" horiz-adv-x="847" 
d="M465 422l-417 -422h751l28 130h-325l1 6l414 418h-749l-28 -132h325zM16 -14l391 397h-259l-19 25h-6l34 160h792l-5 -5l20 -26l-389 -393h269l-2 -6l20 -25l-32 -152h-785l-20 25h-9z" />
    <glyph glyph-name="FL005Eh" unicode="[" horiz-adv-x="529" 
d="M580 467l28 131h-433l-136 -642h433l27 130h-117l81 381h117zM625 612l-1 -6l19 -25l-32 -153h-117l-70 -328h92l-1 -6l20 -25l-33 -152h-455l-19 25h-6l142 670h461z" />
    <glyph glyph-name="FL005Ch" unicode="\" horiz-adv-x="975" 
d="M476 568h-357l498 -582h2l22 -25h349l-20 25h4zM151 554h316l475 -554h-316z" />
    <glyph glyph-name="FL005Fh" unicode="]" horiz-adv-x="529" 
d="M163 612l-34 -159h6l20 -25h86l-70 -328h-117l-33 -158h6l19 -25h455l141 664l-19 25l1 6h-461zM146 467l28 131h433l-136 -642h-433l27 130h117l81 381h-117z" />
    <glyph glyph-name="FL00B6h" unicode="^" horiz-adv-x="872" 
d="M127 409l20 -25h423l-1 -1q-1 -5 -6 -16t-13 -11h-440l-79 -370h6l20 -25h338l44 210h85l-39 -185h6l20 -25h344l42 200q3 14 4.5 37.5t-15.5 49.5q5 8 11.5 16.5l10.5 13.5l1 -1q14 20 19 39t10 41q8 37 2 75t-27 65l-7 7q-14 28 -39 46t-64 18h-648l-34 -159h6z
M527 210h-118l-45 -210h-316l73 342h426q7 0 13.5 5t11 11.5t7.5 13.5t4 11q1 3 1 9q0 7 -1.5 14t-4 12t-6.5 5h-434l28 131h634q34 0 57 -15.5t36 -40t15.5 -54.5t-3.5 -59l-10 -38.5t-17 -36.5l-4 -5.5t-9 -11.5l-10 -11.5t-6 -6.5q10 -12 14 -24.5t4.5 -24t-1 -21
t-2.5 -16.5l-40 -189h-322l38 177q1 5 1 8t-5 8q-1 5 -4 11t-5 6z" />
    <glyph glyph-name="FL0060h" unicode="_" horiz-adv-x="490" 
d="M470 131h-394l-28 -131h394zM65 145h422l-1 -6l19 -25l-32 -153h-416l-20 25h-6z" />
    <glyph glyph-name="FL0061h" unicode="`" horiz-adv-x="291" 
d="M293 554h-142l52 -131h145zM129 568h175l5 -14l14 -17l65 -153h-171l-20 25h-5z" />
    <glyph glyph-name="a" unicode="a" 
d="M614 343h-177q2 10 10 24t19 26.5t24.5 21t26.5 8.5h53q12 0 21.5 -8.5t15 -20.5t7.5 -26t0 -25zM542 0h316l89 421q4 19 -3.5 42t-22 43.5t-34 34t-39.5 13.5h-554q-21 0 -46 -13.5t-48.5 -33.5t-41 -43.5t-21.5 -42.5l-89 -421h315l44 207h179zM57 -39l-20 25h-6
l92 435q5 21 24 47t45 48t54 37t51 15h554q27 0 53 -22.5t43 -52.5l1 -2q19 -23 28.5 -49.5t4.5 -48.5l-92 -432h-338l-20 25h-6l39 182h-126l-44 -207h-337zM537 384q-11 0 -23.5 -8t-21.5 -19h107q-1 6 -2 13t-4 13q0 1 -3 1h-53z" />
    <glyph glyph-name="b" unicode="b" horiz-adv-x="872" 
d="M409 210h118q2 0 5 -6t4 -11q5 -5 5 -8t-1 -8l-2 -6q-1 -5 -4 -12t-7.5 -13.5t-11 -11t-13.5 -4.5h-110zM547 342h-426l-73 -342h647q32 0 59.5 17.5t49.5 43t36.5 55.5t19.5 55l4 18q1 7 2.5 16.5t1 21t-4.5 24t-14 24.5q1 1 6 6.5l10 11.5t9 11.5l4 5.5
q12 18 17.5 35.5t9.5 37.5q6 29 3.5 59.5t-15.5 55t-36 40.5t-57 16h-634l-28 -131h434q4 0 6.5 -5t4 -12t1.5 -14q0 -6 -1 -9q-1 -4 -4 -11t-7.5 -13.5t-11 -11.5t-13.5 -5zM110 356h440q8 0 13 11t6 16l1 1h-423l-20 25h-6l34 159h648q40 0 65.5 -19.5t39.5 -49.5l3 -3
q23 -28 29 -66t-2 -75q-5 -22 -10 -40t-19 -38l-1 1l-10.5 -13.5t-11.5 -16.5q17 -26 15.5 -49.5t-4.5 -37.5l-4 -18q-6 -27 -21.5 -58.5t-38.5 -59t-53.5 -46t-64.5 -18.5h-658l-20 25h-6zM439 171l-5 -27h71q8 0 12.5 10t6.5 17h-85z" />
    <glyph glyph-name="c" unicode="c" horiz-adv-x="845" 
d="M887 423l28 131h-621q-21 0 -46.5 -14t-48.5 -34.5t-40.5 -44.5t-21.5 -43l-62 -290q-5 -21 4.5 -43.5t26.5 -41.5t39 -31t42 -12h610l28 130h-364l-11 6.5t-17 8.5q-15 11 -21.5 29.5t-2.5 36.5l29 135q2 10 9.5 23t18.5 25t24 20.5t27 8.5h370zM932 568l-2 -6l20 -25
l-32 -153h-381q-11 0 -22 -7t-20.5 -17.5t-16 -22t-7.5 -19.5l-29 -135q-3 -15 -1 -24q1 -1 2 -1t1 -1l-1 -1q8 -3 11.5 -5t14.5 -7h373l-2 -6l20 -25l-32 -152h-621q-24 0 -49.5 15.5t-45.5 39.5l-3 4q-25 22 -39.5 51t-8.5 57l62 290q4 21 23.5 47.5t45 49t54 38
t51.5 15.5h635z" />
    <glyph glyph-name="d" unicode="d" horiz-adv-x="871" 
d="M438 343h-317l-73 -343h634q23 0 50.5 13.5t53 33.5t44 44.5t23.5 47.5l59 279q4 19 -4 42.5t-23 44.5t-35 35t-41 14h-643l-28 -132h394q10 -2 19.5 -8.5t17 -15.5t11.5 -20t2 -21l-34 -159q-2 -10 -11 -21.5t-21 -21.5t-25 -16.5t-23 -6.5h-75zM110 357h345l-1 -6
l19 -25l-38 -180h36q8 0 18 5t19.5 12.5t16.5 17t9 17.5l34 159q2 8 -3 19q-5 2 -8 3.5l-7 3.5h-404l-19 25h-6l34 160h657q29 0 55.5 -23.5t43.5 -54.5l1 -1q18 -23 28 -50t5 -49l-59 -279q-5 -24 -25.5 -50.5t-47.5 -48.5t-56.5 -36.5t-54.5 -14.5h-645l-20 25h-6z" />
    <glyph glyph-name="e" unicode="e" horiz-adv-x="845" 
d="M887 423l28 131h-606q-23 0 -50.5 -12.5t-53 -31.5t-44.5 -42.5t-23 -45.5l-63 -294q-5 -21 4.5 -43.5t27 -41.5t40 -31t44.5 -12h606l28 130h-360q-12 0 -23.5 7.5t-19.5 19t-12.5 25t-1.5 25.5q1 6 2 6h432l28 129h-431q5 23 16 39t35 33q12 9 21 9h376zM932 568l-2 -6
l20 -25l-32 -153h-387q-5 0 -14 -6t-14.5 -11.5l-10.5 -10.5h395l-2 -6l20 -25l-32 -151h-433q-1 -10 3 -20q11 -10 25 -10h374l-2 -6l20 -25l-32 -152h-617q-26 0 -52.5 15.5t-46.5 39.5l-3 3q-25 22 -39.5 51.5t-8.5 57.5l63 294q5 24 25.5 50t48.5 47.5t58.5 35
t55.5 13.5h620z" />
    <glyph glyph-name="f" unicode="f" horiz-adv-x="845" 
d="M887 422l28 133h-621q-20 0 -45.5 -13.5t-48.5 -33.5t-40.5 -43.5t-21.5 -42.5l-90 -422h315l45 210h434l28 132h-431l1 4q5 27 27.5 46t49.5 30h370zM932 569l-1 -6l19 -25l-33 -155h-379q-12 -6 -22.5 -12.5t-20.5 -14.5h392l-2 -6l20 -25l-33 -154h-434l-44 -210h-337
l-20 25h-6l93 436q4 21 23.5 47t45.5 48t54 37t50 15h635z" />
    <glyph glyph-name="g" unicode="g" horiz-adv-x="894" 
d="M936 422l28 132h-669q-20 0 -45.5 -13.5t-49 -34t-41 -43.5t-21.5 -41l-63 -294q-5 -21 4 -43.5t25.5 -41.5t38.5 -31t44 -12h520q24 0 51.5 13.5t52 33.5t42.5 44.5t23 47.5l42 198h-375l-27 -127h56q-3 -12 -11 -26t-19.5 -26t-25 -20t-27.5 -8h-28q-12 0 -23 7.5
t-18.5 18.5t-11 24t-1.5 24l31 143q2 9 11 22t21 24.5t25 20t22 8.5h419zM981 568l-2 -6l20 -25l-33 -154h-430q-8 0 -18.5 -7t-20 -17.5t-17.5 -21.5t-9 -18l-31 -143q-3 -13 2 -24q10 -8 22 -8h28q11 0 21.5 7.5t21.5 19.5h-11l-19 25h-6l33 155h403l-2 -6l20 -25
l-44 -209q-5 -24 -24.5 -50.5t-46 -48.5t-56 -36.5t-55.5 -14.5h-520q-26 0 -51.5 15t-43.5 38l-3 4q-26 22 -40 52t-8 58l63 294q4 20 24 45.5t46 48t54.5 37.5t49.5 15h683z" />
    <glyph glyph-name="h" unicode="h" 
d="M481 554h-315l-118 -554h315l44 207h179l-44 -207h316l118 554h-316l-44 -207h-179zM155 568h343l-2 -6l20 -25l-37 -176h126l44 207h344l-2 -6l20 -25l-122 -576h-338l-20 25h-6l39 182h-126l-44 -207h-337l-20 25h-6z" />
    <glyph glyph-name="i" unicode="i" horiz-adv-x="414" 
d="M483 554h-316l-118 -554h316zM156 568h344l-2 -6l20 -25l-122 -576h-338l-20 25h-6z" />
    <glyph glyph-name="FL006Ah" unicode="j" horiz-adv-x="845" 
d="M931 568h-344l-80 -375q-1 -6 -9 -14.5t-18.5 -16t-21 -13t-16.5 -5.5h-378l-34 -158h6l20 -25h617q22 0 52 13t57.5 33t48 44.5t25.5 48.5l93 437l-20 25zM598 554h316l-91 -426q-5 -22 -24 -44.5t-44.5 -41t-53 -30.5t-48.5 -12h-606l28 130h364q8 0 21.5 7t26.5 16.5
t22.5 20.5t11.5 19z" />
    <glyph glyph-name="k" unicode="k" horiz-adv-x="977" 
d="M482 554h-316l-118 -554h316l51 242l212 -242h316l-233 276l352 278h-316l-316 -242zM155 568h344l-2 -6l20 -25l-36 -171l263 202h356l-6 -5l20 -26l-362 -287l223 -264h-4l20 -25h-348l-22 25h-2l-176 202l-48 -227h-338l-20 25h-6z" />
    <glyph glyph-name="l" unicode="l" horiz-adv-x="845" 
d="M482 554h-316l-91 -426q-5 -22 5 -44.5t27.5 -41t40 -30.5t43.5 -12h606l28 130h-364q-8 0 -18.5 7t-19.5 16.5t-14.5 20.5t-3.5 19zM155 568h344l-2 -6l20 -25l-79 -372q-2 -5 0 -7q7 -6 14 -10t12 -4h378l-2 -6l20 -25l-32 -152h-617q-26 0 -52.5 16t-46.5 41l-2 2
q-25 21 -40 50t-9 58z" />
    <glyph glyph-name="FL00B5h" unicode="m" horiz-adv-x="1198" 
d="M1138 554h-972l-118 -554h316l90 423h44q9 0 14.5 -6t8.5 -15t3.5 -19t-0.5 -17l-78 -366h305l90 423h43q9 0 14.5 -6t8.5 -15t3.5 -19t-0.5 -17l-78 -366h318l89 418q4 19 -4 43t-23 44.5t-35 34.5t-39 14zM155 568h986q26 0 53 -23.5t43 -54.5l2 -1q18 -23 28 -50
t5 -49l-91 -429h-340l-20 25h-6l81 380q1 5 1 18h-25l-90 -423h-327l-20 25h-6l81 380q1 5 1 18h-26l-90 -423h-338l-20 25h-6z" />
    <glyph glyph-name="n" unicode="n" horiz-adv-x="860" 
d="M800 554h-634l-118 -554h316l90 423h69q9 0 18.5 -6t16.5 -15t11 -19t3 -17l-78 -366h318l89 418q4 19 -4 43t-23 44.5t-35 34.5t-39 14zM155 568h648q26 0 53 -23.5t43 -54.5l2 -1q18 -23 28 -50t5 -49l-91 -429h-340l-20 25h-6l81 380q1 6 -2 14q-9 4 -13 4h-58
l-90 -423h-338l-20 25h-6z" />
    <glyph glyph-name="o" unicode="o" horiz-adv-x="973" 
d="M564 130h-106q-11 0 -21.5 7t-17.5 18.5t-10.5 25t-0.5 26.5l30 141q2 10 10 23.5t19.5 24.5t24.5 19t25 8h116q9 0 19 -6t17.5 -15t12 -19.5t2.5 -20.5l-35 -164q-3 -12 -12.5 -23.5t-22 -21t-26.5 -16t-24 -7.5zM171 4q3 -1 9 -2.5t7 -1.5h596q25 0 53 12.5t52.5 33
t43 45t23.5 48.5l59 279q4 19 -3.5 43t-22 44.5t-34 34.5t-39.5 14h-621q-20 0 -45.5 -13.5t-48.5 -34t-40.5 -43.5t-21.5 -41l-63 -294q-5 -21 3 -41t22.5 -37t33.5 -29t37 -17zM110 18l-3 2q-25 20 -39 48.5t-7 59.5l63 294q4 20 23.5 45.5t45 48t54 37.5t50.5 15h621
q27 0 52 -22.5t42 -51.5l2 -3q19 -23 28.5 -50.5t4.5 -50.5l-59 -279q-6 -26 -25.5 -52.5t-46 -48.5t-56.5 -35.5t-57 -13.5h-596q-3 0 -10 1.5t-9 2.5q-20 5 -41 19t-37 34zM441 179q-3 -14 2 -29q7 -6 18 -6h105q9 1 20 6t21.5 12.5t18 17t9.5 18.5l35 164q1 4 0 8t-2 9
l-8.5 3.5t-6.5 1.5h-116q-10 0 -20.5 -6.5t-20 -16.5t-16.5 -21t-9 -20z" />
    <glyph glyph-name="p" unicode="p" horiz-adv-x="872" 
d="M547 342h-426l-73 -342h316l45 211h318q35 0 65 16.5t53 41.5t39 55.5t22 59.5q4 22 3 51.5t-10.5 56t-28 44.5t-48.5 18h-656l-28 -131h419q16 0 22.5 -14t3.5 -26q-1 -4 -4 -11t-7.5 -13.5t-11 -11.5t-13.5 -5zM110 356h440q8 0 13 11t6 16l1 1h-423l-20 25h-6l34 159
h670q30 0 49.5 -16t31.5 -41l5 -6q12 -15 19 -34t10 -39t2.5 -40t-3.5 -36q-6 -30 -23 -62.5t-42 -59.5t-57.5 -44.5t-69.5 -17.5h-307l-45 -211h-338l-20 25h-6z" />
    <glyph glyph-name="q" unicode="q" horiz-adv-x="974" 
d="M685 362l-33 -155h-193l46 -74l-7 -2h-22q-14 0 -27.5 6t-23.5 16.5t-15 24t-2 28.5l31 145q2 10 10 23t18.5 23.5t23.5 18t25 7.5h118q9 0 19 -6.5t17.5 -15.5t12 -19.5t2.5 -19.5zM187 0h439l58 -70h192l-57 76l1 2q21 7 43 20.5t41.5 31.5t33 39t18.5 43l58 274
q4 21 -2.5 45t-21 44.5t-34.5 34.5t-41 14h-621q-18 0 -43.5 -13t-49 -32t-41 -41t-21.5 -41l-64 -300q-4 -20 6 -42.5t27.5 -41t39 -31t39.5 -12.5zM675 -84l-37 45h-431q-22 0 -48 16.5t-46 41.5l-2 1q-25 22 -40 51.5t-10 55.5l64 300q4 21 24 45.5t46 45.5t54 35.5
t48 14.5h621q28 0 53 -20.5t41 -49.5l5 -6q18 -23 26.5 -51.5t3.5 -52.5l-58 -274q-5 -21 -17.5 -41.5t-30.5 -38.5t-39 -32.5t-42 -23.5l46 -62h-3l19 -25h-223l-21 25h-3zM472 323l-22 -102h191l30 141q2 6 -3 17q-12 5 -14 5h-118q-11 0 -21.5 -6t-19.5 -15.5t-15 -20
t-8 -19.5zM441 178q-3 -9 -1 -19q17 -14 39 -14h2l-35 56z" />
    <glyph glyph-name="r" unicode="r" horiz-adv-x="926" 
d="M597 342h-476l-73 -342h316l44 207q1 2 6.5 3t5.5 2h16q11 0 16.5 -3.5t12.5 -10.5l168 -198h316l-170 207l1 4q33 3 62.5 19t52 40t38 53t21.5 58q5 25 4 50.5t-8.5 47.5t-22.5 39.5t-37 28.5q-3 2 -10 4.5t-8 2.5h-706l-28 -131h466q17 0 23.5 -14t3.5 -28
q-1 -3 -4.5 -9.5t-8.5 -13t-10.5 -11.5t-10.5 -5zM110 356h490q5 0 10.5 10.5t6.5 14.5l1 3h-471l-20 25h-6l34 159h720q1 0 9 -2.5t14 -5.5q40 -20 57 -59l7 -7q22 -28 27.5 -65t-2.5 -76q-6 -28 -20.5 -56.5t-36 -53t-48.5 -42.5t-58 -25l157 -190h-4l20 -25h-349l-22 25
h-2l-156 184q-5 3 -12 3h-12q-1 -1 -4 -1l-45 -211h-338l-20 25h-6z" />
    <glyph glyph-name="s" unicode="s" horiz-adv-x="874" 
d="M511 130h-435l-28 -130h652q11 0 25 6t24 11q47 23 74.5 66t36.5 88q13 57 -4 100t-66 66q-4 2 -9.5 3.5t-7.5 1.5h-313q-6 0 -9 4.5t-4.5 11t-1.5 12.5q0 7 1 11q1 5 4 13t7 13q3 6 9.5 11t9.5 5h440l28 131h-656q-8 0 -21 -3t-23 -8q-49 -24 -76.5 -68t-38.5 -92
q-5 -23 -5 -48q0 -24 6 -47t19 -41t36 -27q8 -2 20.5 -6l12.5 -4h310q7 0 10.5 -4.5t4.5 -11t0.5 -13t-1.5 -10.5t-4 -11t-7.5 -13.5t-10 -11.5t-9.5 -5zM65 144h449q3 0 8 11t6 16h-294q-8 3 -11.5 4.5t-6 2t-4.5 1l-6 1.5q-13 5 -23.5 12.5t-18.5 18.5l-7 8
q-18 13 -28 32.5t-14.5 42t-4 46t4.5 43.5q11 50 41 97.5t83 73.5v1q11 6 26.5 9.5t25.5 3.5h670l-2 -6l20 -25l-32 -153h-451l-20 25l19 -25q-4 -3 -7 -9q-6 -9 -8 -19h296q2 0 9 -2t12 -4q51 -24 70 -67l4 -5q40 -51 22 -135q-10 -48 -39 -93.5t-80 -70.5
q-11 -6 -26.5 -12t-27.5 -6h-663l-20 25h-6z" />
    <glyph glyph-name="t" unicode="t" horiz-adv-x="871" 
d="M941 554h-775l-28 -132h228l-90 -422h317l90 422h230zM155 568h803l-2 -6l20 -25l-33 -154h-230l-89 -422h-339l-20 25h-6l84 397h-197l-19 25h-6z" />
    <glyph glyph-name="FL0075h" unicode="u" horiz-adv-x="907" 
d="M410 211l73 343h-317l-90 -421q-4 -19 3.5 -42t22.5 -43.5t34.5 -34t39.5 -13.5h555q21 0 46 13.5t48.5 33.5t40.5 43t21 43l90 421h-315l-73 -343q-2 -11 -10 -24.5t-19.5 -26t-25 -21t-26.5 -8.5h-54q-12 0 -21.5 8.5t-15 20.5t-7.5 26t0 25zM119 7l-3 3
q-13 12 -24.5 27t-19 31.5t-10.5 33t0 31.5l93 435h345l-2 -6l20 -25l-75 -354q-2 -8 -2 -17t4 -17q3 -4 12 -4h54q10 0 20.5 7t19.5 17.5t15.5 21.5t8.5 20l76 357h343l-2 -6l20 -25l-92 -432q-5 -21 -23.5 -46t-43 -47t-52.5 -36.5t-50 -14.5h-555q-20 0 -40 13t-37 33z
" />
    <glyph glyph-name="v" unicode="v" horiz-adv-x="976" 
d="M447 554h-296l193 -554h288l429 554h-295l-216 -296zM130 568h329l3 -12l16 -19l83 -241l199 272h328l-4 -5l20 -26l-445 -576h-302l-20 25h-5z" />
    <glyph glyph-name="FL00B9h" unicode="w" horiz-adv-x="1198" 
d="M183 0h829q21 0 47.5 12.5t51.5 32t43.5 43t23.5 44.5l90 422h-319l-77 -361q-2 -8 -11 -19t-21.5 -20.5t-26 -16.5t-23.5 -7h-9l90 424h-305l-90 -423l2 -1h-17q-14 0 -24.5 8t-17.5 20.5t-10 26.5t0 26l73 343h-316l-91 -426q-4 -21 4.5 -43.5t24.5 -41t37 -31
t42 -12.5zM906 537l-81 -380q12 8 21.5 18t11.5 18l80 375h347l-2 -6l20 -25l-92 -433q-5 -23 -25 -48.5t-47 -46.5t-56 -34.5t-51 -13.5h-829q-24 0 -47.5 14.5t-41.5 36.5l-5 4q-24 22 -39 52.5t-9 59.5l94 440h344l-2 -6l20 -25l-75 -354q-2 -7 -1.5 -15t2.5 -17
q8 -7 21 -7h1l90 424h333l-2 -6z" />
    <glyph glyph-name="FL0078h" unicode="x" horiz-adv-x="976" 
d="M612 0h330l-230 276l349 278h-330l-151 -120l-99 120h-330l231 -278l-348 -276h330l149 118zM974 -14h-4l20 -25h-363l-22 25h-2l-74 86l-140 -111h-363l-20 25h-10l365 290l-242 292h371l94 -115l144 115h371l-6 -5l20 -26l-360 -287z" />
    <glyph glyph-name="y" unicode="y" horiz-adv-x="976" 
d="M707 276l354 278h-330l-151 -120l-99 120h-330l239 -278l-59 -276h317zM1099 568l-6 -5l20 -26l-374 -294l-60 -282h-339l-20 25h-6l60 283l-255 299h371l94 -115l144 115h371z" />
    <glyph glyph-name="FL005Ah" unicode="z" horiz-adv-x="804" 
d="M800 140l1 6h-258l335 243l31 148l-20 25l2 6h-736l-34 -160h6l19 -25h253l-336 -245l-32 -152h6l20 -25h730l32 154zM784 132l-28 -132h-708l28 132l398 290h-336l28 132h708l-28 -132l-398 -290h336z" />
    <glyph glyph-name="FL005Bh" unicode="{" horiz-adv-x="529" 
d="M571 423l28 131h-305q-21 0 -46.5 -14t-48.5 -34.5t-40.5 -44.5t-21.5 -43l-62 -290q-5 -21 4.5 -43.5t26.5 -41.5t39 -31t42 -12h294l28 130h-48l-11 6.5t-17 8.5q-15 11 -21.5 29.5t-2.5 36.5l29 135q2 10 9.5 23t18.5 25t24 20.5t27 8.5h54zM616 568l-2 -6l20 -25
l-32 -153h-65q-11 0 -22 -7t-20.5 -17.5t-16 -22t-7.5 -19.5l-29 -135q-3 -15 -1 -24q1 -1 2 -1t1 -1l-1 -1q8 -3 11.5 -5t14.5 -7h57l-2 -6l20 -25l-32 -152h-305q-24 0 -49.5 15.5t-45.5 39.5l-3 4q-25 22 -39.5 51t-8.5 57l62 290q4 21 23.5 47.5t45 49t54 38t51.5 15.5
h319z" />
    <glyph glyph-name="FL007Ch" unicode="|" horiz-adv-x="805" 
d="M875 554h-708l-28 -132h195l-62 -290h-196l-28 -132h708l28 132h-195l62 290h196zM156 568h736l-2 -6l20 -25l-33 -154h-196l-50 -237h170l-1 -6l19 -25l-32 -154h-730l-20 25h-6l34 160h196l50 237h-164l-19 25h-6z" />
    <glyph glyph-name="FL005Dh" unicode="}" horiz-adv-x="529" 
d="M154 568l-34 -159h6l20 -25h65q7 0 8 -1q8 -18 5 -37l-29 -135q-3 -14 -15.5 -29t-29.5 -25v-1q-10 -3 -14 -5t-16 -7h-56l-34 -158h6l20 -25h305q22 0 50.5 13t55.5 33.5t47.5 45t25.5 47.5l62 290q5 23 -4.5 51t-27.5 51l-4 3q-15 29 -40.5 51t-52.5 22h-319zM137 423
l28 131h305q21 0 40.5 -14t34 -34.5t21.5 -44.5t3 -43l-62 -290q-5 -21 -23.5 -43.5t-43.5 -41.5t-52 -31t-47 -12h-294l28 130h48q1 0 6.5 3t14 7t13.5 5q20 11 34 29.5t18 36.5l29 135q2 10 0 23t-8 25t-16 20.5t-23 8.5h-54z" />
    <glyph glyph-name="FL007Eh" unicode="~" horiz-adv-x="505" 
d="M272 211h175l98 131h-124l-47 -66l-23 66h-175l-98 -131h123l48 66zM366 345l16 -20l3 -11l30 42h157l-4 -5l20 -26l-114 -153h-189l-20 25h-5l-5 13l-27 -38h-149l-20 25h-8l119 159h193z" />
    <glyph glyph-name="FL007Fh" horiz-adv-x="197" 
 />
    <glyph glyph-name="FL20ACh" horiz-adv-x="924" 
d="M244 393h-112l-21 -97h112l-8 -38h-112l-21 -98h112l-7 -32q-5 -21 4.5 -43.5t26.5 -41.5t39 -31t42 -12h577l28 130h-331l-11 6.5t-17 8.5q-8 4 -14 15h143l21 98h-164l8 38h164l21 97h-147q11 12 24.5 21t27.5 9h337l28 131h-588q-21 0 -46.5 -14t-48.5 -34.5
t-40.5 -44.5t-21.5 -43zM121 407h112l2 11q4 21 23.5 47.5t45 49t54 38t51.5 15.5h602l-2 -6l20 -25l-32 -153h-244l6 -8l-25 -119h-16l12 -16l-20 -97h211l-2 -6l20 -25l-32 -152h-588q-24 0 -49.5 15.5t-45.5 39.5l-3 4q-23 20 -37.5 47.5t-11.5 53.5h-81l-20 25h-6
l27 126h16l-8 10h-6z" />
    <glyph glyph-name="FL20ACh" unicode="&#x20ac;" horiz-adv-x="924" 
d="M244 393h-112l-21 -97h112l-8 -38h-112l-21 -98h112l-7 -32q-5 -21 4.5 -43.5t26.5 -41.5t39 -31t42 -12h577l28 130h-331l-11 6.5t-17 8.5q-8 4 -14 15h143l21 98h-164l8 38h164l21 97h-147q11 12 24.5 21t27.5 9h337l28 131h-588q-21 0 -46.5 -14t-48.5 -34.5
t-40.5 -44.5t-21.5 -43zM121 407h112l2 11q4 21 23.5 47.5t45 49t54 38t51.5 15.5h602l-2 -6l20 -25l-32 -153h-244l6 -8l-25 -119h-16l12 -16l-20 -97h211l-2 -6l20 -25l-32 -152h-588q-24 0 -49.5 15.5t-45.5 39.5l-3 4q-23 20 -37.5 47.5t-11.5 53.5h-81l-20 25h-6
l27 126h16l-8 10h-6z" />
    <glyph glyph-name="FL201Ah" unicode="&#x201a;" horiz-adv-x="322" 
d="M82 161l-49 -231h147l94 70l34 161h-226zM16 -84l55 259h254l-1 -6l20 -25l-38 -176l-102 -77h-162l-20 25h-6z" />
    <glyph glyph-name="FL0192h" unicode="&#x192;" horiz-adv-x="894" 
d="M600 344h-163l1 6q3 11 12 24t21 24t26 18.5t26 7.5h28q14 0 24.5 -8t16.5 -20t8.5 -26t-0.5 -26zM177 0h669l28 132h-419q-9 0 -18 8.5t-16 20t-11 24.5t-2 22l2 10h482l42 198q5 22 -2.5 46.5t-23 45t-37.5 34t-46 13.5h-520q-22 0 -49 -12t-52 -31t-43 -41.5
t-22 -43.5l-63 -294q-4 -18 4 -41t23 -43.5t34.5 -34t39.5 -13.5zM441 178q-2 -10 3 -26q6 -6 14 -6h433l-1 -6l19 -25l-32 -154h-680q-20 0 -40.5 14t-36.5 34h-1q-14 12 -25.5 27.5t-19.5 32t-11.5 33t-0.5 30.5l63 294q5 23 25 48t47 46t57 34.5t54 13.5h520
q32 0 61 -22.5t46 -53.5l3 -4q18 -23 26 -49.5t3 -51.5l-44 -209h-482zM543 385q-11 0 -25 -8t-25 -19h93q-1 7 -2 13t-4 12q-8 2 -9 2h-28z" />
    <glyph glyph-name="FL201Eh" unicode="&#x201e;" horiz-adv-x="518" 
d="M82 161l-49 -231h117l94 70l34 161h-196zM308 161l-49 -231h117l94 70l34 161h-196zM242 -84l7 32l-75 -57h-132l-20 25h-6l55 259h224l-1 -6l1 -2l2 8h224l-1 -6l20 -25l-38 -176l-102 -77h-132l-20 25h-6z" />
    <glyph glyph-name="FL2026h" unicode="&#x2026;" horiz-adv-x="834" 
d="M82 161l-34 -161h226l34 161h-226zM338 161l-34 -161h226l34 161h-226zM594 161l-34 -161h226l34 161h-226zM31 -14l40 189h254l-1 -6l1 -2l2 8h254l-1 -6l1 -2l2 8h254l-1 -6l20 -25l-39 -183h-248l-7 8l-1 -8h-248l-7 8l-1 -8h-248l-20 25h-6z" />
    <glyph glyph-name="FL2020h" unicode="&#x2020;" horiz-adv-x="518" 
d="M197 450h-53l-28 -131h53l-68 -319h316l68 319h53l28 131h-53l22 104h-316zM133 464h53l22 104h344l-2 -6l20 -25l-15 -73h28l-2 -6l20 -25l-32 -153h-53l-68 -319h-338l-20 25h-6l63 294h-22l-20 25h-6z" />
    <glyph glyph-name="FL2021h" unicode="&#x2021;" horiz-adv-x="518" 
d="M197 450h-53l-28 -131h53l-17 -81h-53l-28 -131h53l-23 -107h316l23 107h53l28 131h-53l17 81h53l28 131h-53l22 104h-316zM133 464h53l22 104h344l-2 -6l20 -25l-15 -73h28l-2 -6l20 -25l-32 -153h-53l-6 -28h28l-2 -6l20 -25l-33 -153h-53l-22 -107h-338l-20 25h-6
l17 82h-22l-19 25h-6l34 159h53l6 28h-22l-20 25h-6z" />
    <glyph glyph-name="FL02C6h" unicode="&#x2c6;" horiz-adv-x="468" 
d="M455 554h-206l-111 -131h145l54 66l28 -66h145zM244 568h222l5 -14l14 -17l65 -153h-171l-20 25h-5l-9 20l-36 -45h-171l-20 25h-9z" />
    <glyph glyph-name="FL2030h" unicode="&#x2030;" horiz-adv-x="1469" 
d="M1235 54h-13q-8 0 -13.5 8t-3.5 16l9 45q2 7 10 15t16 8h18q6 0 13 -6t5 -13l-11 -52q-2 -8 -11.5 -14t-18.5 -7zM1068 -37q2 -1 5 -1.5l3 -0.5h266q12 0 26 6.5t26.5 16t21.5 22t11 24.5l30 140q2 10 -1.5 21.5t-11 22t-17 17.5t-19.5 7h-278q-11 0 -23.5 -7t-24 -17
t-20 -21.5t-10.5 -20.5l-32 -147q-2 -11 1.5 -21t11 -18.5t17 -14.5t18.5 -8zM810 53h-13q-8 0 -14 8t-4 16l10 45q2 7 10 15t16 8h18q6 0 13 -6t5 -13l-11 -52q-2 -8 -12 -14t-18 -7zM643 -38q2 -1 4.5 -1.5l2.5 -0.5h266q12 0 26 6.5t26.5 16t21.5 22t12 24.5l30 140
q2 10 -2 21.5t-11.5 22t-17 17.5t-19.5 7h-278q-11 0 -23.5 -7t-24 -17t-20 -21.5t-10.5 -20.5l-31 -147q-2 -11 1.5 -21t11 -18.5t17 -14.5t18.5 -8zM344 409h-13q-8 0 -14 8t-4 16l10 45q2 7 9.5 15t15.5 8h18q6 0 13 -6t5 -13l-11 -52q-2 -8 -11.5 -14t-17.5 -7zM177 318
q2 -1 4.5 -1.5l2.5 -0.5h266q12 0 26 6.5t26.5 16t21.5 22t12 24.5l30 140q2 10 -2 21.5t-11.5 22t-17 17.5t-19.5 7h-278q-11 0 -23.5 -7t-24 -17t-20 -21.5t-10.5 -20.5l-31 -147q-2 -11 1.5 -21t11 -18.5t17 -14.5t18.5 -8zM1095 554l-276 -1l-751 -553h276zM817 567
l318 1l-7 -5l20 -26l-388 -286h225q16 0 32 -15t24 -34l5 -7q0 -1 0.5 -1.5l0.5 -0.5q15 21 40 40t46 19h278q16 0 32 -15.5t24 -35.5l5 -5q10 -13 15.5 -27.5t2.5 -26.5l-30 -140q-3 -14 -13.5 -28t-25 -25.5t-30.5 -19t-30 -7.5h-268l-8 3l1 -1q-26 4 -42 27l-15 18l-3 3
l-3 3q-16 -21 -41 -37.5t-46 -16.5h-268l-8 3l1 -1q-25 4 -43 27l-14 18q-13 11 -19.5 25.5t-3.5 30.5l24 111l-237 -174h-309l-20 25h-11l395 291h-221l-8 3v-1q-24 4 -42 27l-15 18q-12 11 -19 25.5t-3 30.5l31 147q2 11 12.5 25t24.5 26t29.5 20.5t28.5 8.5h278
q16 0 32 -15t24 -34l5 -7q11 -13 16 -27.5t3 -26.5l-23 -108zM822 94l-6 -27q8 2 10 7l6 31q-3 -1 -6 -4.5t-4 -6.5zM356 450l-6 -27q9 2 9 7l7 31q-3 -1 -6 -4.5t-4 -6.5zM1247 95l-6 -27q8 1 10 7l7 31q-4 -1 -7 -4.5t-4 -6.5z" />
    <glyph glyph-name="FL0160h" unicode="&#x160;" horiz-adv-x="874" 
d="M468 618h206l111 131h-145l-54 -66l-28 66h-145zM511 130h-435l-28 -130h652q11 0 25 6t24 11q47 23 74.5 66t36.5 88q13 57 -4 100t-66 66q-4 2 -9.5 3.5t-7.5 1.5h-313q-6 0 -9 4.5t-4.5 11t-1.5 12.5q0 7 1 11q1 5 4 13t7 13q3 6 9.5 11t9.5 5h440l28 131h-656
q-8 0 -21 -3t-23 -8q-49 -24 -76.5 -68t-38.5 -92q-5 -23 -5 -48q0 -24 6 -47t19 -41t36 -27q8 -2 20.5 -6l12.5 -4h310q7 0 10.5 -4.5t4.5 -11t0.5 -13t-1.5 -10.5t-4 -11t-7.5 -13.5t-10 -11.5t-9.5 -5zM65 144h449q3 0 8 11t6 16h-294q-8 3 -11.5 4.5t-6 2t-4.5 1l-6 1.5
q-13 5 -23.5 12.5t-18.5 18.5l-7 8q-18 13 -28 32.5t-14.5 42t-4 46t4.5 43.5q11 50 41 97.5t83 73.5v1q11 6 26.5 9.5t25.5 3.5h670l-2 -6l20 -25l-32 -153h-451l-20 25l19 -25q-4 -3 -7 -9q-6 -9 -8 -19h296q2 0 9 -2t12 -4q51 -24 70 -67l4 -5q40 -51 22 -135
q-10 -48 -39 -93.5t-80 -70.5q-11 -6 -26.5 -12t-27.5 -6h-663l-20 25h-6zM574 749l15 -17l6 -17l40 48h179l-5 -6l21 -25l-130 -153h-218l-20 25h-5l-67 159h179z" />
    <glyph glyph-name="FL2039h" unicode="&#x2039;" horiz-adv-x="227" 
d="M129 379l-44 -206l113 -83l31 145l-58 40l75 42l31 145zM69 165l47 222l181 101l-2 -9l20 -25l-37 -171l-51 -28l18 -12l-1 -5l19 -25l-36 -171l-132 97l-15 17z" />
    <glyph glyph-name="FL0152h" unicode="&#x152;" horiz-adv-x="1375" 
d="M668 423l-62 -293h-145l-11 6.5t-17 8.5q-15 11 -21.5 29.5t-2.5 36.5l29 135q2 10 9.5 23t18.5 25t24 20.5t27 8.5h151zM1417 423l28 131h-1151q-21 0 -46.5 -14t-48.5 -34.5t-40.5 -44.5t-21.5 -43l-62 -290q-5 -21 4.5 -43.5t26.5 -41.5t39 -31t42 -12h1140l28 130
h-360q-12 0 -23.5 7.5t-19.5 19t-12.5 25t-1.5 25.5q1 6 2 6h432l28 129h-431q5 23 16 39t35 33q12 9 21 9h376zM1462 568l-2 -6l20 -25l-32 -153h-387q-5 0 -14 -6t-14.5 -11.5l-10.5 -10.5h395l-2 -6l20 -25l-32 -151h-433q-1 -10 3 -20q11 -10 25 -10h374l-2 -6l20 -25
l-32 -152h-1151q-24 0 -49.5 15.5t-45.5 39.5l-3 4q-25 22 -39.5 51t-8.5 57l62 290q4 21 23.5 47.5t45 49t54 38t51.5 15.5h1165zM443 156q8 -3 11.5 -5t14.5 -7h126l51 240h-109q-11 0 -22 -7t-20.5 -17.5t-16 -22t-7.5 -19.5l-29 -135q-3 -15 -1 -24q1 -1 2 -1t1 -1z" />
    <glyph glyph-name="FL017Dh" horiz-adv-x="804" 
d="M434 618h206l111 131h-145l-54 -66l-28 66h-145zM756 0l28 132h-336l398 290l28 132h-708l-28 -132h336l-398 -290l-28 -132h708zM801 146l-1 -6l19 -25l-32 -154h-730l-20 25h-6l32 152l336 245h-253l-19 25h-6l34 160h736l-2 -6l20 -25l-31 -148l-335 -243h258z
M540 749l15 -17l6 -17l40 48h179l-5 -6l21 -25l-130 -153h-218l-20 25h-5l-67 159h179z" />
    <glyph glyph-name="FL017Dh" unicode="&#x17d;" horiz-adv-x="804" 
d="M434 618h206l111 131h-145l-54 -66l-28 66h-145zM756 0l28 132h-336l398 290l28 132h-708l-28 -132h336l-398 -290l-28 -132h708zM801 146l-1 -6l19 -25l-32 -154h-730l-20 25h-6l32 152l336 245h-253l-19 25h-6l34 160h736l-2 -6l20 -25l-31 -148l-335 -243h258z
M540 749l15 -17l6 -17l40 48h179l-5 -6l21 -25l-130 -153h-218l-20 25h-5l-67 159h179z" />
    <glyph glyph-name="FL2018h" unicode="&#x2018;" horiz-adv-x="292" 
d="M312 322l50 231h-117l-94 -70l-35 -161h196zM379 567l-2 -6l20 -25l-54 -253h-218l-20 25h-6l39 180l105 79h136z" />
    <glyph glyph-name="FL0024h" unicode="&#x2019;" horiz-adv-x="292" 
d="M166 554l-49 -231h117l94 70l34 161h-196zM100 309l55 259h224l-2 -6l20 -25l-37 -176l-103 -77h-132l-19 25h-6z" />
    <glyph glyph-name="FL201Ch" unicode="&#x201c;" horiz-adv-x="518" 
d="M538 322l50 231h-117l-94 -70l-35 -161h196zM312 322l50 231h-117l-94 -70l-35 -161h196zM605 567l-2 -6l20 -25l-54 -253h-218l-6 8l-2 -8h-218l-20 25h-6l39 180l105 79h136l-2 -6l20 -25l-6 -28l78 59h136z" />
    <glyph glyph-name="FL201Dh" unicode="&#x201d;" horiz-adv-x="518" 
d="M166 554l-49 -231h117l94 70l34 161h-196zM392 554l-49 -231h117l94 70l34 161h-196zM326 309l6 31l-75 -56h-132l-19 25h-6l55 259h224l-2 -6l2 -2l2 8h224l-2 -6l20 -25l-37 -176l-103 -77h-132l-19 25h-6z" />
    <glyph glyph-name="FL2022h" unicode="&#x2022;" horiz-adv-x="372" 
d="M111 125l9 -11q18 -23 41 -23h140q12 1 28 8.5t30.5 19t25.5 25t14 26.5l35 164q4 21 -13 45l-10 11q-8 18 -25 32.5t-33 14.5h-149q-15 0 -31 -9.5t-29.5 -23t-23 -29t-12.5 -27.5l-30 -141q-5 -23 5 -46t28 -36zM281 130h-139q-11 0 -21.5 7t-17.5 18.5t-10.5 25
t-0.5 26.5l30 141q2 10 10 23.5t19.5 24.5t24.5 19t25 8h149q9 0 19 -6t17.5 -15t12 -19.5t2.5 -20.5l-35 -164q-3 -12 -12.5 -23.5t-22 -21t-26.5 -16t-24 -7.5z" />
    <glyph glyph-name="FL2013h" unicode="&#x2013;" horiz-adv-x="399" 
d="M424 342h-303l-28 -131h303zM110 356h331l-2 -6l20 -25l-32 -153h-325l-20 25h-6z" />
    <glyph glyph-name="FL2014h" unicode="&#x2014;" horiz-adv-x="459" 
d="M484 342h-363l-28 -131h363zM110 356h391l-2 -6l20 -25l-32 -153h-385l-20 25h-6z" />
    <glyph glyph-name="FL02DCh" unicode="&#x2dc;" horiz-adv-x="540" 
d="M332 423h189l104 131h-134l-50 -66l-25 66h-189l-104 -131h133l51 66zM431 556l15 -19l4 -13l35 44h169l-6 -6l21 -25l-121 -153h-202l-20 25h-5l-7 16l-31 -41h-160l-20 25h-9l127 159h206z" />
    <glyph glyph-name="FL2122h" unicode="&#x2122;" horiz-adv-x="383" 
d="M206 572l-31 -143h6l20 -25h44l36 168h23l-31 -143h6l20 -25h38l5 26q1 -1 2 -1q2 0 3 -1l17 -20q3 -4 6.5 -4.5t8.5 -0.5q6 0 9 0.5t5.5 2t4.5 5t6 9.5l2 4l16 -20h38l45 213l-20 25l2 6q-32 0 -54 -22.5t-38 -52.5l-5.5 20.5t-7.5 15.5l-2 2l0.5 -0.5t1.5 -0.5l-12 13
q-7 25 -25 25q-12 0 -22 -7l-1 1l2 6h-152l-11 -51h6l20 -25h19zM290 443l40 187q5 4 12 4t11.5 -8.5t6.5 -21.5t3 -30l2 -33q2 -18 1.5 -31.5t1.5 -23.5q6 11 11.5 23l12.5 26q7 17 16 34.5t18.5 32t20.5 23.5t23 9l-41 -191h-16l30 141l-6 -4l-64 -129q-4 -7 -6 -8t-8 -1
q-4 0 -6.5 1t-3.5 8l-10 130l-3 3l-30 -141h-16zM192 443l36 168h-50l5 23h124l-5 -23h-52l-36 -168h-22z" />
    <glyph glyph-name="FL0161h" unicode="&#x161;" horiz-adv-x="874" 
d="M468 618h206l111 131h-145l-54 -66l-28 66h-145zM511 130h-435l-28 -130h652q11 0 25 6t24 11q47 23 74.5 66t36.5 88q13 57 -4 100t-66 66q-4 2 -9.5 3.5t-7.5 1.5h-313q-6 0 -9 4.5t-4.5 11t-1.5 12.5q0 7 1 11q1 5 4 13t7 13q3 6 9.5 11t9.5 5h440l28 131h-656
q-8 0 -21 -3t-23 -8q-49 -24 -76.5 -68t-38.5 -92q-5 -23 -5 -48q0 -24 6 -47t19 -41t36 -27q8 -2 20.5 -6l12.5 -4h310q7 0 10.5 -4.5t4.5 -11t0.5 -13t-1.5 -10.5t-4 -11t-7.5 -13.5t-10 -11.5t-9.5 -5zM65 144h449q3 0 8 11t6 16h-294q-8 3 -11.5 4.5t-6 2t-4.5 1l-6 1.5
q-13 5 -23.5 12.5t-18.5 18.5l-7 8q-18 13 -28 32.5t-14.5 42t-4 46t4.5 43.5q11 50 41 97.5t83 73.5v1q11 6 26.5 9.5t25.5 3.5h670l-2 -6l20 -25l-32 -153h-451l-20 25l19 -25q-4 -3 -7 -9q-6 -9 -8 -19h296q2 0 9 -2t12 -4q51 -24 70 -67l4 -5q40 -51 22 -135
q-10 -48 -39 -93.5t-80 -70.5q-11 -6 -26.5 -12t-27.5 -6h-663l-20 25h-6zM574 749l15 -17l6 -17l40 48h179l-5 -6l21 -25l-130 -153h-218l-20 25h-5l-67 159h179z" />
    <glyph glyph-name="FL203Ah" unicode="&#x203a;" horiz-adv-x="227" 
d="M273 382l1 5l-137 101l-38 -179l12 -9l13 -17l15 -11l-54 -29l-38 -179l5 3l21 -25l174 97l46 218zM259 379l-44 -206l-149 -83l31 145l74 40l-57 42l31 145z" />
    <glyph glyph-name="FL0153h" unicode="&#x153;" horiz-adv-x="1375" 
d="M668 423l-62 -293h-145l-11 6.5t-17 8.5q-15 11 -21.5 29.5t-2.5 36.5l29 135q2 10 9.5 23t18.5 25t24 20.5t27 8.5h151zM1417 423l28 131h-1151q-21 0 -46.5 -14t-48.5 -34.5t-40.5 -44.5t-21.5 -43l-62 -290q-5 -21 4.5 -43.5t26.5 -41.5t39 -31t42 -12h1140l28 130
h-360q-12 0 -23.5 7.5t-19.5 19t-12.5 25t-1.5 25.5q1 6 2 6h432l28 129h-431q5 23 16 39t35 33q12 9 21 9h376zM1462 568l-2 -6l20 -25l-32 -153h-387q-5 0 -14 -6t-14.5 -11.5l-10.5 -10.5h395l-2 -6l20 -25l-32 -151h-433q-1 -10 3 -20q11 -10 25 -10h374l-2 -6l20 -25
l-32 -152h-1151q-24 0 -49.5 15.5t-45.5 39.5l-3 4q-25 22 -39.5 51t-8.5 57l62 290q4 21 23.5 47.5t45 49t54 38t51.5 15.5h1165zM443 156q8 -3 11.5 -5t14.5 -7h126l51 240h-109q-11 0 -22 -7t-20.5 -17.5t-16 -22t-7.5 -19.5l-29 -135q-3 -15 -1 -24q1 -1 2 -1t1 -1z" />
    <glyph glyph-name="FL017Eh" horiz-adv-x="804" 
d="M434 618h206l111 131h-145l-54 -66l-28 66h-145zM756 0l28 132h-336l398 290l28 132h-708l-28 -132h336l-398 -290l-28 -132h708zM801 146l-1 -6l19 -25l-32 -154h-730l-20 25h-6l32 152l336 245h-253l-19 25h-6l34 160h736l-2 -6l20 -25l-31 -148l-335 -243h258z
M540 749l15 -17l6 -17l40 48h179l-5 -6l21 -25l-130 -153h-218l-20 25h-5l-67 159h179z" />
    <glyph glyph-name="FL017Eh" unicode="&#x17e;" horiz-adv-x="804" 
d="M434 618h206l111 131h-145l-54 -66l-28 66h-145zM756 0l28 132h-336l398 290l28 132h-708l-28 -132h336l-398 -290l-28 -132h708zM801 146l-1 -6l19 -25l-32 -154h-730l-20 25h-6l32 152l336 245h-253l-19 25h-6l34 160h736l-2 -6l20 -25l-31 -148l-335 -243h258z
M540 749l15 -17l6 -17l40 48h179l-5 -6l21 -25l-130 -153h-218l-20 25h-5l-67 159h179z" />
    <glyph glyph-name="FL0178h" unicode="&#x178;" horiz-adv-x="976" 
d="M832 750h-145l-27 -131h145zM605 750h-145l-27 -131h145zM707 276l354 278h-330l-151 -120l-99 120h-330l239 -278l-59 -276h317zM1099 568l-6 -5l20 -26l-374 -294l-60 -282h-339l-20 25h-6l60 283l-255 299h371l94 -115l144 115h371zM449 764h173l-1 -6l20 -25
l-33 -153h-167l-19 25h-6zM676 764h173l-1 -6l20 -25l-33 -153h-167l-19 25h-6z" />
    <glyph glyph-name="FL00A1h" unicode="&#xa1;" horiz-adv-x="412" 
d="M403 393l34 161h-225l-34 -161h225zM48 0h316l53 248l-27 87h-225l-64 -87zM57 -39l-20 25h-6l57 266l71 97h243l3 -11l17 -20l28 -95l-55 -262h-338zM454 568l-2 -6l20 -25l-39 -183h-247l-19 25h-6l40 189h253z" />
    <glyph glyph-name="FL00A2h" unicode="&#xa2;" horiz-adv-x="871" 
d="M436 158q-15 11 -23 23t-4 30l25 118q2 10 9.5 23t18.5 25t24 20.5t27 8.5h49l-56 -263h-43l-10.5 6.5t-16.5 8.5zM479 13l-12 -56h226l12 56h121l27 130h-121l56 263h121l28 131h-121l13 62h-226l-13 -62h-300q-21 0 -46.5 -14t-48.5 -34.5t-40.5 -44.5t-21.5 -43
l-55 -260q-5 -21 4.5 -43.5t26.5 -41.5t39 -31t42 -12h289zM450 -57l6 31h-247q-24 0 -49.5 15.5t-44.5 39.5l-3 4q-25 22 -39.5 51t-8.5 57l55 260q4 21 23.5 47.5t45 49t54 38t51.5 15.5h286l13 62h254l-1 -6l20 -25l-7 -31h96l-1 -6l20 -25l-33 -153h-121l-45 -210h96
l-1 -6l20 -25l-33 -152h-121l-11 -56h-248l-20 25h-6zM447 170l-1 -1q8 -3 11.5 -5t13.5 -7h24l45 210h-7q-11 0 -22 -7t-20 -17.5t-15.5 -22t-8.5 -19.5l-25 -118l-2 -8q4 -4 7 -5z" />
    <glyph glyph-name="FL00A3h" unicode="&#xa3;" horiz-adv-x="876" 
d="M111 357l-34 -159h6l20 -25h124l-1 -2l-3 -14q0 -3 -0.5 -6t-0.5 -6h-157l-34 -159h6l20 -25h802l32 152l-20 25l2 6h-277l1 5q0 3 5 8q4 5 6 9.5l2 4.5h188l33 154l-20 25l2 6h-172q1 5 6 16.5t9 11.5h76l32 153l-20 25l2 6h-279q-38 0 -70.5 -17t-58 -44t-43 -60
t-24.5 -64l-5 -26h-155zM94 212l28 131h157v9q0 5 2 10l4 21q6 29 22 59.5t39.5 55t53.5 40.5t64 16h265l-28 -131h-65q-4 0 -9 -5t-9 -12t-7 -13.5t-4 -9.5q-1 -4 -0.5 -11t2.5 -13.5t6 -11.5t12 -5h169l-28 -132h-177q-2 0 -7.5 -6t-9.5 -11q-6 -5 -7.5 -8t-2.5 -8l-2 -6
q-1 -5 -0.5 -12t2.5 -13.5t6 -11t12 -4.5h274l-28 -130h-780l28 131h160q-1 8 0.5 18.5t3.5 21.5l4 18l3 12q2 8 3 11h-156z" />
    <glyph glyph-name="FL00A4h" unicode="&#xa4;" horiz-adv-x="976" 
d="M533 167h-32q-9 0 -17 5t-13.5 13.5t-7.5 18.5t0 20l22 103q1 7 7.5 17t15 18.5t18.5 14.5t19 6h39q7 0 15 -4.5t14.5 -11t9.5 -14.5t2 -15l-26 -121q-2 -8 -9 -16.5t-17 -15.5t-21 -12t-19 -6zM612 0h330l-121 143q12 20 15 31l44 205q1 6 0 13.5t-3 15.5l184 146h-330
l-94 -75h-94l-62 75h-330l117 -142q-13 -16 -16 -30l-46 -216q-3 -16 1 -28l-173 -138h330l90 72h97zM974 -14h-4l20 -25h-363l-22 25h-2l-40 47h-84l-90 -72h-363l-20 25h-10l195 155q-2 13 1 25l46 216q3 12 11 27l-130 159h371l62 -75h82l94 75h371l-6 -5l20 -26
l-202 -160q4 -14 2 -26l-44 -205q-1 -5 -3.5 -11t-6.5 -13zM496 196q-2 -5 -2 -8v-5q3 -1 5 -1.5t5 -0.5h30q7 1 15.5 4.5t16 9t13 11t6.5 11.5l26 121v4q-6 2 -7 2h-39q-7 0 -15 -5t-14.5 -11.5t-11.5 -14.5t-6 -14z" />
    <glyph glyph-name="FL00A5h" unicode="&#xa5;" horiz-adv-x="976" 
d="M373 294h-118l-20 -97h138l-8 -38h-138l-21 -98h138l-13 -61h317l13 61h137l21 98h-137l8 38h137l20 97h-118l332 260h-330l-151 -120l-99 120h-330zM244 308h96l-221 260h371l94 -115l144 115h371l-6 -5l20 -26l-293 -229h44l-1 -6l20 -25l-25 -119h-16l12 -16l-25 -120
h-137l-13 -61h-339l-20 25h-6l8 36h-107l-20 25h-6l27 126h16l-8 10h-6z" />
    <glyph glyph-name="FL00A6h" unicode="&#xa6;" horiz-adv-x="406" 
d="M517 749h-310l-195 -918h310zM196 763h338l-1 -6l20 -25l-200 -940h-332l-20 25h-6z" />
    <glyph glyph-name="FL00A7h" unicode="&#xa7;" horiz-adv-x="975" 
d="M532 167h-32q-9 0 -17 5t-13.5 13.5t-7.5 18.5t0 20l22 103q1 7 7.5 17t15 18.5t18.5 14.5t19 6h39q7 0 15 -4.5t14.5 -11t9.5 -14.5t2 -15l-26 -121q-2 -8 -9 -16.5t-17 -15.5t-21 -12t-19 -6zM835 173v1l44 205q1 6 0 13.5t-3 15.5l184 146h-330l-94 -75h-193
q-94 0 -137.5 -23t-54.5 -74l-46 -216q-3 -16 1 -28l-173 -138h330l90 72h179q38 0 72.5 8t62 22t45.5 32.5t23 38.5zM25 -39l-20 25h-10l195 155q-2 13 1 25l46 216q6 29 20.5 50t39.5 34.5t61.5 20t87.5 6.5h187l94 75h371l-6 -5l20 -26l-202 -160q4 -14 2 -26l-44 -206
q-5 -23 -24.5 -43t-48.5 -35.5t-66 -24.5t-77 -9h-174l-90 -72h-363zM495 196q-2 -5 -2 -8v-5q3 -1 5 -1.5t5 -0.5h30q7 1 15.5 4.5t16 9t13 11t6.5 11.5l26 121v4q-6 2 -7 2h-39q-7 0 -15 -5t-14.5 -11.5t-11.5 -14.5t-6 -14z" />
    <glyph glyph-name="FL00A8h" unicode="&#xa8;" horiz-adv-x="468" 
d="M538 554h-145l-28 -131h145zM311 554h-145l-28 -131h145zM155 568h173l-2 -6l20 -25l-32 -153h-167l-20 25h-6zM382 568h173l-2 -6l20 -25l-32 -153h-167l-20 25h-6z" />
    <glyph glyph-name="copyright" unicode="&#xa9;" horiz-adv-x="296" 
d="M309 530l-15 5q-12 -25 -39 -25q-33 0 -24 40q9 42 44 42q19 0 25 -20l16 3q-3 32 -38 32q-25 0 -42 -14.5t-23 -42.5q-6 -27 5 -42t35 -15q37 0 56 37zM283 634q20 0 37 -11q19 -11 26 -31t2 -42q-5 -20 -20 -40q-18 -22 -37 -31q-24 -11 -44 -11q-4 0 -34 9l-5 2
q-16 13 -24 31q-6 21 -2 40q4 22 20 42q16 21 38 31.5t43 10.5zM286 650q-25 0 -52 -13q-14 -7 -25 -16.5t-20 -20.5q-9 -13 -15 -24.5t-9 -25.5q-6 -26 2 -49q6 -13 13 -21t17 -16q22 -13 47 -13q1 0 13.5 2t38.5 11q14 8 25 16t19 21q21 27 25 49q5 25 -3 50q-6 23 -31 37
q-19 13 -45 13zM289 664q30 0 53 -15l-1 -1q20 -13 32 -34l11 -14q9 -12 11 -23l-1 1q10 -28 4 -56q-6 -27 -27 -54q-10 -14 -22 -23t-28 -19q-27 -10 -41.5 -12t-15.5 -2q-29 0 -54 15q-5 4 -8.5 8t-8.5 9l-5 5l-1 2q-11 10 -18.5 19t-14.5 23q-11 25 -3 57q3 16 10 29
t18 29q11 13 23 23.5t29 18.5q30 14 58 14zM286 552q-17 -5 -21 -27q10 4 21 27zM331 587l-6 2q2 -3 1 -4l9 -8q-2 2 -2 5t-2 5zM295 553q-6 0 -8 -1l12 -3l-3 4h-1zM346 575q0 1 -1 1zM381 602l-2 2zM326 533v-1l1 1h-1z" />
    <glyph glyph-name="FL00AAh" unicode="&#xaa;" horiz-adv-x="501" 
d="M359 572h27q9 0 14 -11.5t4 -22.5h-81q3 10 14 22t22 12zM369 365h162l44 208q2 10 -2 22t-11.5 22.5t-18 17.5t-20.5 7h-273q-11 0 -24 -7t-24.5 -17.5t-20.5 -22.5t-11 -22l-44 -208h160l21 101h83zM134 326l-19 25h-6l47 222q3 12 13.5 26.5t24.5 27t30 21t29 8.5h273
q17 0 34 -15.5t25 -35.5l1 -2l1 -1l3 -3q11 -13 15.5 -27.5t2.5 -26.5l-47 -219h-184l-19 25h-6l16 76h-30l-22 -101h-182zM587 602l-1 1q1 0 1 -1z" />
    <glyph glyph-name="FL00ABh" unicode="&#xab;" horiz-adv-x="388" 
d="M129 379l-44 -206l113 -83l31 145l-58 40l75 42l31 145zM290 379l-44 -206l113 -83l31 145l-58 40l75 42l31 145zM69 165l47 222l181 101l-2 -9l20 -25l-12 -53l155 87l-2 -9l20 -25l-37 -171l-51 -28l18 -12l-1 -5l19 -25l-36 -171l-132 97l-7 8l-22 -105l-132 97
l-15 17zM245 243l-1 -5l1 -2l7 32l-25 -13z" />
    <glyph glyph-name="FL00ACh" unicode="&#xac;" horiz-adv-x="460" 
d="M485 342h-364l-28 -131h233l-25 -117h131zM110 356h392l-2 -6l20 -25l-57 -270h-153l-20 25h-6l20 92h-202l-20 25h-6z" />
    <glyph glyph-name="FL00ADh" unicode="&#xad;" horiz-adv-x="353" 
d="M378 342h-257l-28 -131h257zM110 356h285l-2 -6l20 -25l-32 -153h-279l-20 25h-6z" />
    <glyph glyph-name="registered" unicode="&#xae;" horiz-adv-x="296" 
d="M260 557h-20l7 33h19q17 0 18 -1q9 -4 7 -15q-2 -8 -8.5 -12.5t-22.5 -4.5zM234 605l-23 -107h17l9 45h10q9 0 13 -4q6 -3 13 -25l6 -16h22l-10 21q-5 11 -8 17t-11 10q14 1 24.5 9.5t12.5 19.5t-2 17q-3 5 -10 9t-27 4h-36zM283 636q19 0 38 -11t25.5 -31t1.5 -42
l-5 -10.5l-14 -30.5q-18 -19 -38 -30q-22 -11 -43 -11q-4 0 -34 9l-6 2q-19 14 -23 30q-2 20 -2.5 30.5l-0.5 10.5q7 24 20 42q16 21 38 31.5t43 10.5zM287 652q-25 0 -52 -13q-26 -13 -46 -37q-9 -13 -15 -24.5t-9 -25.5q-5 -29 3 -49q12 -24 29 -37q19 -13 47 -13
q1 0 15 1.5t37 11.5q30 14 45 37q19 25 24 49q6 27 -3 50q-6 24 -30 37q-19 13 -45 13zM290 666q29 0 52 -15l-1 -1q22 -14 32 -34l11 -14q9 -12 11 -23l-1 1q10 -28 4 -56q-4 -26 -26 -54q-20 -27 -51 -42q-24 -11 -40 -12.5t-17 -1.5q-31 0 -53 15q-8 5 -17 17l-6 6l-1 2
q-19 15 -33 41q-9 25 -3 57q4 16 10.5 29t18.5 29q11 13 23 23.5t29 18.5q28 14 58 14zM331 589q-2 2 -4.5 2.5t-4.5 1.5q1 -1 1 -2l12 -14q-2 3 -2 6t-2 6zM266 486l-1 3l-1 -4q1 0 2 1zM347 577q0 1 -1 1z" />
    <glyph glyph-name="FL00AFh" unicode="&#xaf;" horiz-adv-x="490" 
d="M560 555h-394l-28 -131h394zM155 569h422l-1 -6l19 -25l-32 -153h-416l-20 25h-6z" />
    <glyph glyph-name="FL00B0h" unicode="&#xb0;" horiz-adv-x="241" 
d="M328 568h-173l-34 -159h6l20 -25h167l32 153l-20 25zM251 507h-44l-9 -40h44zM166 554h145l-28 -131h-145z" />
    <glyph glyph-name="FL00B1h" unicode="&#xb1;" horiz-adv-x="460" 
d="M412 0l28 131h-363l-28 -131h363zM388 439l25 115h-131l-25 -115h-116l-28 -131h116l-24 -117h131l24 117h116l28 131h-116zM430 568l-2 -6l20 -25l-18 -84h91l-1 -6l20 -25l-33 -153h-116l-25 -117h-153l-19 25h-6l19 92h-85l-20 25h-6l34 159h116l25 115h159zM457 145
l-1 -6l19 -25l-32 -153h-385l-20 25h-6l34 159h391z" />
    <glyph glyph-name="FL00B2h" unicode="&#xb2;" horiz-adv-x="485" 
d="M159 558l19 -25h7q-44 -32 -54 -82l-21 -100h6l19 -25h410l20 91l-20 25l1 6h-7q20 14 32 36.5t17 42.5q9 43 -13 74q-2 1 -2 2t-2 2l-6 8q-5 16 -22 31q-2 2 -4 3.5t-6 3.5l-1 -1l-10.5 4t-8.5 2h-340l-20 -98h6zM307 451l-4 -17h226l-14 -69h-388l18 86q6 29 24 51
t48 33l-1 -1q4 4 11 4h153q5 0 8 6.5t4 9.5v12l-3 6h-219l14 70h326q4 0 10.5 -2t9.5 -5l-1 1q21 -13 26 -35t0 -46q-5 -23 -21.5 -48t-42.5 -34q-5 -2 -7 -2.5t-12 -2.5h-154q-5 0 -7.5 -6.5t-3.5 -10.5z" />
    <glyph glyph-name="FL00B3h" unicode="&#xb3;" horiz-adv-x="484" 
d="M147 468h216l1 -2.5t1 -4.5q3 -2 3 -7l-1 -3q-1 -4 -5 -10.5t-10 -6.5h-212l-14 -69h321q16 0 30.5 9t26 22t18.5 28t10 27l2 9q2 8 2 12t-2 10q-2 3 -3.5 11.5t-1.5 9.5l11 16q6 8 9 16.5t5 19.5q3 15 1 30t-8.5 28t-18.5 21t-29 8h-315l-14 -70h216q2 0 3 -7.5t0 -9.5
q-1 -3 -5 -10t-10 -7h-212zM134 326l-19 25h-6l20 97h12l-4 6h-6l20 98h12l-4 6h-6l20 98h329q23 0 38 -12.5t23 -31.5l9 -10q12 -15 16 -35t-1 -40q-3 -13 -5.5 -22t-10.5 -19l-9 -13q2 -2 2.5 -6t2.5 -6q1 -9 1.5 -14t-1.5 -15l-2 -9q-3 -14 -11.5 -30.5t-21.5 -31.5
t-30 -25t-36 -10h-332z" />
    <glyph glyph-name="FL00B4h" unicode="&#xb4;" horiz-adv-x="321" 
d="M418 568h-175l-135 -159h9l20 -25h171l125 153l-21 25zM248 554h142l-108 -131h-145z" />
    <glyph glyph-name="mu" unicode="&#xb5;" horiz-adv-x="1078" 
d="M492 307q-2 -11 -5.5 -19t-11.5 -18q-23 -12 -32 -12q-18 0 -12 31l2 9q22 40 42 40q12 0 18 -16q0 -12 -1 -15zM753 347l6 -43h-36zM287 244l33 123l-21 -3l-38 -130zM408 340l9 32q-86 -15 -100 -74l-1 -8q-2 -8 0 -9q-2 -57 32 -57q6 0 10 2t15 4l3 22q-5 -4 -23 -4
q-24 0 -19 26q6 28 28 52q21 18 35 18q6 0 6 -1l1.5 -0.5t3.5 -2.5zM518 326q0 41 -38 41h-12q-49 -28 -67 -113q5 -20 35 -20q4 0 8.5 0.5t11.5 1.5q33 0 62 90zM602 236l27 126l-17 5l-23 -86l-50 81l-27 -128l21 4l12 60q32 -62 57 -62zM654 248l33 126l-23 -7l-39 -127z
M752 246l14 -4l20 94q-3 41 -23 41q-14 0 -17 -4q-51 -62 -75 -127h25q22 30 35 30q16 0 21 -30zM873 241l27 126l-18 7l-23 -90l-47 83l-27 -127l20 2l14 62q27 -63 54 -63zM899 214l23 20l-17 8l-16 -13zM928 274l32 93l-27 7l-23 -98zM1073 330l3 -14l-85 -8
q41 -68 36 -86l-1 -1t-3 -7l-82 15l-28 -102l-77 31l-84 -88l-50 44l-145 -72l12 28l-14 28l-169 -33l29 49l-178 8l60 40l-148 40l81 36l-98 64l84 6l-31 65l2 30l82 -8l34 102q32 -31 56 -31q10 0 18 4l88 84l42 -43l131 64l12 -5l-4 -44l176 28l-24 -50h175l-61 -43
l142 -37l5 -15h-8l-70 -20zM1097 324l2 2q5 20 -74 56q50 6 57 40l2 9l-124 39q26 3 35 41l-11 15h-154l16 44l-46 5l-136 -29l-2 8l8 21l-20 24l-130 -65l-51 41q-20 -8 -41.5 -27.5t-54.5 -57.5l-66 28h-4q-30 0 -52 -102l-75 8l-13 -42l26 -52l-74 -14l-1 -35l65 -37
l-49 -36q-6 -28 14 -28l101 -22l-26 -25l-5 -26l164 -16l-14 -35l17 -14l168 28l-9 -42l18 -8l139 71l31 -43l35 8l79 77l7 -3q16 -11 27.5 -17.5t27.5 -6.5q18 0 28 16l25 86l62 -16q21 9 25 31l2 6q-2 -2 0 9l-26 56h57zM1118 325l6 -7q10 -13 7 -25l-6 -5l-21 -33h-33
l7 -8q3 -4 1 -34l-14 17q-1 -2 -1.5 -4t-1.5 -4l17 -21l-2 -6q-6 -29 -38 -43l-53 14l-22 -75q-15 -24 -41 -24q-17 0 -29 6.5t-30 17.5l-75 -73l-44 -10l-21 25h-3l-10 14l-132 -67l-29 13l-19 22l-7 4l1 4l-127 -21l-25 21l-14 18l-11 9l2 6l-127 13l-20 24l-6 1l8 37
l-43 10q-12 0 -17 8l-16 18q-19 7 -12 46l28 20l-21 13l-16 20l-9 6l2 55l66 12l-19 39l18 61l75 -8q26 101 65 101h6l60 -25q32 35 55 54t47 30l49 -41l133 67l30 -37l-2 -4l8 -10l109 23l64 -6l-2 -5l20 -26l-5 -12h115l17 -23l-1 -3l4 -5l16 -21q-3 -12 -7 -22l78 -24
l-1 -5l20 -25l-4 -18q-5 -22 -23 -36q8 -7 12.5 -13.5t6.5 -11.5zM707 393l-3 -7l18 -22l7 9l7 9l1 -1q7 10 29 10q19 0 30 -26l1 -1l10 44l12 -23l11 -13l26 -47l18 68l42 -17l-1 -6l2 -3l6 25l36 -10l-1 1l-13 10l44 13l-80 21l-19 23l-10 3l17 12h-94l-20 25h-7l7 15
l-128 -20l-20 26l-6 -1l2 11l-106 -51l-40 41l-81 -78q-12 -6 -25 -6q-23 0 -50 21l-23 -69l32 4l-2 -6l15 -17q31 19 85 29l-3 -7l12 -16q5 5 10 8t11 7h17q30 0 42 -19l8 38l17 -28l6 -8l28 -47l19 69l42 -13l-1 -6l4 -6l5 16zM571 98l12 -16l4 -10l120 59l46 -41l81 85
l70 -29l8 31l-14 19l-3 -2l-6 8q-17 1 -32 22l-8 9q-2 1 -3 2t-3 2l-7 -33l-39 -4l-1 -1l-2 1l-30 8l-19 23l-3 1q-9 -9 -19 -25h-45l-2 1l-45 -12l-4 5l-5 -4q-19 0 -40 26l-5 7q-4 2 -6 5l-7 -34l-44 -9l-15 18q-13 -13 -29 -13q-2 0 -3 -0.5t-2 -0.5q-4 -1 -16 -1
q-26 0 -38 14l-9 11l-3 -27l-10 -2.5t-12 -3.5q-3 -1 -6 -1.5t-10 -0.5q-17 0 -29 13l-14 16q-2 1 -4 3l-2 -8l-52 -20l-9 11l-17 -7l92 -24l-6 -4l21 -26l-12 -8l104 -4l-4 -6l20 -25l-2 -4l110 21zM256 270l-43 -3l36 -23l34 112l-64 7v-15zM1009 231q-4 11 -11 27.5
t-20 38.5l-19 -57zM992 352l4 -4l-10 -27l47 4zM392 274q2 6 3.5 12t3.5 11q-1 -1 -3.5 -2.5t-4.5 -3.5h1q-5 -5 -9 -10.5l-8 -10.5q7 4 18 13z" />
    <glyph glyph-name="FL0041h" unicode="&#xb6;" horiz-adv-x="1006" 
d="M714 343h-593l-73 -343h315l44 207h279l-44 -207h316l89 421q4 19 -3.5 42t-22 43.5t-34 34t-39.5 13.5h-654q-21 0 -46 -13t-48.5 -33t-40.5 -43t-21 -42h532q12 0 21.5 -8.5t15 -20.5t7.5 -26t0 -25zM31 -14l79 371h589q-1 6 -2 13t-4 13q0 1 -3 1h-543l-20 25h-6
q5 24 24.5 51.5t45.5 51.5t54.5 40t51.5 16h654q27 0 53 -22.5t43 -52.5l1 -2q19 -23 28.5 -49.5t4.5 -48.5l-92 -432h-338l-20 25h-6l39 182h-226l-44 -207h-337l-20 25h-6z" />
    <glyph glyph-name="FL00B7h" unicode="&#xb7;" horiz-adv-x="322" 
d="M138 423l-34 -161h226l34 161h-226zM87 248l40 189h254l-1 -6l19 -25l-39 -183h-248l-19 25h-6z" />
    <glyph glyph-name="FL0C08h" unicode="&#xb8;" horiz-adv-x="231" 
d="M183 0h-131l-11 -52h-104l-23 -107h235zM41 14h159l-1 -6l19 -25l-38 -181h-257l-20 25h-6l29 135h104z" />
    <glyph glyph-name="FL00BDh" unicode="&#xb9;" horiz-adv-x="327" 
d="M415 642h-231l-14 -70h71l-44 -207h160zM173 656h259l-1 -6l20 -25l-64 -299h-182l-19 25h-6l38 182h-40l-19 25h-6z" />
    <glyph glyph-name="FL00BBh" unicode="&#xba;" horiz-adv-x="502" 
d="M354 458h-13q-8 0 -14 8t-4 16l10 45q2 7 10 15t16 8h18q6 0 13 -6t5 -13l-11 -52q-2 -8 -11.5 -14t-18.5 -7zM187 367q2 -1 5 -1.5l3 -0.5h266q12 0 26 6.5t26 16t21 22t12 24.5l30 140q2 10 -2 21.5t-11.5 22t-17 17.5t-19.5 7h-278q-11 0 -23.5 -7t-24 -17t-20 -21.5
t-10.5 -20.5l-31 -147q-2 -11 1.5 -21t11 -18.5t17 -14.5t18.5 -8zM162 355l-14 17q-13 11 -19.5 26t-3.5 31l31 147q3 11 13 25t24 26t29.5 20.5t28.5 8.5h278q16 0 32 -15t24 -34l6 -7q10 -13 15 -27.5t3 -26.5l-30 -140q-3 -14 -13.5 -28t-25 -25.5t-30.5 -19t-30 -7.5
h-268l-8 3l1 -1q-25 4 -43 27zM366 499l-6 -27q8 1 10 7l6 31q-3 -1 -6 -4.5t-4 -6.5z" />
    <glyph glyph-name="FL00BCh" unicode="&#xbb;" horiz-adv-x="388" 
d="M280 291l6 -8l15 -11l-28 -15zM435 382l1 5l-137 101l-23 -108l-2 2l1 5l-137 101l-38 -179l12 -9l13 -17l15 -11l-54 -29l-38 -179l5 3l21 -25l147 82l-12 -60l5 3l21 -25l174 97l46 218zM421 379l-44 -206l-149 -83l31 145l74 40l-57 42l31 145zM260 379l-44 -206
l-149 -83l31 145l74 40l-57 42l31 145z" />
    <glyph glyph-name="FL00C7h" unicode="&#xbc;" horiz-adv-x="1087" 
d="M845 238h-160l-38 -176h243l-21 -101h162l59 277h-162l-22 -102h-83zM490 593h-231l-15 -70h71l-44 -207h160zM1075 554h-274l-753 -554h276zM248 607h259l-1 -6l19 -25l-52 -248l326 240h316l-7 -5l20 -26l-386 -285h120l-2 -6l20 -25l-15 -71h30l22 102h190l-2 -6
l20 -25l-64 -299h-184l-19 25h-6l16 76h-212l-20 25h-6l31 143l-313 -230h-309l-20 25h-11l395 291h-123l-20 25h-6l39 182h-40l-20 25h-6z" />
    <glyph glyph-name="FL00BEh" unicode="&#xbd;" horiz-adv-x="1071" 
d="M1115 568h-316l-326 -240l52 248l-19 25l1 6h-259l-21 -98h6l20 -25h40l-39 -182h6l20 -25h123l-395 -291h11l20 -25h309l313 230l-8 -38h6l19 -25h7q-44 -32 -54 -82l-21 -100h6l19 -25h410l20 91l-20 25l1 6h-8q20 14 32.5 36.5t17.5 42.5q9 43 -13 74q-2 1 -2 2t-2 2
l-6 8q-5 16 -22 31q-2 2 -4 3.5t-6 3.5l-1 -1l-10.5 4t-8.5 2h-273l388 286l-20 26zM807 46l-4 -17h226l-15 -69h-388l19 86q6 29 23.5 51t48.5 33l-2 -1q5 4 12 4h153q5 0 8 6.5t4 9.5v12l-3 4.5l-1 1.5h-219l15 70h326q4 0 10.5 -2t9.5 -5l-1 1q20 -13 25.5 -35t0.5 -46
q-5 -23 -21.5 -48t-43.5 -34q-4 -2 -6 -2.5t-12 -2.5h-154q-5 0 -7.5 -6.5t-3.5 -10.5zM801 554h274l-751 -554h-276zM259 593h231l-59 -277h-160l44 207h-71z" />
    <glyph glyph-name="FL0B36h" unicode="&#xbe;" horiz-adv-x="1100" 
d="M137 418h216l0.5 -2.5t0.5 -4.5q4 -3 3 -7l-1 -3q-1 -4 -4.5 -10.5t-9.5 -6.5h-212l-15 -69h321q16 0 30.5 9t26 22t18.5 28t10 27l2 9q2 8 2 12t-1 10q-2 3 -4 11.5t-2 9.5l12 16q5 8 8 16.5t5 19.5q3 15 1.5 30t-8.5 28t-18.5 21t-28.5 8h-315l-15 -70h216q2 0 3 -7.5
t0 -9.5q-1 -3 -4.5 -10t-9.5 -7h-212zM858 238h-160l-38 -176h243l-21 -101h162l59 277h-162l-22 -102h-83zM1088 554h-274l-753 -554h276zM812 568h316l-7 -5l20 -26l-386 -285h120l-2 -6l20 -25l-15 -71h30l22 102h190l-2 -6l20 -25l-64 -299h-184l-19 25h-6l16 76h-212
l-20 25h-6l31 143l-313 -230h-309l-20 25h-11l395 290h-292l-20 25h-6l21 97h12l-5 6h-6l21 98h12l-5 6h-6l21 98h329q23 0 38 -12.5t22 -31.5l9 -10q12 -15 16 -35t-1 -40q-2 -13 -5 -22t-10 -19l-10 -13q2 -2 2 -6t2 -6h1q2 -9 2 -14t-2 -15v-3z" />
    <glyph glyph-name="FL00BFh" unicode="&#xbf;" horiz-adv-x="874" 
d="M812 393l34 161h-226l-34 -161h226zM801 344h-555l-13.5 -4t-23.5 -6q-26 -9 -47 -27t-37 -41t-26 -48t-15 -47q-10 -47 -1 -91.5t48 -68.5q8 -5 19.5 -8t19.5 -3h656l28 131h-440q-3 0 -7 5t-6 11q-1 5 -1 13t2 13q1 4 3.5 10.5t6.5 13t9 11t11 4.5h219q60 0 98 32.5
t50 89.5zM863 568l-2 -6l20 -25l-39 -183h-25v-2l20 -25l-5 -21q-14 -63 -54.5 -98t-106.5 -35h-219q-5 0 -10 -11t-7 -17h436l-1 -6l19 -25l-32 -153h-667q-9 0 -22.5 3.5t-22.5 9.5l1 -1q-8 5 -15.5 11t-12.5 14l-9 10q-34 28 -41.5 71.5t2.5 91.5q5 24 16.5 51t29.5 52
t42.5 45t54.5 30q6 2 8.5 2.5t5.5 1.5q2 1 6 2l12 3h346l-16 21h-6l40 189h254z" />
    <glyph glyph-name="FL00C0h" unicode="&#xc0;" 
d="M630 750h-142l53 -131h145zM614 343h-177q2 10 10 24t19 26.5t24.5 21t26.5 8.5h53q12 0 21.5 -8.5t15 -20.5t7.5 -26t0 -25zM542 0h316l89 421q4 19 -3.5 42t-22 43.5t-34 34t-39.5 13.5h-554q-21 0 -46 -13.5t-48.5 -33.5t-41 -43.5t-21.5 -42.5l-89 -421h315l44 207
h179zM57 -39l-20 25h-6l92 435q5 21 24 47t45 48t54 37t51 15h554q27 0 53 -22.5t43 -52.5l1 -2q19 -23 28.5 -49.5t4.5 -48.5l-92 -432h-338l-20 25h-6l39 182h-126l-44 -207h-337zM466 764h175l5 -14l15 -17l64 -153h-171l-19 25h-5zM537 384q-11 0 -23.5 -8t-21.5 -19
h107q-1 6 -2 13t-4 13q0 1 -3 1h-53z" />
    <glyph glyph-name="FL00C1h" unicode="&#xc1;" 
d="M736 750h-142l-110 -131h145zM614 343h-177q2 10 10 24t19 26.5t24.5 21t26.5 8.5h53q12 0 21.5 -8.5t15 -20.5t7.5 -26t0 -25zM542 0h316l89 421q4 19 -3.5 42t-22 43.5t-34 34t-39.5 13.5h-554q-21 0 -46 -13.5t-48.5 -33.5t-41 -43.5t-21.5 -42.5l-89 -421h315l44 207
h179zM57 -39l-20 25h-6l92 435q5 21 24 47t45 48t54 37t51 15h554q27 0 53 -22.5t43 -52.5l1 -2q19 -23 28.5 -49.5t4.5 -48.5l-92 -432h-338l-20 25h-6l39 182h-126l-44 -207h-337zM589 764h175l-5 -6l21 -25l-126 -153h-171l-19 25h-9zM537 384q-11 0 -23.5 -8t-21.5 -19
h107q-1 6 -2 13t-4 13q0 1 -3 1h-53z" />
    <glyph glyph-name="FL00C2h" unicode="&#xc2;" 
d="M715 750h-206l-110 -131h145l54 66l28 -66h145zM614 343h-177q2 10 10 24t19 26.5t24.5 21t26.5 8.5h53q12 0 21.5 -8.5t15 -20.5t7.5 -26t0 -25zM542 0h316l89 421q4 19 -3.5 42t-22 43.5t-34 34t-39.5 13.5h-554q-21 0 -46 -13.5t-48.5 -33.5t-41 -43.5t-21.5 -42.5
l-89 -421h315l44 207h179zM57 -39l-20 25h-6l92 435q5 21 24 47t45 48t54 37t51 15h554q27 0 53 -22.5t43 -52.5l1 -2q19 -23 28.5 -49.5t4.5 -48.5l-92 -432h-338l-20 25h-6l39 182h-126l-44 -207h-337zM504 764h222l5 -14l15 -17l64 -153h-171l-19 25h-5l-9 20l-37 -45
h-171l-19 25h-9zM537 384q-11 0 -23.5 -8t-21.5 -19h107q-1 6 -2 13t-4 13q0 1 -3 1h-53z" />
    <glyph glyph-name="FL00C3h" unicode="&#xc3;" 
d="M614 343h-177q2 10 10 24t19 26.5t24.5 21t26.5 8.5h53q12 0 21.5 -8.5t15 -20.5t7.5 -26t0 -25zM558 619h189l103 131h-134l-50 -66l-25 66h-189l-103 -131h133l51 66zM542 0h316l89 421q4 19 -3.5 42t-22 43.5t-34 34t-39.5 13.5h-554q-21 0 -46 -13.5t-48.5 -33.5
t-41 -43.5t-21.5 -42.5l-89 -421h315l44 207h179zM57 -39l-20 25h-6l92 435q5 21 24 47t45 48t54 37t51 15h554q27 0 53 -22.5t43 -52.5l1 -2q19 -23 28.5 -49.5t4.5 -48.5l-92 -432h-338l-20 25h-6l39 182h-126l-44 -207h-337zM657 752l15 -19l4 -13l34 44h169l-5 -6
l21 -25l-122 -153h-202l-19 25h-5l-7 16l-32 -41h-160l-19 25h-9l126 159h206zM537 384q-11 0 -23.5 -8t-21.5 -19h107q-1 6 -2 13t-4 13q0 1 -3 1h-53z" />
    <glyph glyph-name="FL00C4h" unicode="&#xc4;" 
d="M798 750h-145l-27 -131h145zM571 750h-145l-27 -131h145zM614 343h-177q2 10 10 24t19 26.5t24.5 21t26.5 8.5h53q12 0 21.5 -8.5t15 -20.5t7.5 -26t0 -25zM542 0h316l89 421q4 19 -3.5 42t-22 43.5t-34 34t-39.5 13.5h-554q-21 0 -46 -13.5t-48.5 -33.5t-41 -43.5
t-21.5 -42.5l-89 -421h315l44 207h179zM57 -39l-20 25h-6l92 435q5 21 24 47t45 48t54 37t51 15h554q27 0 53 -22.5t43 -52.5l1 -2q19 -23 28.5 -49.5t4.5 -48.5l-92 -432h-338l-20 25h-6l39 182h-126l-44 -207h-337zM642 764h173l-1 -6l20 -25l-33 -153h-167l-19 25h-6z
M415 764h173l-1 -6l20 -25l-33 -153h-167l-19 25h-6zM537 384q-11 0 -23.5 -8t-21.5 -19h107q-1 6 -2 13t-4 13q0 1 -3 1h-53z" />
    <glyph glyph-name="FL00C5h" unicode="&#xc5;" 
d="M537 384h53q3 0 3 -1q3 -6 4 -13t2 -13h-107q9 11 21.5 19t23.5 8zM702 763h-173l-34 -159h6l20 -25h167l33 153l-20 25zM37 -14l20 -25h337l44 207h126l-39 -182h6l20 -25h338l92 432q5 22 -4.5 48.5t-28.5 49.5l-1 2q-17 30 -43 52.5t-53 22.5h-554q-23 0 -51 -15
t-54 -37t-45 -48t-24 -47l-92 -435h6zM625 702h-44l-8 -40h44zM858 0h-316l44 207h-179l-44 -207h-315l89 421q4 19 21.5 42.5t41 43.5t48.5 33.5t46 13.5h554q20 0 39.5 -13.5t34 -34t22 -43.5t3.5 -42zM437 343h177q2 11 0 25t-7.5 26t-15 20.5t-21.5 8.5h-53
q-13 0 -26.5 -8.5t-24.5 -21t-19 -26.5t-10 -24zM540 749h145l-28 -131h-145z" />
    <glyph glyph-name="FL00C6h" unicode="&#xc6;" horiz-adv-x="1382" 
d="M614 343h-177q2 10 10 24t19 26.5t24.5 21t26.5 8.5h53q12 0 21.5 -8.5t15 -20.5t7.5 -26t0 -25zM1424 423l28 131h-1158q-21 0 -46 -13.5t-48.5 -33.5t-41 -43.5t-21.5 -42.5l-89 -421h315l44 207h179l-44 -207h792l28 130h-360q-12 0 -23.5 7.5t-19.5 19t-12.5 25
t-1.5 25.5q1 6 2 6h432l28 129h-431q5 23 16 39t35 33q12 9 21 9h376zM1469 568l-2 -6l20 -25l-32 -153h-387q-5 0 -14 -6t-14.5 -11.5l-10.5 -10.5h395l-2 -6l20 -25l-32 -151h-433q-1 -10 3 -20q11 -10 25 -10h374l-2 -6l20 -25l-32 -152h-814l-20 25h-6l39 182h-126
l-44 -207h-337l-20 25h-6l92 435q5 21 24 47t45 48t54 37t51 15h1172zM537 384q-11 0 -23.5 -8t-21.5 -19h107q-1 6 -2 13t-4 13q0 1 -3 1h-53z" />
    <glyph glyph-name="FL0C07h" unicode="&#xc7;" horiz-adv-x="845" 
d="M887 423l28 131h-621q-21 0 -46.5 -14t-48.5 -34.5t-40.5 -44.5t-21.5 -43l-62 -290q-5 -21 4.5 -43.5t26.5 -41.5t39 -31t42 -12h249l-11 -52h-104l-23 -107h235l34 159h230l28 130h-364l-11 6.5t-17 8.5q-15 11 -21.5 29.5t-2.5 36.5l29 135q2 10 9.5 23t18.5 25
t24 20.5t27 8.5h370zM932 568l-2 -6l20 -25l-32 -153h-381q-11 0 -22 -7t-20.5 -17.5t-16 -22t-7.5 -19.5l-29 -135q-3 -15 -1 -24q1 -1 2 -1t1 -1l-1 -1q8 -3 11.5 -5t14.5 -7h373l-2 -6l20 -25l-32 -152h-230l-34 -159h-257l-20 25h-6l29 134h-103q-24 0 -49.5 15.5
t-45.5 39.5l-3 4q-25 22 -39.5 51t-8.5 57l62 290q4 21 23.5 47.5t45 49t54 38t51.5 15.5h635zM450 138q1 -1 2 -1.5t2 -1.5z" />
    <glyph glyph-name="FL00C8h" unicode="&#xc8;" horiz-adv-x="845" 
d="M612 750h-142l53 -131h145zM887 423l28 131h-606q-23 0 -50.5 -12.5t-53 -31.5t-44.5 -42.5t-23 -45.5l-63 -294q-5 -21 4.5 -43.5t27 -41.5t40 -31t44.5 -12h606l28 130h-360q-12 0 -23.5 7.5t-19.5 19t-12.5 25t-1.5 25.5q1 6 2 6h432l28 129h-431q5 23 16 39t35 33
q12 9 21 9h376zM932 568l-2 -6l20 -25l-32 -153h-387q-5 0 -14 -6t-14.5 -11.5l-10.5 -10.5h395l-2 -6l20 -25l-32 -151h-433q-1 -10 3 -20q11 -10 25 -10h374l-2 -6l20 -25l-32 -152h-617q-26 0 -52.5 15.5t-46.5 39.5l-3 3q-25 22 -39.5 51.5t-8.5 57.5l63 294
q5 24 25.5 50t48.5 47.5t58.5 35t55.5 13.5h620zM448 764h175l5 -14l15 -17l64 -153h-171l-19 25h-5z" />
    <glyph glyph-name="FL00C9h" unicode="&#xc9;" horiz-adv-x="845" 
d="M749 750h-142l-110 -131h145zM887 423l28 131h-606q-23 0 -50.5 -12.5t-53 -31.5t-44.5 -42.5t-23 -45.5l-63 -294q-5 -21 4.5 -43.5t27 -41.5t40 -31t44.5 -12h606l28 130h-360q-12 0 -23.5 7.5t-19.5 19t-12.5 25t-1.5 25.5q1 6 2 6h432l28 129h-431q5 23 16 39t35 33
q12 9 21 9h376zM932 568l-2 -6l20 -25l-32 -153h-387q-5 0 -14 -6t-14.5 -11.5l-10.5 -10.5h395l-2 -6l20 -25l-32 -151h-433q-1 -10 3 -20q11 -10 25 -10h374l-2 -6l20 -25l-32 -152h-617q-26 0 -52.5 15.5t-46.5 39.5l-3 3q-25 22 -39.5 51.5t-8.5 57.5l63 294
q5 24 25.5 50t48.5 47.5t58.5 35t55.5 13.5h620zM602 764h175l-5 -6l21 -25l-126 -153h-171l-19 25h-9z" />
    <glyph glyph-name="FL00CAh" unicode="&#xca;" horiz-adv-x="845" 
d="M701 749h-206l-111 -131h145l54 66l28 -66h145zM887 423l28 131h-606q-23 0 -50.5 -12.5t-53 -31.5t-44.5 -42.5t-23 -45.5l-63 -294q-5 -21 4.5 -43.5t27 -41.5t40 -31t44.5 -12h606l28 130h-360q-12 0 -23.5 7.5t-19.5 19t-12.5 25t-1.5 25.5q1 6 2 6h432l28 129h-431
q5 23 16 39t35 33q12 9 21 9h376zM932 568l-2 -6l20 -25l-32 -153h-387q-5 0 -14 -6t-14.5 -11.5l-10.5 -10.5h395l-2 -6l20 -25l-32 -151h-433q-1 -10 3 -20q11 -10 25 -10h374l-2 -6l20 -25l-32 -152h-617q-26 0 -52.5 15.5t-46.5 39.5l-3 3q-25 22 -39.5 51.5t-8.5 57.5
l63 294q5 24 25.5 50t48.5 47.5t58.5 35t55.5 13.5h620zM490 763h222l5 -14l15 -17l64 -153h-171l-20 25h-5l-8 20l-37 -45h-171l-20 25h-9z" />
    <glyph glyph-name="FL00CBh" unicode="&#xcb;" horiz-adv-x="845" 
d="M783 750h-145l-27 -131h145zM556 750h-145l-27 -131h145zM887 423l28 131h-606q-23 0 -50.5 -12.5t-53 -31.5t-44.5 -42.5t-23 -45.5l-63 -294q-5 -21 4.5 -43.5t27 -41.5t40 -31t44.5 -12h606l28 130h-360q-12 0 -23.5 7.5t-19.5 19t-12.5 25t-1.5 25.5q1 6 2 6h432
l28 129h-431q5 23 16 39t35 33q12 9 21 9h376zM932 568l-2 -6l20 -25l-32 -153h-387q-5 0 -14 -6t-14.5 -11.5l-10.5 -10.5h395l-2 -6l20 -25l-32 -151h-433q-1 -10 3 -20q11 -10 25 -10h374l-2 -6l20 -25l-32 -152h-617q-26 0 -52.5 15.5t-46.5 39.5l-3 3
q-25 22 -39.5 51.5t-8.5 57.5l63 294q5 24 25.5 50t48.5 47.5t58.5 35t55.5 13.5h620zM400 764h173l-1 -6l20 -25l-33 -153h-167l-19 25h-6zM627 764h173l-1 -6l20 -25l-33 -153h-167l-19 25h-6z" />
    <glyph glyph-name="FL00CCh" unicode="&#xcc;" horiz-adv-x="805" 
d="M48 0h708l28 132h-196l45 210h-317l-45 -210h-195zM873 554h-708l-28 -132h708zM564 749h-142l52 -131h145zM668 325l-38 -179h171l-1 -6l19 -25l-32 -154h-730l-20 25h-6l34 160h195l45 210h345l-2 -6zM154 568h736l-2 -6l20 -25l-33 -154h-730l-19 25h-6zM400 763h175
l5 -14l15 -17l64 -153h-171l-20 25h-5z" />
    <glyph glyph-name="FL00CDh" unicode="&#xcd;" horiz-adv-x="805" 
d="M700 749h-142l-111 -131h145zM875 554h-708l-28 -132h708zM48 0h708l28 132h-195l45 210h-317l-45 -210h-196zM669 325l-38 -179h170l-1 -6l19 -25l-32 -154h-730l-20 25h-6l34 160h196l45 210h345l-2 -6zM156 568h736l-2 -6l20 -25l-33 -154h-730l-19 25h-6zM553 763
h175l-5 -6l21 -25l-126 -153h-171l-20 25h-9z" />
    <glyph glyph-name="FL00CEh" unicode="&#xce;" horiz-adv-x="805" 
d="M669 750h-206l-110 -131h145l54 66l28 -66h145zM875 554h-708l-28 -132h708zM48 0h708l28 132h-195l45 210h-317l-45 -210h-196zM669 325l-38 -179h170l-1 -6l19 -25l-32 -154h-730l-20 25h-6l34 160h196l45 210h345l-2 -6zM156 568h736l-2 -6l20 -25l-33 -154h-730
l-19 25h-6zM458 764h222l5 -14l15 -17l64 -153h-171l-19 25h-5l-9 20l-37 -45h-171l-19 25h-9z" />
    <glyph glyph-name="FL00CFh" unicode="&#xcf;" horiz-adv-x="805" 
d="M751 750h-145l-27 -131h145zM524 750h-145l-27 -131h145zM875 554h-708l-28 -132h708zM48 0h708l28 132h-195l45 210h-317l-45 -210h-196zM669 325l-38 -179h170l-1 -6l19 -25l-32 -154h-730l-20 25h-6l34 160h196l45 210h345l-2 -6zM156 568h736l-2 -6l20 -25l-33 -154
h-730l-19 25h-6zM595 764h173l-1 -6l20 -25l-33 -153h-167l-19 25h-6zM368 764h173l-1 -6l20 -25l-33 -153h-167l-19 25h-6z" />
    <glyph glyph-name="FL00D0h" unicode="&#xd0;" horiz-adv-x="987" 
d="M554 343l-433 -1l-28 -131h116l-45 -211h634q23 0 50.5 13.5t53 33.5t44 44.5t23.5 47.5l59 279q4 19 -4 42.5t-23 44.5t-35 35t-41 14h-643l-28 -132h394q10 -2 19.5 -8.5t17 -15.5t11.5 -20t2 -21l-34 -159q-2 -10 -11 -21.5t-21 -21.5t-25 -16.5t-23 -6.5h-75z
M110 356l461 1l-1 -6l19 -25l-38 -180h36q8 0 18 5t19.5 12.5t16.5 17t9 17.5l34 159q2 8 -3 19q-5 2 -8 3.5l-7 3.5h-404l-19 25h-6l34 160h657q29 0 55.5 -23.5t43.5 -54.5l1 -1q18 -23 28 -50t5 -49l-59 -279q-5 -24 -25.5 -50.5t-47.5 -48.5t-56.5 -36.5t-54.5 -14.5
h-645l-20 25h-6l40 186h-85l-20 25h-6z" />
    <glyph glyph-name="FL00D1h" unicode="&#xd1;" horiz-adv-x="894" 
d="M530 619h189l103 131h-134l-50 -66l-25 66h-189l-103 -131h133l51 66zM834 554h-668l-118 -554h316l90 423h103q9 0 18.5 -6t16.5 -15t11 -19t3 -17l-78 -366h318l89 418q4 19 -4 43t-23 44.5t-35 34.5t-39 14zM155 568h682q26 0 53 -23.5t43 -54.5l2 -1q18 -23 28 -50
t5 -49l-91 -429h-340l-20 25h-6l81 380q1 6 -2 14q-9 4 -13 4h-92l-90 -423h-338l-20 25h-6zM629 752l15 -19l4 -13l34 44h169l-5 -6l21 -25l-122 -153h-202l-19 25h-5l-7 16l-32 -41h-160l-19 25h-9l126 159h206z" />
    <glyph glyph-name="FL00D2h" unicode="&#xd2;" horiz-adv-x="973" 
d="M803 4q20 5 44 17t45.5 29t37.5 37t21 41l63 294q4 18 -4 41t-22.5 43.5t-34 34t-39.5 13.5h-621q-20 0 -45.5 -14t-49 -34.5t-41 -44.5t-21.5 -43l-59 -279q-5 -24 2.5 -48.5t23.5 -45t38.5 -33t47.5 -12.5h596q1 0 8 1.5t10 2.5zM570 130h-106q-11 1 -22 7.5t-19.5 16
t-13.5 21t-2 23.5l35 164q2 10 10.5 20.5t20.5 19.5t24.5 15t21.5 6h116q12 0 21.5 -8t16 -19t9 -24.5t0.5 -23.5l-30 -141q-3 -13 -11.5 -26.5t-20.5 -25t-25.5 -18.5t-24.5 -7zM662 750h-142l53 -131h145zM115 11l-4 5q-27 23 -41.5 56.5t-6.5 66.5l59 279q4 21 23.5 47.5
t45.5 49t54.5 38t50.5 15.5h621q27 0 52.5 -22.5t41.5 -51.5l3 -3q19 -23 28.5 -49.5t4.5 -47.5l-63 -294q-5 -23 -22 -45t-40.5 -40t-49 -31.5t-46.5 -18.5q-4 -1 -11 -2.5t-10 -1.5h-596q-27 0 -51 13.5t-43 36.5zM440 170l-1 -7q-1 -2 -0.5 -3t0.5 -3q14 -12 29 -13h105
q9 0 19 6t19.5 15t17 20t9.5 22l30 141q3 17 -6 35q-1 1 -7 1h-116q-8 0 -18 -5t-20 -12.5t-17.5 -16.5t-8.5 -16zM498 764h175l5 -14l15 -17l64 -153h-171l-19 25h-5z" />
    <glyph glyph-name="FL00D3h" unicode="&#xd3;" horiz-adv-x="973" 
d="M770 750h-142l-110 -131h145zM564 130h-106q-11 0 -21.5 7t-17.5 18.5t-10.5 25t-0.5 26.5l30 141q2 10 10 23.5t19.5 24.5t24.5 19t25 8h116q9 0 19 -6t17.5 -15t12 -19.5t2.5 -20.5l-35 -164q-3 -12 -12.5 -23.5t-22 -21t-26.5 -16t-24 -7.5zM171 4q3 -1 9 -2.5t7 -1.5
h596q25 0 53 12.5t52.5 33t43 45t23.5 48.5l59 279q4 19 -3.5 43t-22 44.5t-34 34.5t-39.5 14h-621q-20 0 -45.5 -13.5t-48.5 -34t-40.5 -43.5t-21.5 -41l-63 -294q-5 -21 3 -41t22.5 -37t33.5 -29t37 -17zM110 18l-3 2q-25 20 -39 48.5t-7 59.5l63 294q4 20 23.5 45.5
t45 48t54 37.5t50.5 15h621q27 0 52 -22.5t42 -51.5l2 -3q19 -23 28.5 -50.5t4.5 -50.5l-59 -279q-6 -26 -25.5 -52.5t-46 -48.5t-56.5 -35.5t-57 -13.5h-596q-3 0 -10 1.5t-9 2.5q-20 5 -41 19t-37 34zM441 179q-3 -14 2 -29q7 -6 18 -6h105q9 1 20 6t21.5 12.5t18 17
t9.5 18.5l35 164q1 4 0 8t-2 9l-8.5 3.5t-6.5 1.5h-116q-10 0 -20.5 -6.5t-20 -16.5t-16.5 -21t-9 -20zM623 764h175l-5 -6l21 -25l-126 -153h-171l-19 25h-9z" />
    <glyph glyph-name="FL00D4h" unicode="&#xd4;" horiz-adv-x="973" 
d="M748 750h-206l-110 -131h145l54 66l28 -66h145zM564 130h-106q-11 0 -21.5 7t-17.5 18.5t-10.5 25t-0.5 26.5l30 141q2 10 10 23.5t19.5 24.5t24.5 19t25 8h116q9 0 19 -6t17.5 -15t12 -19.5t2.5 -20.5l-35 -164q-3 -12 -12.5 -23.5t-22 -21t-26.5 -16t-24 -7.5zM171 4
q3 -1 9 -2.5t7 -1.5h596q25 0 53 12.5t52.5 33t43 45t23.5 48.5l59 279q4 19 -3.5 43t-22 44.5t-34 34.5t-39.5 14h-621q-20 0 -45.5 -13.5t-48.5 -34t-40.5 -43.5t-21.5 -41l-63 -294q-5 -21 3 -41t22.5 -37t33.5 -29t37 -17zM110 18l-3 2q-25 20 -39 48.5t-7 59.5l63 294
q4 20 23.5 45.5t45 48t54 37.5t50.5 15h621q27 0 52 -22.5t42 -51.5l2 -3q19 -23 28.5 -50.5t4.5 -50.5l-59 -279q-6 -26 -25.5 -52.5t-46 -48.5t-56.5 -35.5t-57 -13.5h-596q-3 0 -10 1.5t-9 2.5q-20 5 -41 19t-37 34zM537 764h222l5 -14l15 -17l64 -153h-171l-19 25h-5
l-9 20l-37 -45h-171l-19 25h-9zM441 179q-3 -14 2 -29q7 -6 18 -6h105q9 1 20 6t21.5 12.5t18 17t9.5 18.5l35 164q1 4 0 8t-2 9l-8.5 3.5t-6.5 1.5h-116q-10 0 -20.5 -6.5t-20 -16.5t-16.5 -21t-9 -20z" />
    <glyph glyph-name="FL00D5h" unicode="&#xd5;" horiz-adv-x="973" 
d="M594 619h189l103 131h-134l-50 -66l-25 66h-189l-103 -131h133l51 66zM564 130h-106q-11 0 -21.5 7t-17.5 18.5t-10.5 25t-0.5 26.5l30 141q2 10 10 23.5t19.5 24.5t24.5 19t25 8h116q9 0 19 -6t17.5 -15t12 -19.5t2.5 -20.5l-35 -164q-3 -12 -12.5 -23.5t-22 -21
t-26.5 -16t-24 -7.5zM171 4q3 -1 9 -2.5t7 -1.5h596q25 0 53 12.5t52.5 33t43 45t23.5 48.5l59 279q4 19 -3.5 43t-22 44.5t-34 34.5t-39.5 14h-621q-20 0 -45.5 -13.5t-48.5 -34t-40.5 -43.5t-21.5 -41l-63 -294q-5 -21 3 -41t22.5 -37t33.5 -29t37 -17zM110 18l-3 2
q-25 20 -39 48.5t-7 59.5l63 294q4 20 23.5 45.5t45 48t54 37.5t50.5 15h621q27 0 52 -22.5t42 -51.5l2 -3q19 -23 28.5 -50.5t4.5 -50.5l-59 -279q-6 -26 -25.5 -52.5t-46 -48.5t-56.5 -35.5t-57 -13.5h-596q-3 0 -10 1.5t-9 2.5q-20 5 -41 19t-37 34zM693 752l15 -19
l4 -13l34 44h169l-5 -6l21 -25l-122 -153h-202l-19 25h-5l-7 16l-32 -41h-160l-19 25h-9l126 159h206zM441 179q-3 -14 2 -29q7 -6 18 -6h105q9 1 20 6t21.5 12.5t18 17t9.5 18.5l35 164q1 4 0 8t-2 9l-8.5 3.5t-6.5 1.5h-116q-10 0 -20.5 -6.5t-20 -16.5t-16.5 -21t-9 -20z
" />
    <glyph glyph-name="FL00D6h" unicode="&#xd6;" horiz-adv-x="973" 
d="M831 750h-145l-27 -131h145zM604 750h-145l-27 -131h145zM564 130h-106q-11 0 -21.5 7t-17.5 18.5t-10.5 25t-0.5 26.5l30 141q2 10 10 23.5t19.5 24.5t24.5 19t25 8h116q9 0 19 -6t17.5 -15t12 -19.5t2.5 -20.5l-35 -164q-3 -12 -12.5 -23.5t-22 -21t-26.5 -16t-24 -7.5
zM171 4q3 -1 9 -2.5t7 -1.5h596q25 0 53 12.5t52.5 33t43 45t23.5 48.5l59 279q4 19 -3.5 43t-22 44.5t-34 34.5t-39.5 14h-621q-20 0 -45.5 -13.5t-48.5 -34t-40.5 -43.5t-21.5 -41l-63 -294q-5 -21 3 -41t22.5 -37t33.5 -29t37 -17zM110 18l-3 2q-25 20 -39 48.5t-7 59.5
l63 294q4 20 23.5 45.5t45 48t54 37.5t50.5 15h621q27 0 52 -22.5t42 -51.5l2 -3q19 -23 28.5 -50.5t4.5 -50.5l-59 -279q-6 -26 -25.5 -52.5t-46 -48.5t-56.5 -35.5t-57 -13.5h-596q-3 0 -10 1.5t-9 2.5q-20 5 -41 19t-37 34zM441 179q-3 -14 2 -29q7 -6 18 -6h105
q9 1 20 6t21.5 12.5t18 17t9.5 18.5l35 164q1 4 0 8t-2 9l-8.5 3.5t-6.5 1.5h-116q-10 0 -20.5 -6.5t-20 -16.5t-16.5 -21t-9 -20zM448 764h173l-1 -6l20 -25l-33 -153h-167l-19 25h-6zM675 764h173l-1 -6l20 -25l-33 -153h-167l-19 25h-6z" />
    <glyph glyph-name="FL00D7h" unicode="&#xd7;" horiz-adv-x="416" 
d="M285 369l-63 81l-113 -92l65 -82l-100 -82l73 -92l99 82l65 -83l113 93l-65 82l99 82l-73 93zM226 470l64 -81l99 82l89 -113l-2 -2l20 -26l-97 -80l45 -56l-2 -2l20 -26l-132 -109l-20 26l-3 -2l-45 57l-97 -80l-20 26l-3 -2l-88 112l100 82l-65 82z" />
    <glyph glyph-name="FL00D8h" unicode="&#xd8;" horiz-adv-x="973" 
d="M564 130h-79l177 129l-13 -61q-3 -12 -12.5 -23.5t-22 -21t-26.5 -16t-24 -7.5zM425 288l13 60q2 10 10 23.5t19.5 24.5t24.5 19t25 8h90zM171 4q3 -1 9 -2.5t7 -1.5h596q25 0 53 12.5t52.5 33t43 45t23.5 48.5l59 279q4 19 -3.5 43t-22 44.5t-34 34.5t-39.5 14h-621
q-20 0 -45.5 -13.5t-48.5 -34t-40.5 -43.5t-21.5 -41l-63 -294q-5 -21 3 -41t22.5 -37t33.5 -29t37 -17zM110 18l-3 2q-25 20 -39 48.5t-7 59.5l63 294q4 20 23.5 45.5t45 48t54 37.5t50.5 15h621q27 0 52 -22.5t42 -51.5l2 -3q19 -23 28.5 -50.5t4.5 -50.5l-59 -279
q-6 -26 -25.5 -52.5t-46 -48.5t-56.5 -35.5t-57 -13.5h-596q-3 0 -10 1.5t-9 2.5q-20 5 -41 19t-37 34zM534 384q-13 -2 -26 -12.5t-23 -24.5zM603 160q1 1 2.5 2l4.5 3z" />
    <glyph glyph-name="FL00D9h" unicode="&#xd9;" horiz-adv-x="907" 
d="M659 554l-73 -343q-2 -11 -10 -25t-19 -26t-24 -20.5t-25 -8.5h-54q-13 0 -23 8.5t-16 21t-8 26t0 24.5l73 343h-315l-90 -421q-4 -20 3.5 -43t22 -43t34 -33.5t40.5 -13.5h555q20 0 45 13.5t48.5 34t41 43.5t21.5 42l90 421h-317zM630 750h-142l53 -131h145zM572 211
l76 357h345l-2 -6l20 -25l-92 -432q-4 -21 -22.5 -46t-44 -46.5t-53 -36.5t-49.5 -15h-555q-21 0 -41 13t-37 33l-3 3q-13 12 -24 27t-18.5 31.5t-10.5 33t0 31.5l93 435h343l-2 -6l20 -25l-75 -354q-3 -18 2 -34q5 -4 15 -4h54q9 0 19 7t18.5 17t15 21.5t8.5 20.5zM466 764
h175l5 -14l15 -17l64 -153h-171l-19 25h-5z" />
    <glyph glyph-name="FL00DAh" unicode="&#xda;" horiz-adv-x="907" 
d="M736 750h-142l-110 -131h145zM410 211l73 343h-317l-90 -421q-4 -19 3.5 -42t22.5 -43.5t34.5 -34t39.5 -13.5h555q21 0 46 13.5t48.5 33.5t40.5 43t21 43l90 421h-315l-73 -343q-2 -11 -10 -24.5t-19.5 -26t-25 -21t-26.5 -8.5h-54q-12 0 -21.5 8.5t-15 20.5t-7.5 26
t0 25zM119 7l-3 3q-13 12 -24.5 27t-19 31.5t-10.5 33t0 31.5l93 435h345l-2 -6l20 -25l-75 -354q-2 -8 -2 -17t4 -17q3 -4 12 -4h54q10 0 20.5 7t19.5 17.5t15.5 21.5t8.5 20l76 357h343l-2 -6l20 -25l-92 -432q-5 -21 -23.5 -46t-43 -47t-52.5 -36.5t-50 -14.5h-555
q-20 0 -40 13t-37 33zM589 764h175l-5 -6l21 -25l-126 -153h-171l-19 25h-9z" />
    <glyph glyph-name="FL00DBh" unicode="&#xdb;" horiz-adv-x="907" 
d="M715 750h-206l-110 -131h145l54 66l28 -66h145zM410 211l73 343h-317l-90 -421q-4 -19 3.5 -42t22.5 -43.5t34.5 -34t39.5 -13.5h555q21 0 46 13.5t48.5 33.5t40.5 43t21 43l90 421h-315l-73 -343q-2 -11 -10 -24.5t-19.5 -26t-25 -21t-26.5 -8.5h-54q-12 0 -21.5 8.5
t-15 20.5t-7.5 26t0 25zM119 7l-3 3q-13 12 -24.5 27t-19 31.5t-10.5 33t0 31.5l93 435h345l-2 -6l20 -25l-75 -354q-2 -8 -2 -17t4 -17q3 -4 12 -4h54q10 0 20.5 7t19.5 17.5t15.5 21.5t8.5 20l76 357h343l-2 -6l20 -25l-92 -432q-5 -21 -23.5 -46t-43 -47t-52.5 -36.5
t-50 -14.5h-555q-20 0 -40 13t-37 33zM504 764h222l5 -14l15 -17l64 -153h-171l-19 25h-5l-9 20l-37 -45h-171l-19 25h-9z" />
    <glyph glyph-name="FL00DCh" unicode="&#xdc;" horiz-adv-x="907" 
d="M798 750h-145l-27 -131h145zM571 750h-145l-27 -131h145zM410 211l73 343h-317l-90 -421q-4 -19 3.5 -42t22.5 -43.5t34.5 -34t39.5 -13.5h555q21 0 46 13.5t48.5 33.5t40.5 43t21 43l90 421h-315l-73 -343q-2 -11 -10 -24.5t-19.5 -26t-25 -21t-26.5 -8.5h-54
q-12 0 -21.5 8.5t-15 20.5t-7.5 26t0 25zM119 7l-3 3q-13 12 -24.5 27t-19 31.5t-10.5 33t0 31.5l93 435h345l-2 -6l20 -25l-75 -354q-2 -8 -2 -17t4 -17q3 -4 12 -4h54q10 0 20.5 7t19.5 17.5t15.5 21.5t8.5 20l76 357h343l-2 -6l20 -25l-92 -432q-5 -21 -23.5 -46t-43 -47
t-52.5 -36.5t-50 -14.5h-555q-20 0 -40 13t-37 33zM642 764h173l-1 -6l20 -25l-33 -153h-167l-19 25h-6zM415 764h173l-1 -6l20 -25l-33 -153h-167l-19 25h-6z" />
    <glyph glyph-name="FL00DDh" unicode="&#xdd;" horiz-adv-x="976" 
d="M772 750h-142l-110 -131h145zM707 276l354 278h-330l-151 -120l-99 120h-330l239 -278l-59 -276h317zM1099 568l-6 -5l20 -26l-374 -294l-60 -282h-339l-20 25h-6l60 283l-255 299h371l94 -115l144 115h371zM625 764h175l-5 -6l21 -25l-126 -153h-171l-19 25h-9z" />
    <glyph glyph-name="FL00DEh" unicode="&#xde;" horiz-adv-x="872" 
d="M482 554h-316l-50 -233h419q16 0 22.5 -14t4.5 -26q-1 -4 -4 -11t-8 -13.5t-11.5 -11.5t-13.5 -5h-426l-51 -240h316l23 109h318q35 0 65 16.5t53.5 41.5t39 55.5t21.5 59.5q5 22 3.5 51.5t-11 56t-28 44.5t-48.5 18h-340zM155 568h344l-2 -6l20 -25l-15 -71h301
q30 0 49.5 -16t31.5 -41l6 -6q12 -15 18.5 -34t9.5 -39t2.5 -40t-3.5 -36q-6 -30 -23 -62.5t-42 -59.5t-57.5 -44.5t-69.5 -17.5h-307l-23 -109h-338l-20 25h-6l57 268h440q8 0 13 11t7 16v1h-423l-20 25h-6z" />
    <glyph glyph-name="FL00DFh" unicode="&#xdf;" horiz-adv-x="872" 
d="M800 554h-634l-154 -723h310l126 592h124q4 0 6.5 -5t4 -12t1.5 -14q0 -6 -1 -9q-1 -4 -4 -11t-7.5 -13.5t-11 -11.5t-13.5 -5h-66l-28 -132h74q2 0 5 -6t4 -11q5 -5 5 -8t-1 -8l-2 -6q-1 -5 -4 -12t-7.5 -13.5t-11 -11t-13.5 -4.5h-66l-28 -130h287q32 0 59.5 17.5
t49.5 43t36.5 55.5t19.5 55l4 18q3 13 3.5 21.5t-1.5 22.5q-1 3 -2.5 10t-3.5 14t-3 12.5t-1 6.5v2q1 1 5 6t7.5 10.5l6.5 10.5l3 5q12 18 17.5 35.5t9.5 37.5q6 29 3.5 59.5t-15.5 55t-36 40.5t-57 16zM155 568h648q40 0 65.5 -19.5t39.5 -49.5l3 -3q23 -28 29 -66t-2 -75
q-5 -22 -10 -40t-19 -38h-1q-4 -5 -9 -14t-10 -16q0 -1 1 -5.5t3 -10.5q2 -4 2 -10t2 -11l2 -2q1 -3 0 -4v-1q3 -13 2 -21t-4 -21l-4 -18q-6 -27 -21.5 -58.5t-38.5 -59t-53.5 -46t-64.5 -18.5h-298l-20 25h-3l-41 -194h-332l-20 25h-6zM461 171l-19 25h-3l-11 -52h77
q8 0 12.5 10t6.5 17h-63zM479 384l-6 -28h77q8 0 13 11t6 16l1 1h-91zM875 235v2v-2z" />
    <glyph glyph-name="FL00E0h" unicode="&#xe0;" 
d="M630 750h-142l53 -131h145zM614 343h-177q2 10 10 24t19 26.5t24.5 21t26.5 8.5h53q12 0 21.5 -8.5t15 -20.5t7.5 -26t0 -25zM542 0h316l89 421q4 19 -3.5 42t-22 43.5t-34 34t-39.5 13.5h-554q-21 0 -46 -13.5t-48.5 -33.5t-41 -43.5t-21.5 -42.5l-89 -421h315l44 207
h179zM57 -39l-20 25h-6l92 435q5 21 24 47t45 48t54 37t51 15h554q27 0 53 -22.5t43 -52.5l1 -2q19 -23 28.5 -49.5t4.5 -48.5l-92 -432h-338l-20 25h-6l39 182h-126l-44 -207h-337zM466 764h175l5 -14l15 -17l64 -153h-171l-19 25h-5zM537 384q-11 0 -23.5 -8t-21.5 -19
h107q-1 6 -2 13t-4 13q0 1 -3 1h-53z" />
    <glyph glyph-name="FL00E1h" unicode="&#xe1;" 
d="M736 750h-142l-110 -131h145zM614 343h-177q2 10 10 24t19 26.5t24.5 21t26.5 8.5h53q12 0 21.5 -8.5t15 -20.5t7.5 -26t0 -25zM542 0h316l89 421q4 19 -3.5 42t-22 43.5t-34 34t-39.5 13.5h-554q-21 0 -46 -13.5t-48.5 -33.5t-41 -43.5t-21.5 -42.5l-89 -421h315l44 207
h179zM57 -39l-20 25h-6l92 435q5 21 24 47t45 48t54 37t51 15h554q27 0 53 -22.5t43 -52.5l1 -2q19 -23 28.5 -49.5t4.5 -48.5l-92 -432h-338l-20 25h-6l39 182h-126l-44 -207h-337zM589 764h175l-5 -6l21 -25l-126 -153h-171l-19 25h-9zM537 384q-11 0 -23.5 -8t-21.5 -19
h107q-1 6 -2 13t-4 13q0 1 -3 1h-53z" />
    <glyph glyph-name="FL00E2h" unicode="&#xe2;" 
d="M715 750h-206l-110 -131h145l54 66l28 -66h145zM614 343h-177q2 10 10 24t19 26.5t24.5 21t26.5 8.5h53q12 0 21.5 -8.5t15 -20.5t7.5 -26t0 -25zM542 0h316l89 421q4 19 -3.5 42t-22 43.5t-34 34t-39.5 13.5h-554q-21 0 -46 -13.5t-48.5 -33.5t-41 -43.5t-21.5 -42.5
l-89 -421h315l44 207h179zM57 -39l-20 25h-6l92 435q5 21 24 47t45 48t54 37t51 15h554q27 0 53 -22.5t43 -52.5l1 -2q19 -23 28.5 -49.5t4.5 -48.5l-92 -432h-338l-20 25h-6l39 182h-126l-44 -207h-337zM504 764h222l5 -14l15 -17l64 -153h-171l-19 25h-5l-9 20l-37 -45
h-171l-19 25h-9zM537 384q-11 0 -23.5 -8t-21.5 -19h107q-1 6 -2 13t-4 13q0 1 -3 1h-53z" />
    <glyph glyph-name="FL00E3h" unicode="&#xe3;" 
d="M614 343h-177q2 10 10 24t19 26.5t24.5 21t26.5 8.5h53q12 0 21.5 -8.5t15 -20.5t7.5 -26t0 -25zM558 619h189l103 131h-134l-50 -66l-25 66h-189l-103 -131h133l51 66zM542 0h316l89 421q4 19 -3.5 42t-22 43.5t-34 34t-39.5 13.5h-554q-21 0 -46 -13.5t-48.5 -33.5
t-41 -43.5t-21.5 -42.5l-89 -421h315l44 207h179zM57 -39l-20 25h-6l92 435q5 21 24 47t45 48t54 37t51 15h554q27 0 53 -22.5t43 -52.5l1 -2q19 -23 28.5 -49.5t4.5 -48.5l-92 -432h-338l-20 25h-6l39 182h-126l-44 -207h-337zM657 752l15 -19l4 -13l34 44h169l-5 -6
l21 -25l-122 -153h-202l-19 25h-5l-7 16l-32 -41h-160l-19 25h-9l126 159h206zM537 384q-11 0 -23.5 -8t-21.5 -19h107q-1 6 -2 13t-4 13q0 1 -3 1h-53z" />
    <glyph glyph-name="FL00E4h" unicode="&#xe4;" 
d="M798 750h-145l-27 -131h145zM571 750h-145l-27 -131h145zM614 343h-177q2 10 10 24t19 26.5t24.5 21t26.5 8.5h53q12 0 21.5 -8.5t15 -20.5t7.5 -26t0 -25zM542 0h316l89 421q4 19 -3.5 42t-22 43.5t-34 34t-39.5 13.5h-554q-21 0 -46 -13.5t-48.5 -33.5t-41 -43.5
t-21.5 -42.5l-89 -421h315l44 207h179zM57 -39l-20 25h-6l92 435q5 21 24 47t45 48t54 37t51 15h554q27 0 53 -22.5t43 -52.5l1 -2q19 -23 28.5 -49.5t4.5 -48.5l-92 -432h-338l-20 25h-6l39 182h-126l-44 -207h-337zM642 764h173l-1 -6l20 -25l-33 -153h-167l-19 25h-6z
M415 764h173l-1 -6l20 -25l-33 -153h-167l-19 25h-6zM537 384q-11 0 -23.5 -8t-21.5 -19h107q-1 6 -2 13t-4 13q0 1 -3 1h-53z" />
    <glyph glyph-name="FL00E5h" unicode="&#xe5;" 
d="M537 384h53q3 0 3 -1q3 -6 4 -13t2 -13h-107q9 11 21.5 19t23.5 8zM702 763h-173l-34 -159h6l20 -25h167l33 153l-20 25zM37 -14l20 -25h337l44 207h126l-39 -182h6l20 -25h338l92 432q5 22 -4.5 48.5t-28.5 49.5l-1 2q-17 30 -43 52.5t-53 22.5h-554q-23 0 -51 -15
t-54 -37t-45 -48t-24 -47l-92 -435h6zM625 702h-44l-8 -40h44zM858 0h-316l44 207h-179l-44 -207h-315l89 421q4 19 21.5 42.5t41 43.5t48.5 33.5t46 13.5h554q20 0 39.5 -13.5t34 -34t22 -43.5t3.5 -42zM437 343h177q2 11 0 25t-7.5 26t-15 20.5t-21.5 8.5h-53
q-13 0 -26.5 -8.5t-24.5 -21t-19 -26.5t-10 -24zM540 749h145l-28 -131h-145z" />
    <glyph glyph-name="FL00E6h" unicode="&#xe6;" horiz-adv-x="1382" 
d="M614 343h-177q2 10 10 24t19 26.5t24.5 21t26.5 8.5h53q12 0 21.5 -8.5t15 -20.5t7.5 -26t0 -25zM1424 423l28 131h-1158q-21 0 -46 -13.5t-48.5 -33.5t-41 -43.5t-21.5 -42.5l-89 -421h315l44 207h179l-44 -207h792l28 130h-360q-12 0 -23.5 7.5t-19.5 19t-12.5 25
t-1.5 25.5q1 6 2 6h432l28 129h-431q5 23 16 39t35 33q12 9 21 9h376zM1469 568l-2 -6l20 -25l-32 -153h-387q-5 0 -14 -6t-14.5 -11.5l-10.5 -10.5h395l-2 -6l20 -25l-32 -151h-433q-1 -10 3 -20q11 -10 25 -10h374l-2 -6l20 -25l-32 -152h-814l-20 25h-6l39 182h-126
l-44 -207h-337l-20 25h-6l92 435q5 21 24 47t45 48t54 37t51 15h1172zM537 384q-11 0 -23.5 -8t-21.5 -19h107q-1 6 -2 13t-4 13q0 1 -3 1h-53z" />
    <glyph glyph-name="FL00E7h" unicode="&#xe7;" horiz-adv-x="845" 
d="M887 423l28 131h-621q-21 0 -46.5 -14t-48.5 -34.5t-40.5 -44.5t-21.5 -43l-62 -290q-5 -21 4.5 -43.5t26.5 -41.5t39 -31t42 -12h249l-11 -52h-104l-23 -107h235l34 159h230l28 130h-364l-11 6.5t-17 8.5q-15 11 -21.5 29.5t-2.5 36.5l29 135q2 10 9.5 23t18.5 25
t24 20.5t27 8.5h370zM932 568l-2 -6l20 -25l-32 -153h-381q-11 0 -22 -7t-20.5 -17.5t-16 -22t-7.5 -19.5l-29 -135q-3 -15 -1 -24q1 -1 2 -1t1 -1l-1 -1q8 -3 11.5 -5t14.5 -7h373l-2 -6l20 -25l-32 -152h-230l-34 -159h-257l-20 25h-6l29 134h-103q-24 0 -49.5 15.5
t-45.5 39.5l-3 4q-25 22 -39.5 51t-8.5 57l62 290q4 21 23.5 47.5t45 49t54 38t51.5 15.5h635zM450 138q1 -1 2 -1.5t2 -1.5z" />
    <glyph glyph-name="FL00E8h" unicode="&#xe8;" horiz-adv-x="845" 
d="M612 750h-142l53 -131h145zM887 423l28 131h-606q-23 0 -50.5 -12.5t-53 -31.5t-44.5 -42.5t-23 -45.5l-63 -294q-5 -21 4.5 -43.5t27 -41.5t40 -31t44.5 -12h606l28 130h-360q-12 0 -23.5 7.5t-19.5 19t-12.5 25t-1.5 25.5q1 6 2 6h432l28 129h-431q5 23 16 39t35 33
q12 9 21 9h376zM932 568l-2 -6l20 -25l-32 -153h-387q-5 0 -14 -6t-14.5 -11.5l-10.5 -10.5h395l-2 -6l20 -25l-32 -151h-433q-1 -10 3 -20q11 -10 25 -10h374l-2 -6l20 -25l-32 -152h-617q-26 0 -52.5 15.5t-46.5 39.5l-3 3q-25 22 -39.5 51.5t-8.5 57.5l63 294
q5 24 25.5 50t48.5 47.5t58.5 35t55.5 13.5h620zM448 764h175l5 -14l15 -17l64 -153h-171l-19 25h-5z" />
    <glyph glyph-name="FL00E9h" unicode="&#xe9;" horiz-adv-x="845" 
d="M749 750h-142l-110 -131h145zM887 423l28 131h-606q-23 0 -50.5 -12.5t-53 -31.5t-44.5 -42.5t-23 -45.5l-63 -294q-5 -21 4.5 -43.5t27 -41.5t40 -31t44.5 -12h606l28 130h-360q-12 0 -23.5 7.5t-19.5 19t-12.5 25t-1.5 25.5q1 6 2 6h432l28 129h-431q5 23 16 39t35 33
q12 9 21 9h376zM932 568l-2 -6l20 -25l-32 -153h-387q-5 0 -14 -6t-14.5 -11.5l-10.5 -10.5h395l-2 -6l20 -25l-32 -151h-433q-1 -10 3 -20q11 -10 25 -10h374l-2 -6l20 -25l-32 -152h-617q-26 0 -52.5 15.5t-46.5 39.5l-3 3q-25 22 -39.5 51.5t-8.5 57.5l63 294
q5 24 25.5 50t48.5 47.5t58.5 35t55.5 13.5h620zM602 764h175l-5 -6l21 -25l-126 -153h-171l-19 25h-9z" />
    <glyph glyph-name="FL00EAh" unicode="&#xea;" horiz-adv-x="845" 
d="M701 749h-206l-111 -131h145l54 66l28 -66h145zM887 423l28 131h-606q-23 0 -50.5 -12.5t-53 -31.5t-44.5 -42.5t-23 -45.5l-63 -294q-5 -21 4.5 -43.5t27 -41.5t40 -31t44.5 -12h606l28 130h-360q-12 0 -23.5 7.5t-19.5 19t-12.5 25t-1.5 25.5q1 6 2 6h432l28 129h-431
q5 23 16 39t35 33q12 9 21 9h376zM932 568l-2 -6l20 -25l-32 -153h-387q-5 0 -14 -6t-14.5 -11.5l-10.5 -10.5h395l-2 -6l20 -25l-32 -151h-433q-1 -10 3 -20q11 -10 25 -10h374l-2 -6l20 -25l-32 -152h-617q-26 0 -52.5 15.5t-46.5 39.5l-3 3q-25 22 -39.5 51.5t-8.5 57.5
l63 294q5 24 25.5 50t48.5 47.5t58.5 35t55.5 13.5h620zM490 763h222l5 -14l15 -17l64 -153h-171l-20 25h-5l-8 20l-37 -45h-171l-20 25h-9z" />
    <glyph glyph-name="FL00EBh" unicode="&#xeb;" horiz-adv-x="845" 
d="M783 750h-145l-27 -131h145zM556 750h-145l-27 -131h145zM887 423l28 131h-606q-23 0 -50.5 -12.5t-53 -31.5t-44.5 -42.5t-23 -45.5l-63 -294q-5 -21 4.5 -43.5t27 -41.5t40 -31t44.5 -12h606l28 130h-360q-12 0 -23.5 7.5t-19.5 19t-12.5 25t-1.5 25.5q1 6 2 6h432
l28 129h-431q5 23 16 39t35 33q12 9 21 9h376zM932 568l-2 -6l20 -25l-32 -153h-387q-5 0 -14 -6t-14.5 -11.5l-10.5 -10.5h395l-2 -6l20 -25l-32 -151h-433q-1 -10 3 -20q11 -10 25 -10h374l-2 -6l20 -25l-32 -152h-617q-26 0 -52.5 15.5t-46.5 39.5l-3 3
q-25 22 -39.5 51.5t-8.5 57.5l63 294q5 24 25.5 50t48.5 47.5t58.5 35t55.5 13.5h620zM400 764h173l-1 -6l20 -25l-33 -153h-167l-19 25h-6zM627 764h173l-1 -6l20 -25l-33 -153h-167l-19 25h-6z" />
    <glyph glyph-name="FL00ECh" unicode="&#xec;" horiz-adv-x="412" 
d="M482 554h-316l-118 -554h316zM388 750h-142l53 -131h145zM155 568h344l-2 -6l20 -25l-122 -576h-338l-20 25h-6zM224 764h175l5 -14l15 -17l64 -153h-171l-19 25h-5z" />
    <glyph glyph-name="FL00EDh" unicode="&#xed;" horiz-adv-x="412" 
d="M484 750h-142l-110 -131h145zM482 554h-316l-118 -554h316zM155 568h344l-2 -6l20 -25l-122 -576h-338l-20 25h-6zM337 764h175l-5 -6l21 -25l-126 -153h-171l-19 25h-9z" />
    <glyph glyph-name="FL00EEh" unicode="&#xee;" horiz-adv-x="412" 
d="M470 749h-206l-111 -131h145l54 66l28 -66h145zM482 554h-316l-118 -554h316zM155 568h344l-2 -6l20 -25l-122 -576h-338l-20 25h-6zM259 763h222l5 -14l15 -17l64 -153h-171l-20 25h-5l-8 20l-37 -45h-171l-20 25h-9z" />
    <glyph glyph-name="FL00EFh" unicode="&#xef;" horiz-adv-x="412" 
d="M550 749h-145l-28 -131h145zM325 750h-145l-27 -131h145zM482 554h-316l-118 -554h316zM155 568h344l-2 -6l20 -25l-122 -576h-338l-20 25h-6zM169 764h173l-1 -6l20 -25l-33 -153h-167l-19 25h-6zM394 763h173l-1 -6l20 -25l-33 -153h-167l-20 25h-6z" />
    <glyph glyph-name="FL00F0h" unicode="&#xf0;" horiz-adv-x="894" 
d="M412 210h163l-2 -6q-2 -11 -11 -24t-21 -24t-26 -18.5t-26 -7.5h-28q-14 0 -24.5 8t-16.5 20t-8.5 26t0.5 26zM835 554h-669l-28 -132h419q9 0 18 -8.5t16 -20t11 -24.5t2 -22l-2 -10h-342q-26 0 -53.5 -12t-51.5 -30.5t-41 -41t-21 -43.5l-15 -71q-5 -22 2.5 -46.5
t23 -45t37.5 -34t46 -13.5h520q22 0 49 12t51.5 31t42.5 41.5t23 43.5l63 294q4 18 -4 41t-23 43.5t-35 34t-39 13.5zM155 568h683q13 0 27 -6.5t27.5 -17.5t24.5 -25.5t19 -30.5q18 -23 28 -48t5 -46l-63 -294q-5 -23 -24.5 -47.5t-46 -45t-55.5 -33.5t-53 -13h-520
q-26 0 -49 13.5t-40 35.5l-4 5q-13 12 -24 27t-18 31t-9.5 33t1.5 33l15 71q5 23 23.5 48t45 45.5t57 34t58.5 13.5h327q-2 6 -3 14.5t-6 16.5q-2 0 -3 0.5t-2 0.5h-430l-19 25h-6zM492 144q11 0 23.5 8t23.5 19h-96v-11q0 -5 2 -10q7 -6 19 -6h28z" />
    <glyph glyph-name="FL00F1h" unicode="&#xf1;" horiz-adv-x="860" 
d="M516 619h189l103 131h-134l-50 -66l-25 66h-189l-103 -131h133l51 66zM800 554h-634l-118 -554h316l90 423h69q9 0 18.5 -6t16.5 -15t11 -19t3 -17l-78 -366h318l89 418q4 19 -4 43t-23 44.5t-35 34.5t-39 14zM155 568h648q26 0 53 -23.5t43 -54.5l2 -1q18 -23 28 -50
t5 -49l-91 -429h-340l-20 25h-6l81 380q1 6 -2 14q-9 4 -13 4h-58l-90 -423h-338l-20 25h-6zM615 752l15 -19l4 -13l34 44h169l-5 -6l21 -25l-122 -153h-202l-19 25h-5l-7 16l-32 -41h-160l-19 25h-9l126 159h206z" />
    <glyph glyph-name="FL00F2h" unicode="&#xf2;" horiz-adv-x="973" 
d="M803 4q20 5 44 17t45.5 29t37.5 37t21 41l63 294q4 18 -4 41t-22.5 43.5t-34 34t-39.5 13.5h-621q-20 0 -45.5 -14t-49 -34.5t-41 -44.5t-21.5 -43l-59 -279q-5 -24 2.5 -48.5t23.5 -45t38.5 -33t47.5 -12.5h596q1 0 8 1.5t10 2.5zM570 130h-106q-11 1 -22 7.5t-19.5 16
t-13.5 21t-2 23.5l35 164q2 10 10.5 20.5t20.5 19.5t24.5 15t21.5 6h116q12 0 21.5 -8t16 -19t9 -24.5t0.5 -23.5l-30 -141q-3 -13 -11.5 -26.5t-20.5 -25t-25.5 -18.5t-24.5 -7zM662 750h-142l53 -131h145zM115 11l-4 5q-27 23 -41.5 56.5t-6.5 66.5l59 279q4 21 23.5 47.5
t45.5 49t54.5 38t50.5 15.5h621q27 0 52.5 -22.5t41.5 -51.5l3 -3q19 -23 28.5 -49.5t4.5 -47.5l-63 -294q-5 -23 -22 -45t-40.5 -40t-49 -31.5t-46.5 -18.5q-4 -1 -11 -2.5t-10 -1.5h-596q-27 0 -51 13.5t-43 36.5zM440 170l-1 -7q-1 -2 -0.5 -3t0.5 -3q14 -12 29 -13h105
q9 0 19 6t19.5 15t17 20t9.5 22l30 141q3 17 -6 35q-1 1 -7 1h-116q-8 0 -18 -5t-20 -12.5t-17.5 -16.5t-8.5 -16zM498 764h175l5 -14l15 -17l64 -153h-171l-19 25h-5z" />
    <glyph glyph-name="FL00F3h" unicode="&#xf3;" horiz-adv-x="973" 
d="M770 750h-142l-110 -131h145zM564 130h-106q-11 0 -21.5 7t-17.5 18.5t-10.5 25t-0.5 26.5l30 141q2 10 10 23.5t19.5 24.5t24.5 19t25 8h116q9 0 19 -6t17.5 -15t12 -19.5t2.5 -20.5l-35 -164q-3 -12 -12.5 -23.5t-22 -21t-26.5 -16t-24 -7.5zM171 4q3 -1 9 -2.5t7 -1.5
h596q25 0 53 12.5t52.5 33t43 45t23.5 48.5l59 279q4 19 -3.5 43t-22 44.5t-34 34.5t-39.5 14h-621q-20 0 -45.5 -13.5t-48.5 -34t-40.5 -43.5t-21.5 -41l-63 -294q-5 -21 3 -41t22.5 -37t33.5 -29t37 -17zM110 18l-3 2q-25 20 -39 48.5t-7 59.5l63 294q4 20 23.5 45.5
t45 48t54 37.5t50.5 15h621q27 0 52 -22.5t42 -51.5l2 -3q19 -23 28.5 -50.5t4.5 -50.5l-59 -279q-6 -26 -25.5 -52.5t-46 -48.5t-56.5 -35.5t-57 -13.5h-596q-3 0 -10 1.5t-9 2.5q-20 5 -41 19t-37 34zM441 179q-3 -14 2 -29q7 -6 18 -6h105q9 1 20 6t21.5 12.5t18 17
t9.5 18.5l35 164q1 4 0 8t-2 9l-8.5 3.5t-6.5 1.5h-116q-10 0 -20.5 -6.5t-20 -16.5t-16.5 -21t-9 -20zM623 764h175l-5 -6l21 -25l-126 -153h-171l-19 25h-9z" />
    <glyph glyph-name="FL00F4h" unicode="&#xf4;" horiz-adv-x="973" 
d="M748 750h-206l-110 -131h145l54 66l28 -66h145zM564 130h-106q-11 0 -21.5 7t-17.5 18.5t-10.5 25t-0.5 26.5l30 141q2 10 10 23.5t19.5 24.5t24.5 19t25 8h116q9 0 19 -6t17.5 -15t12 -19.5t2.5 -20.5l-35 -164q-3 -12 -12.5 -23.5t-22 -21t-26.5 -16t-24 -7.5zM171 4
q3 -1 9 -2.5t7 -1.5h596q25 0 53 12.5t52.5 33t43 45t23.5 48.5l59 279q4 19 -3.5 43t-22 44.5t-34 34.5t-39.5 14h-621q-20 0 -45.5 -13.5t-48.5 -34t-40.5 -43.5t-21.5 -41l-63 -294q-5 -21 3 -41t22.5 -37t33.5 -29t37 -17zM110 18l-3 2q-25 20 -39 48.5t-7 59.5l63 294
q4 20 23.5 45.5t45 48t54 37.5t50.5 15h621q27 0 52 -22.5t42 -51.5l2 -3q19 -23 28.5 -50.5t4.5 -50.5l-59 -279q-6 -26 -25.5 -52.5t-46 -48.5t-56.5 -35.5t-57 -13.5h-596q-3 0 -10 1.5t-9 2.5q-20 5 -41 19t-37 34zM537 764h222l5 -14l15 -17l64 -153h-171l-19 25h-5
l-9 20l-37 -45h-171l-19 25h-9zM441 179q-3 -14 2 -29q7 -6 18 -6h105q9 1 20 6t21.5 12.5t18 17t9.5 18.5l35 164q1 4 0 8t-2 9l-8.5 3.5t-6.5 1.5h-116q-10 0 -20.5 -6.5t-20 -16.5t-16.5 -21t-9 -20z" />
    <glyph glyph-name="FL00F5h" unicode="&#xf5;" horiz-adv-x="973" 
d="M594 619h189l103 131h-134l-50 -66l-25 66h-189l-103 -131h133l51 66zM564 130h-106q-11 0 -21.5 7t-17.5 18.5t-10.5 25t-0.5 26.5l30 141q2 10 10 23.5t19.5 24.5t24.5 19t25 8h116q9 0 19 -6t17.5 -15t12 -19.5t2.5 -20.5l-35 -164q-3 -12 -12.5 -23.5t-22 -21
t-26.5 -16t-24 -7.5zM171 4q3 -1 9 -2.5t7 -1.5h596q25 0 53 12.5t52.5 33t43 45t23.5 48.5l59 279q4 19 -3.5 43t-22 44.5t-34 34.5t-39.5 14h-621q-20 0 -45.5 -13.5t-48.5 -34t-40.5 -43.5t-21.5 -41l-63 -294q-5 -21 3 -41t22.5 -37t33.5 -29t37 -17zM110 18l-3 2
q-25 20 -39 48.5t-7 59.5l63 294q4 20 23.5 45.5t45 48t54 37.5t50.5 15h621q27 0 52 -22.5t42 -51.5l2 -3q19 -23 28.5 -50.5t4.5 -50.5l-59 -279q-6 -26 -25.5 -52.5t-46 -48.5t-56.5 -35.5t-57 -13.5h-596q-3 0 -10 1.5t-9 2.5q-20 5 -41 19t-37 34zM693 752l15 -19
l4 -13l34 44h169l-5 -6l21 -25l-122 -153h-202l-19 25h-5l-7 16l-32 -41h-160l-19 25h-9l126 159h206zM441 179q-3 -14 2 -29q7 -6 18 -6h105q9 1 20 6t21.5 12.5t18 17t9.5 18.5l35 164q1 4 0 8t-2 9l-8.5 3.5t-6.5 1.5h-116q-10 0 -20.5 -6.5t-20 -16.5t-16.5 -21t-9 -20z
" />
    <glyph glyph-name="FL00F6h" unicode="&#xf6;" horiz-adv-x="973" 
d="M831 750h-145l-27 -131h145zM604 750h-145l-27 -131h145zM564 130h-106q-11 0 -21.5 7t-17.5 18.5t-10.5 25t-0.5 26.5l30 141q2 10 10 23.5t19.5 24.5t24.5 19t25 8h116q9 0 19 -6t17.5 -15t12 -19.5t2.5 -20.5l-35 -164q-3 -12 -12.5 -23.5t-22 -21t-26.5 -16t-24 -7.5
zM171 4q3 -1 9 -2.5t7 -1.5h596q25 0 53 12.5t52.5 33t43 45t23.5 48.5l59 279q4 19 -3.5 43t-22 44.5t-34 34.5t-39.5 14h-621q-20 0 -45.5 -13.5t-48.5 -34t-40.5 -43.5t-21.5 -41l-63 -294q-5 -21 3 -41t22.5 -37t33.5 -29t37 -17zM110 18l-3 2q-25 20 -39 48.5t-7 59.5
l63 294q4 20 23.5 45.5t45 48t54 37.5t50.5 15h621q27 0 52 -22.5t42 -51.5l2 -3q19 -23 28.5 -50.5t4.5 -50.5l-59 -279q-6 -26 -25.5 -52.5t-46 -48.5t-56.5 -35.5t-57 -13.5h-596q-3 0 -10 1.5t-9 2.5q-20 5 -41 19t-37 34zM441 179q-3 -14 2 -29q7 -6 18 -6h105
q9 1 20 6t21.5 12.5t18 17t9.5 18.5l35 164q1 4 0 8t-2 9l-8.5 3.5t-6.5 1.5h-116q-10 0 -20.5 -6.5t-20 -16.5t-16.5 -21t-9 -20zM448 764h173l-1 -6l20 -25l-33 -153h-167l-19 25h-6zM675 764h173l-1 -6l20 -25l-33 -153h-167l-19 25h-6z" />
    <glyph glyph-name="FL00F7h" unicode="&#xf7;" horiz-adv-x="519" 
d="M372 177h-145l-28 -131h145zM443 511h-145l-28 -131h145zM544 342h-423l-28 -131h423zM287 525h173l-2 -6l20 -25l-29 -138h112l-2 -6l20 -25l-32 -153h-149l9 -12l-33 -153h-167l-19 25h-6l30 140h-110l-20 25h-6l34 159h157l-8 10h-6z" />
    <glyph glyph-name="FL00F8h" unicode="&#xf8;" horiz-adv-x="973" 
d="M564 130h-81l180 132l-14 -64q-3 -12 -12.5 -23.5t-22 -21t-26.5 -16t-24 -7.5zM426 290l12 58q2 10 10 23.5t19.5 24.5t24.5 19t25 8h89zM31 0h752q25 0 53 12.5t52.5 33t43 45t23.5 48.5l59 279q4 19 -3.5 42t-21.5 43l69 51h-764q-20 0 -45.5 -13.5t-48.5 -34
t-40.5 -43.5t-21.5 -41l-63 -294q-5 -21 3 -41t22 -37zM22 -39l-20 25h-11l89 65q-27 37 -19 77l63 294q4 20 23.5 45.5t45 48t54 37.5t50.5 15h801l-7 -5l20 -26l-85 -63q13 -21 19 -43.5t2 -40.5l-59 -279q-6 -26 -25.5 -52.5t-46 -48.5t-56.5 -35.5t-57 -13.5h-781z
M533 384q-13 -2 -26.5 -13t-22.5 -24zM589 152q10 5 18 10.5t15 13.5z" />
    <glyph glyph-name="FL00F9h" unicode="&#xf9;" horiz-adv-x="907" 
d="M659 554l-73 -343q-2 -11 -10 -25t-19 -26t-24 -20.5t-25 -8.5h-54q-13 0 -23 8.5t-16 21t-8 26t0 24.5l73 343h-315l-90 -421q-4 -20 3.5 -43t22 -43t34 -33.5t40.5 -13.5h555q20 0 45 13.5t48.5 34t41 43.5t21.5 42l90 421h-317zM630 750h-142l53 -131h145zM572 211
l76 357h345l-2 -6l20 -25l-92 -432q-4 -21 -22.5 -46t-44 -46.5t-53 -36.5t-49.5 -15h-555q-21 0 -41 13t-37 33l-3 3q-13 12 -24 27t-18.5 31.5t-10.5 33t0 31.5l93 435h343l-2 -6l20 -25l-75 -354q-3 -18 2 -34q5 -4 15 -4h54q9 0 19 7t18.5 17t15 21.5t8.5 20.5zM466 764
h175l5 -14l15 -17l64 -153h-171l-19 25h-5z" />
    <glyph glyph-name="FL00FAh" unicode="&#xfa;" horiz-adv-x="907" 
d="M736 750h-142l-110 -131h145zM410 211l73 343h-317l-90 -421q-4 -19 3.5 -42t22.5 -43.5t34.5 -34t39.5 -13.5h555q21 0 46 13.5t48.5 33.5t40.5 43t21 43l90 421h-315l-73 -343q-2 -11 -10 -24.5t-19.5 -26t-25 -21t-26.5 -8.5h-54q-12 0 -21.5 8.5t-15 20.5t-7.5 26
t0 25zM119 7l-3 3q-13 12 -24.5 27t-19 31.5t-10.5 33t0 31.5l93 435h345l-2 -6l20 -25l-75 -354q-2 -8 -2 -17t4 -17q3 -4 12 -4h54q10 0 20.5 7t19.5 17.5t15.5 21.5t8.5 20l76 357h343l-2 -6l20 -25l-92 -432q-5 -21 -23.5 -46t-43 -47t-52.5 -36.5t-50 -14.5h-555
q-20 0 -40 13t-37 33zM589 764h175l-5 -6l21 -25l-126 -153h-171l-19 25h-9z" />
    <glyph glyph-name="FL00FBh" unicode="&#xfb;" horiz-adv-x="907" 
d="M715 750h-206l-110 -131h145l54 66l28 -66h145zM410 211l73 343h-317l-90 -421q-4 -19 3.5 -42t22.5 -43.5t34.5 -34t39.5 -13.5h555q21 0 46 13.5t48.5 33.5t40.5 43t21 43l90 421h-315l-73 -343q-2 -11 -10 -24.5t-19.5 -26t-25 -21t-26.5 -8.5h-54q-12 0 -21.5 8.5
t-15 20.5t-7.5 26t0 25zM119 7l-3 3q-13 12 -24.5 27t-19 31.5t-10.5 33t0 31.5l93 435h345l-2 -6l20 -25l-75 -354q-2 -8 -2 -17t4 -17q3 -4 12 -4h54q10 0 20.5 7t19.5 17.5t15.5 21.5t8.5 20l76 357h343l-2 -6l20 -25l-92 -432q-5 -21 -23.5 -46t-43 -47t-52.5 -36.5
t-50 -14.5h-555q-20 0 -40 13t-37 33zM504 764h222l5 -14l15 -17l64 -153h-171l-19 25h-5l-9 20l-37 -45h-171l-19 25h-9z" />
    <glyph glyph-name="FL00FCh" unicode="&#xfc;" horiz-adv-x="907" 
d="M798 750h-145l-27 -131h145zM571 750h-145l-27 -131h145zM410 211l73 343h-317l-90 -421q-4 -19 3.5 -42t22.5 -43.5t34.5 -34t39.5 -13.5h555q21 0 46 13.5t48.5 33.5t40.5 43t21 43l90 421h-315l-73 -343q-2 -11 -10 -24.5t-19.5 -26t-25 -21t-26.5 -8.5h-54
q-12 0 -21.5 8.5t-15 20.5t-7.5 26t0 25zM119 7l-3 3q-13 12 -24.5 27t-19 31.5t-10.5 33t0 31.5l93 435h345l-2 -6l20 -25l-75 -354q-2 -8 -2 -17t4 -17q3 -4 12 -4h54q10 0 20.5 7t19.5 17.5t15.5 21.5t8.5 20l76 357h343l-2 -6l20 -25l-92 -432q-5 -21 -23.5 -46t-43 -47
t-52.5 -36.5t-50 -14.5h-555q-20 0 -40 13t-37 33zM642 764h173l-1 -6l20 -25l-33 -153h-167l-19 25h-6zM415 764h173l-1 -6l20 -25l-33 -153h-167l-19 25h-6z" />
    <glyph glyph-name="FL00FDh" unicode="&#xfd;" horiz-adv-x="976" 
d="M772 750h-142l-110 -131h145zM707 276l354 278h-330l-151 -120l-99 120h-330l239 -278l-59 -276h317zM1099 568l-6 -5l20 -26l-374 -294l-60 -282h-339l-20 25h-6l60 283l-255 299h371l94 -115l144 115h371zM625 764h175l-5 -6l21 -25l-126 -153h-171l-19 25h-9z" />
    <glyph glyph-name="FL00FEh" unicode="&#xfe;" horiz-adv-x="872" 
d="M482 554h-316l-50 -233h419q16 0 22.5 -14t4.5 -26q-1 -4 -4 -11t-8 -13.5t-11.5 -11.5t-13.5 -5h-426l-51 -240h316l23 109h318q35 0 65 16.5t53.5 41.5t39 55.5t21.5 59.5q5 22 3.5 51.5t-11 56t-28 44.5t-48.5 18h-340zM155 568h344l-2 -6l20 -25l-15 -71h301
q30 0 49.5 -16t31.5 -41l6 -6q12 -15 18.5 -34t9.5 -39t2.5 -40t-3.5 -36q-6 -30 -23 -62.5t-42 -59.5t-57.5 -44.5t-69.5 -17.5h-307l-23 -109h-338l-20 25h-6l57 268h440q8 0 13 11t7 16v1h-423l-20 25h-6z" />
    <glyph glyph-name="FL00FFh" unicode="&#xff;" horiz-adv-x="976" 
d="M832 750h-145l-27 -131h145zM605 750h-145l-27 -131h145zM707 276l354 278h-330l-151 -120l-99 120h-330l239 -278l-59 -276h317zM1099 568l-6 -5l20 -26l-374 -294l-60 -282h-339l-20 25h-6l60 283l-255 299h371l94 -115l144 115h371zM449 764h173l-1 -6l20 -25
l-33 -153h-167l-19 25h-6zM676 764h173l-1 -6l20 -25l-33 -153h-167l-19 25h-6z" />
    </font>
</defs>
</svg>
